<?xml version="1.0" encoding="utf-8"?>
<!-- Generator: Adobe Illustrator 16.0.4, SVG Export Plug-In . SVG Version: 6.00 Build 0)  -->
<!DOCTYPE svg PUBLIC "-//W3C//DTD SVG 1.1//EN" "http://www.w3.org/Graphics/SVG/1.1/DTD/svg11.dtd">
<svg version="1.1" id="Layer_1" xmlns="http://www.w3.org/2000/svg" xmlns:xlink="http://www.w3.org/1999/xlink" x="0px" y="0px"
	 width="885.107px" height="186.5px" viewBox="0 0 885.107 186.5" enable-background="new 0 0 885.107 186.5" xml:space="preserve">
<polygon fill="#A9D3D6" points="885.103,145.174 156.589,145.174 156.589,144.174 883.897,144.174 875.629,100.239 875.647,100.143 
	883.89,58.579 156.588,58.579 156.588,57.579 885.108,57.579 876.646,100.244 "/>
<polygon fill="#A9D3D6" points="882.104,142.588 156.589,142.588 156.589,141.588 880.896,141.588 873.006,100.253 873.025,100.158 
	880.888,61.165 156.588,61.165 156.588,60.165 882.11,60.165 874.025,100.259 "/>
<polygon fill="#A9D5D7" points="858.258,32.662 563.828,32.662 558.827,60.647 863.258,60.647 "/>
<g>
	<path fill="#A9D3D6" d="M78.388,177.784c-28.012,0-54.659-3.148-75.03-8.866c-0.212-0.06-0.36-0.251-0.365-0.472
		c-0.001-0.049,0.005-0.098,0.018-0.144V0.447h1v167.615c20.237,5.625,46.629,8.722,74.377,8.722
		c27.991,0,54.548-3.142,74.839-8.851V0.447h1v167.854c0.051,0.256-0.111,0.42-0.361,0.491
		C133.442,174.59,106.637,177.784,78.388,177.784z"/>
	<path fill="#A9D3D6" d="M78.389,181.038c-29.584,0-57.298-3.459-78.034-9.739c-0.173-0.053-0.305-0.195-0.344-0.372
		c-0.016-0.073-0.015-0.146,0.001-0.216V0h1v170.452c20.604,6.183,48.062,9.586,77.377,9.586c29.567,0,57.19-3.452,77.841-9.725
		L156.227,0h1v170.676c-0.024,0.195-0.166,0.428-0.354,0.486C136.092,177.531,108.22,181.038,78.389,181.038z"/>
</g>
<g>
	<path fill="#A9D5D6" d="M499.295,27.016c-0.119,0-0.238-0.007-0.359-0.022c-1.275-0.156-2.298-1.14-2.523-2.386
		c-1.153-0.021-2.185-0.715-2.64-1.781c-0.501-1.187-0.16-2.564,0.805-3.381c-0.556-1.001-0.478-2.245,0.224-3.175
		c0.559-0.742,1.412-1.167,2.343-1.167c0.341,0,0.672,0.058,0.988,0.171c0.585-0.968,1.69-1.54,2.86-1.394
		c1.278,0.156,2.303,1.14,2.528,2.388c1.153,0.022,2.183,0.716,2.636,1.781c0.505,1.187,0.165,2.563-0.803,3.379
		c0.556,1.002,0.477,2.246-0.224,3.176c-0.557,0.741-1.409,1.167-2.338,1.167l0,0c-0.336,0-0.674-0.059-0.99-0.173
		C501.274,26.467,500.318,27.016,499.295,27.016z M496.938,23.988l0.024,0.292c0.092,1.099,0.951,1.994,2.045,2.128
		c0.998,0.124,1.966-0.419,2.396-1.312l0.127-0.264l0.265,0.125c0.982,0.466,2.211,0.163,2.864-0.708
		c0.604-0.803,0.629-1.898,0.061-2.727l-0.166-0.243l0.242-0.167c0.906-0.625,1.251-1.816,0.817-2.833
		c-0.391-0.919-1.324-1.49-2.327-1.416l-0.292,0.022l-0.024-0.292c-0.092-1.099-0.953-1.995-2.05-2.129
		c-0.995-0.125-1.962,0.418-2.39,1.31l-0.126,0.264l-0.266-0.125c-0.979-0.462-2.212-0.159-2.867,0.71
		c-0.604,0.803-0.629,1.898-0.061,2.726l0.166,0.242l-0.241,0.167c-0.905,0.626-1.25,1.819-0.82,2.836
		c0.392,0.919,1.345,1.492,2.33,1.415L496.938,23.988z"/>
	<path fill="#A9D5D6" d="M499.965,23.02c-1.424,0-2.582-1.158-2.582-2.582s1.158-2.582,2.582-2.582s2.582,1.158,2.582,2.582
		S501.389,23.02,499.965,23.02z M499.965,18.446c-1.099,0-1.992,0.894-1.992,1.992s0.894,1.992,1.992,1.992s1.992-0.894,1.992-1.992
		S501.063,18.446,499.965,18.446z"/>
</g>
<g>
	<path fill="#A9D5D6" d="M323.067,32.168c-0.12,0-0.241-0.007-0.363-0.022c-1.275-0.154-2.297-1.138-2.524-2.386
		c-1.153-0.022-2.186-0.717-2.64-1.782c-0.501-1.188-0.161-2.563,0.805-3.378c-0.558-1.002-0.479-2.247,0.224-3.177
		c0.558-0.743,1.412-1.169,2.342-1.169c0.341,0,0.672,0.058,0.989,0.171c0.585-0.968,1.697-1.534,2.86-1.391
		c1.276,0.156,2.301,1.139,2.528,2.386c1.153,0.022,2.183,0.716,2.635,1.78c0.505,1.187,0.166,2.564-0.802,3.38
		c0.556,1.003,0.477,2.248-0.225,3.177c-0.556,0.741-1.408,1.167-2.337,1.167c0,0,0,0,0,0c-0.336,0-0.673-0.059-0.989-0.172
		C325.042,31.62,324.088,32.168,323.067,32.168z M320.707,29.142l0.024,0.292c0.092,1.1,0.952,1.994,2.045,2.127
		c1.002,0.122,1.964-0.417,2.396-1.311l0.127-0.264l0.265,0.125c0.982,0.464,2.211,0.162,2.862-0.709
		c0.606-0.803,0.63-1.898,0.062-2.728l-0.167-0.243l0.242-0.167c0.907-0.625,1.251-1.817,0.818-2.834
		c-0.39-0.918-1.322-1.487-2.327-1.416l-0.292,0.022l-0.025-0.292c-0.093-1.099-0.955-1.994-2.05-2.127
		c-1.01-0.125-1.962,0.416-2.388,1.307l-0.126,0.265l-0.265-0.125c-0.985-0.463-2.213-0.16-2.868,0.712
		c-0.607,0.803-0.631,1.898-0.062,2.727l0.167,0.243l-0.243,0.167c-0.905,0.624-1.25,1.816-0.821,2.833
		c0.392,0.919,1.326,1.49,2.332,1.417L320.707,29.142z"/>
	<path fill="#A9D5D6" d="M323.733,28.172c-1.037,0-1.97-0.617-2.378-1.571c-0.27-0.635-0.276-1.337-0.019-1.976
		c0.258-0.641,0.75-1.142,1.386-1.411c0.322-0.137,0.661-0.206,1.008-0.206c1.038,0,1.972,0.616,2.377,1.571
		c0.27,0.635,0.276,1.337,0.018,1.977c-0.259,0.64-0.75,1.14-1.386,1.41C324.419,28.102,324.081,28.172,323.733,28.172z
		 M323.731,23.597c-0.268,0-0.529,0.054-0.778,0.159c-0.491,0.208-0.871,0.595-1.069,1.088c-0.199,0.494-0.194,1.035,0.014,1.525
		c0.315,0.736,1.036,1.212,1.836,1.212c0.267,0,0.528-0.054,0.776-0.159c0.491-0.208,0.871-0.595,1.07-1.088
		c0.199-0.494,0.194-1.036-0.014-1.526C325.252,24.073,324.532,23.597,323.731,23.597z"/>
</g>
<g>
	<path fill="#A9D5D6" d="M223.219,46.274c-0.119,0-0.239-0.007-0.359-0.022c-1.276-0.155-2.298-1.139-2.524-2.387
		c-1.152-0.021-2.185-0.715-2.64-1.781c-0.501-1.189-0.16-2.566,0.805-3.381c-0.556-1-0.478-2.245,0.224-3.176
		c0.559-0.742,1.413-1.167,2.342-1.167c0.341,0,0.673,0.058,0.99,0.172c0.585-0.968,1.695-1.538,2.86-1.394
		c1.276,0.156,2.3,1.139,2.528,2.387c1.153,0.022,2.184,0.716,2.636,1.78c0.504,1.185,0.164,2.563-0.804,3.383
		c0.556,1.001,0.478,2.245-0.223,3.176c-0.556,0.741-1.408,1.167-2.336,1.167l0,0c-0.336,0-0.674-0.06-0.991-0.173
		C225.197,45.726,224.242,46.274,223.219,46.274z M220.861,43.246l0.024,0.292c0.092,1.1,0.952,1.996,2.045,2.129
		c1.002,0.124,1.966-0.418,2.396-1.312l0.127-0.264l0.265,0.125c0.314,0.148,0.649,0.224,0.998,0.224l0,0
		c0.741,0,1.42-0.339,1.865-0.931c0.605-0.804,0.629-1.899,0.061-2.726l-0.166-0.242l0.241-0.167
		c0.908-0.629,1.252-1.823,0.82-2.838c-0.39-0.918-1.31-1.487-2.327-1.416l-0.292,0.022l-0.025-0.292
		c-0.093-1.1-0.955-1.995-2.049-2.128c-1.008-0.125-1.962,0.418-2.389,1.31l-0.126,0.264l-0.265-0.125
		c-0.984-0.463-2.211-0.16-2.868,0.71c-0.605,0.804-0.629,1.899-0.061,2.726l0.167,0.243l-0.243,0.167
		c-0.905,0.625-1.25,1.817-0.821,2.837c0.393,0.918,1.335,1.496,2.331,1.415L220.861,43.246z"/>
	<path fill="#A9D5D6" d="M223.887,42.276c-1.424,0-2.582-1.158-2.582-2.582c0-1.423,1.158-2.582,2.582-2.582
		c1.423,0,2.582,1.158,2.582,2.582C226.469,41.118,225.311,42.276,223.887,42.276z M223.887,37.702
		c-1.099,0-1.992,0.894-1.992,1.992c0,1.099,0.894,1.992,1.992,1.992c1.098,0,1.992-0.894,1.992-1.992
		C225.879,38.596,224.985,37.702,223.887,37.702z"/>
</g>
<g>
	<path fill="#A9D5D6" d="M424.334,33.992c-0.002,0-0.004,0-0.006,0c-3.724-0.001-7.226-1.453-9.859-4.086
		c-2.634-2.634-4.086-6.136-4.087-9.861c-0.001-3.725,1.448-7.226,4.082-9.859l0.417,0.417c-2.521,2.521-3.91,5.875-3.909,9.442
		s1.391,6.921,3.915,9.444c2.522,2.522,5.875,3.912,9.442,3.913c0.002,0,0.004,0,0.006,0c3.565,0,6.916-1.387,9.436-3.907
		l0.417,0.417C431.557,32.542,428.057,33.992,424.334,33.992z"/>
	<path fill="#A9D5D6" d="M413.195,50.903l-0.417-0.417c5.208-5.207,5.208-13.68,0-18.89c-5.21-5.209-13.685-5.208-18.893,0
		l-0.417-0.417c5.438-5.439,14.287-5.438,19.727,0C418.633,36.619,418.633,45.467,413.195,50.903z"/>
	<path fill="#A9D5D6" d="M403.335,33.992c-0.001,0-0.003,0-0.004,0c-3.724-0.001-7.226-1.452-9.859-4.086l0.417-0.417
		c2.522,2.523,5.875,3.913,9.443,3.914c0.001,0,0.002,0,0.004,0c3.566,0,6.918-1.388,9.439-3.91
		c5.208-5.207,5.208-13.681-0.001-18.89l0.417-0.417c5.438,5.439,5.438,14.288,0.001,19.724
		C410.559,32.542,407.059,33.992,403.335,33.992z"/>
	<path fill="#A9D5D6" d="M414.469,50.903c-5.438-5.438-5.441-14.286-0.005-19.722c2.634-2.634,6.136-4.085,9.861-4.085
		c0,0,0.001,0,0.002,0c3.725,0,7.228,1.452,9.863,4.087l-0.417,0.417c-5.209-5.208-13.684-5.209-18.892-0.002
		c-5.206,5.206-5.204,13.679,0.005,18.888L414.469,50.903z"/>
</g>
<g>
	<path fill="#A9D5D6" d="M259.473,29.64c-7.691,0-13.949-6.253-13.949-13.938h0.59c0,7.36,5.993,13.349,13.359,13.349
		c7.365,0,13.357-5.988,13.357-13.349h0.59C273.42,23.387,267.164,29.64,259.473,29.64z"/>
	<path fill="#A9D5D6" d="M273.42,45.39h-0.59c0-7.365-5.992-13.357-13.357-13.357c-7.366,0-13.359,5.992-13.359,13.357h-0.59
		c0-7.69,6.258-13.947,13.949-13.947C267.164,31.443,273.42,37.7,273.42,45.39z"/>
	<path fill="#A9D5D6" d="M244.626,44.488v-0.59c7.365,0,13.357-5.989,13.357-13.351c0-7.365-5.992-13.357-13.357-13.357V16.6
		c7.69,0,13.947,6.256,13.947,13.947C258.573,38.234,252.316,44.488,244.626,44.488z"/>
	<path fill="#A9D5D6" d="M274.321,44.487c-7.691,0-13.949-6.254-13.949-13.941c0-7.69,6.257-13.947,13.949-13.947v0.59
		c-7.366,0-13.359,5.992-13.359,13.357c0,7.362,5.993,13.351,13.359,13.351V44.487z"/>
</g>
<g>
	<path fill="#A9D5D6" d="M465.927,39.622c-0.165,0-0.333-0.01-0.502-0.031c-1.824-0.225-3.277-1.653-3.553-3.445
		c-0.008,0-0.016,0-0.023,0c-1.648,0-3.131-0.98-3.777-2.497c-0.719-1.692-0.208-3.665,1.209-4.801
		c-0.836-1.418-0.741-3.208,0.263-4.539c0.781-1.038,1.975-1.633,3.274-1.633c0.514,0,1.012,0.094,1.484,0.279
		c0.806-1.411,2.39-2.251,4.061-2.042c1.824,0.222,3.277,1.65,3.553,3.446c1.671,0.017,3.153,0.971,3.8,2.495
		c0.719,1.692,0.209,3.666-1.207,4.801c0.832,1.418,0.738,3.208-0.262,4.539c-0.78,1.038-1.975,1.632-3.275,1.632
		c-0.001,0,0,0-0.001,0c-0.514,0-1.012-0.093-1.484-0.278C468.764,38.817,467.396,39.622,465.927,39.622z M462.402,35.525
		l0.024,0.292c0.136,1.646,1.428,2.987,3.07,3.19c1.51,0.187,2.946-0.627,3.588-1.964l0.126-0.264l0.266,0.125
		c0.47,0.222,0.973,0.334,1.493,0.334c1.114,0,2.137-0.509,2.806-1.397c0.904-1.204,0.942-2.848,0.095-4.091l-0.165-0.242
		l0.24-0.167c1.357-0.942,1.874-2.732,1.227-4.256c-0.584-1.379-1.991-2.24-3.495-2.126l-0.292,0.022l-0.024-0.292
		c-0.137-1.649-1.428-2.991-3.069-3.191c-1.519-0.184-2.946,0.627-3.59,1.964l-0.127,0.264l-0.265-0.125
		c-0.47-0.222-0.972-0.334-1.492-0.334c-1.113,0-2.135,0.509-2.804,1.398c-0.909,1.205-0.947,2.848-0.095,4.09l0.166,0.242
		l-0.241,0.167c-1.359,0.942-1.877,2.731-1.229,4.255c0.587,1.378,2,2.242,3.496,2.128L462.402,35.525z"/>
	<path fill="#A9D5D6" d="M466.894,33.85c-1.983,0-3.598-1.614-3.598-3.598s1.614-3.598,3.598-3.598c1.984,0,3.599,1.614,3.599,3.598
		S468.878,33.85,466.894,33.85z M466.894,27.244c-1.658,0-3.008,1.349-3.008,3.008s1.35,3.008,3.008,3.008
		c1.659,0,3.009-1.35,3.009-3.008S468.553,27.244,466.894,27.244z"/>
</g>
<g>
	<path fill="#A9D5D6" d="M200.332,32.555c-0.166,0-0.333-0.01-0.502-0.031c-1.825-0.224-3.278-1.651-3.553-3.445
		c-1.661,0.032-3.152-0.973-3.801-2.496c-0.719-1.691-0.209-3.664,1.208-4.8c-0.834-1.42-0.74-3.211,0.263-4.541
		c0.782-1.037,1.976-1.631,3.276-1.631c0.514,0,1.011,0.093,1.484,0.278c0.804-1.411,2.395-2.247,4.061-2.041
		c1.823,0.221,3.277,1.649,3.553,3.445c0.008,0,0.016,0,0.024,0c1.652,0,3.134,0.98,3.776,2.496
		c0.718,1.693,0.208,3.666-1.207,4.799c0.833,1.419,0.74,3.209-0.263,4.539c-0.78,1.037-1.974,1.631-3.275,1.631c0,0,0,0,0,0
		c-0.506,0-1.014-0.096-1.485-0.278C203.168,31.75,201.801,32.555,200.332,32.555z M196.807,28.458l0.024,0.292
		c0.136,1.647,1.427,2.988,3.07,3.19c1.51,0.178,2.947-0.627,3.587-1.964l0.127-0.264l0.265,0.125
		c0.47,0.222,0.973,0.334,1.494,0.334h0c1.114,0,2.136-0.509,2.804-1.396c0.907-1.204,0.945-2.847,0.095-4.09l-0.166-0.242
		l0.241-0.167c1.357-0.939,1.874-2.729,1.227-4.254c-0.584-1.378-1.988-2.235-3.496-2.126l-0.292,0.022l-0.024-0.292
		c-0.137-1.649-1.428-2.991-3.07-3.19c-1.511-0.184-2.946,0.625-3.589,1.962l-0.126,0.264l-0.265-0.125
		c-0.469-0.221-0.971-0.333-1.492-0.333c-1.113,0-2.135,0.509-2.805,1.396c-0.907,1.203-0.946,2.848-0.095,4.092l0.166,0.242
		l-0.241,0.167c-1.359,0.942-1.875,2.731-1.228,4.254c0.586,1.378,1.992,2.236,3.497,2.126L196.807,28.458z"/>
	<path fill="#A9D5D6" d="M201.298,26.785c-1.984,0-3.598-1.614-3.598-3.598s1.614-3.598,3.598-3.598s3.598,1.614,3.598,3.598
		S203.282,26.785,201.298,26.785z M201.298,20.179c-1.659,0-3.008,1.35-3.008,3.008s1.349,3.008,3.008,3.008s3.008-1.35,3.008-3.008
		S202.957,20.179,201.298,20.179z"/>
</g>
<g>
	<g>
		<path fill="#A9D5D6" d="M351.458,45.516c-1.673,0-3.185-0.922-3.945-2.407c-0.144-0.263-0.471-0.404-0.771-0.328
			c-0.361,0.093-0.732,0.14-1.103,0.14c-1.801,0-3.447-1.118-4.118-2.788c-0.009-0.014-0.016-0.029-0.022-0.045
			c-0.816-2.122,0.092-4.504,2.113-5.54c0.007-0.004,0.015-0.007,0.022-0.01c0.255-0.156,0.378-0.461,0.299-0.754
			c-0.005-0.018-0.008-0.036-0.009-0.054c-0.524-2.141,0.604-4.339,2.645-5.165c0.019-0.013,0.039-0.024,0.061-0.032
			c0.51-0.195,1.043-0.293,1.584-0.293c1.673,0,3.187,0.925,3.951,2.413c0.143,0.259,0.468,0.401,0.763,0.323
			c0.025-0.007,0.051-0.01,0.077-0.01c0.29-0.083,0.66-0.13,1.03-0.13c1.807,0,3.456,1.12,4.124,2.794
			c0.008,0.013,0.014,0.026,0.02,0.041c0.817,2.119-0.093,4.499-2.117,5.535c-0.262,0.144-0.398,0.466-0.318,0.763
			c0.004,0.017,0.007,0.034,0.009,0.052c0.532,2.149-0.609,4.362-2.672,5.186c-0.011,0.006-0.022,0.011-0.035,0.016
			C352.536,45.416,352.001,45.515,351.458,45.516z M346.914,42.169c0.467,0,0.896,0.254,1.12,0.664
			c0.663,1.294,1.973,2.093,3.424,2.093c0.454,0,0.902-0.081,1.333-0.239c0.009-0.004,0.019-0.009,0.028-0.012
			c1.83-0.705,2.841-2.663,2.353-4.553c-0.004-0.016-0.007-0.033-0.008-0.049c-0.126-0.55,0.125-1.116,0.624-1.389
			c1.746-0.894,2.536-2.927,1.862-4.751c-0.006-0.012-0.013-0.024-0.018-0.038c-0.566-1.478-2.011-2.471-3.595-2.471
			c-0.321,0-0.642,0.041-0.954,0.121c-0.006,0.001-0.013,0.003-0.019,0.004c-0.551,0.138-1.145-0.124-1.417-0.621
			c-0.667-1.298-1.979-2.101-3.43-2.101c-0.444,0-0.882,0.077-1.303,0.229c-0.017,0.011-0.035,0.021-0.055,0.028
			c-1.826,0.7-2.836,2.655-2.349,4.548c0.004,0.018,0.007,0.036,0.008,0.054c0.122,0.552-0.132,1.115-0.631,1.386
			c-0.013,0.007-0.027,0.013-0.041,0.018c-1.703,0.896-2.477,2.901-1.823,4.709c0.032,0.041,0.054,0.091,0.061,0.146
			c0.597,1.453,1.983,2.386,3.557,2.386c0.321,0,0.643-0.041,0.955-0.121C346.698,42.183,346.806,42.169,346.914,42.169z"/>
		<path fill="#A9D5D6" d="M348.642,42.588c-0.423,0-0.835-0.088-1.226-0.262c-0.011-0.005-0.021-0.01-0.031-0.016
			c-1.379-0.631-2.069-2.18-1.616-3.63c0.002-0.008,0.004-0.016,0.006-0.024c0.047-0.151-0.018-0.312-0.157-0.391
			c-0.014-0.008-0.027-0.017-0.04-0.027c-1.271-0.776-1.784-2.365-1.211-3.738c0.004-0.02,0.011-0.04,0.02-0.06
			c0.485-1.087,1.568-1.789,2.758-1.789c0.313,0,0.623,0.049,0.922,0.145c0.115,0.033,0.31-0.027,0.391-0.163
			c0.743-1.259,2.406-1.82,3.76-1.248c0.02,0.004,0.039,0.01,0.057,0.019c1.411,0.63,2.119,2.212,1.647,3.681
			c-0.043,0.146,0.021,0.307,0.158,0.385c0.018,0.01,0.035,0.022,0.05,0.035c1.269,0.78,1.778,2.371,1.197,3.746
			c-0.004,0.014-0.009,0.029-0.015,0.043c-0.486,1.088-1.569,1.792-2.762,1.792c-0.312,0-0.621-0.048-0.919-0.144
			c-0.124-0.036-0.311,0.022-0.388,0.158C350.7,42.02,349.704,42.588,348.642,42.588z M347.69,41.803
			c1.096,0.47,2.44,0.021,3.042-0.998c0.206-0.363,0.665-0.545,1.073-0.426c1.167,0.375,2.439-0.203,2.946-1.279
			c0.003-0.012,0.008-0.024,0.013-0.035c0.502-1.13,0.08-2.455-0.983-3.081c-0.018-0.01-0.034-0.022-0.048-0.035
			c-0.339-0.225-0.493-0.642-0.375-1.039c0.375-1.167-0.169-2.417-1.265-2.941c-0.017-0.004-0.034-0.01-0.05-0.017
			c-1.1-0.493-2.47-0.048-3.079,0.981c-0.215,0.362-0.67,0.541-1.07,0.426c-1.17-0.375-2.431,0.194-2.942,1.262
			c-0.004,0.017-0.01,0.034-0.017,0.051c-0.503,1.128-0.082,2.452,0.98,3.08c0.012,0.007,0.023,0.015,0.034,0.024
			c0.343,0.217,0.504,0.625,0.399,1.018c-0.002,0.012-0.005,0.025-0.009,0.037c-0.383,1.184,0.186,2.455,1.322,2.957
			C347.672,41.793,347.682,41.797,347.69,41.803z"/>
	</g>
	<g>
		<path fill="#A9D5D6" d="M348,45.419c-0.611,0-1.207-0.125-1.771-0.371c-0.005-0.002-0.011-0.004-0.017-0.007
			c-2.08-0.924-3.12-3.249-2.42-5.409c0.001-0.004,0.002-0.008,0.004-0.012c0.076-0.294-0.053-0.603-0.321-0.757
			c-0.015-0.009-0.029-0.019-0.042-0.029c-1.883-1.139-2.64-3.485-1.786-5.511c0.003-0.026,0.01-0.053,0.022-0.079
			c0.715-1.596,2.309-2.628,4.059-2.628c0.46,0,0.917,0.072,1.357,0.213c0.255,0.073,0.614-0.05,0.765-0.312
			c0.007-0.012,0.015-0.023,0.023-0.034c0.798-1.326,2.251-2.148,3.802-2.148c0.599,0,1.182,0.12,1.735,0.355
			c0.021,0.004,0.04,0.01,0.06,0.019c2.073,0.923,3.113,3.249,2.418,5.409c-0.087,0.294,0.04,0.612,0.312,0.767
			c0.017,0.01,0.033,0.021,0.048,0.034c1.891,1.144,2.646,3.506,1.773,5.542c-0.004,0.015-0.009,0.029-0.015,0.043
			c-0.71,1.601-2.301,2.636-4.055,2.636c-0.459,0-0.914-0.071-1.352-0.212c-0.26-0.076-0.623,0.049-0.778,0.313
			C351.026,44.584,349.562,45.419,348,45.419z M346.512,44.528c0.476,0.2,0.976,0.302,1.488,0.301c1.354,0,2.625-0.724,3.313-1.889
			c0.289-0.491,0.909-0.738,1.458-0.578c0.387,0.125,0.781,0.187,1.179,0.187c1.5,0,2.864-0.874,3.491-2.231
			c0.003-0.013,0.008-0.026,0.014-0.039c0.799-1.791,0.131-3.889-1.553-4.881c-0.016-0.009-0.031-0.02-0.044-0.032
			c-0.477-0.301-0.696-0.877-0.534-1.423c0.597-1.856-0.275-3.846-2.029-4.666c-0.018-0.004-0.037-0.01-0.055-0.018
			c-0.498-0.223-1.025-0.336-1.566-0.336c-1.354,0-2.623,0.724-3.312,1.889c-0.007,0.011-0.014,0.022-0.022,0.032
			c-0.291,0.471-0.896,0.707-1.43,0.547c-1.84-0.593-3.859,0.314-4.667,2.012c-0.003,0.024-0.01,0.048-0.021,0.071
			c-0.798,1.787-0.131,3.883,1.553,4.876c0.015,0.009,0.028,0.019,0.041,0.029c0.479,0.304,0.699,0.884,0.538,1.43
			c-0.003,0.01-0.007,0.021-0.011,0.031c-0.584,1.85,0.3,3.833,2.067,4.643C346.447,44.492,346.481,44.507,346.512,44.528z"/>
		<path fill="#A9D5D6" d="M350.905,42.641c-1.12,0-2.174-0.643-2.684-1.638c-0.001-0.002-0.002-0.004-0.003-0.006
			c-0.077-0.129-0.235-0.192-0.381-0.152c-0.018,0.005-0.036,0.008-0.055,0.01c-0.229,0.055-0.464,0.083-0.699,0.083
			c-1.216,0-2.327-0.747-2.788-1.866c-0.013-0.018-0.023-0.039-0.032-0.06c-0.55-1.443,0.069-3.062,1.44-3.767
			c0.131-0.07,0.2-0.235,0.158-0.388c-0.003-0.013-0.006-0.025-0.008-0.038c-0.355-1.457,0.413-2.952,1.801-3.513
			c0.012-0.007,0.025-0.013,0.038-0.018c0.349-0.133,0.713-0.201,1.083-0.201c1.14,0,2.168,0.627,2.684,1.635
			c0.072,0.132,0.232,0.204,0.386,0.162c0.018-0.005,0.037-0.008,0.055-0.009c0.231-0.056,0.468-0.084,0.705-0.084
			c1.246,0,2.343,0.747,2.803,1.906c0.003,0.007,0.007,0.015,0.01,0.022c0.553,1.442-0.064,3.062-1.436,3.767
			c-0.137,0.072-0.205,0.232-0.163,0.389c0.383,1.487-0.409,3.02-1.84,3.568c-0.008,0.003-0.016,0.005-0.023,0.008
			C351.618,42.576,351.265,42.641,350.905,42.641z M348.758,40.757c0.553,1.05,1.899,1.564,3.015,1.131
			c0.007-0.003,0.015-0.005,0.022-0.008c1.135-0.45,1.76-1.673,1.455-2.857c-0.112-0.421,0.077-0.859,0.461-1.062
			c1.098-0.564,1.595-1.852,1.167-3.005c-0.002-0.006-0.005-0.011-0.007-0.017c-0.364-0.948-1.254-1.56-2.265-1.56
			c-0.204,0-0.408,0.026-0.606,0.077c-0.019,0.005-0.038,0.008-0.056,0.009c-0.396,0.083-0.81-0.112-1.005-0.469
			c-0.546-1.068-1.853-1.586-2.991-1.175c-0.01,0.005-0.021,0.01-0.032,0.015c-1.151,0.441-1.788,1.675-1.482,2.87
			c0.003,0.012,0.005,0.024,0.007,0.036c0.092,0.41-0.094,0.826-0.463,1.024c-1.088,0.559-1.588,1.825-1.188,2.97
			c0.01,0.016,0.019,0.033,0.026,0.052c0.428,1.122,1.701,1.779,2.868,1.483c0.017-0.004,0.034-0.007,0.051-0.008
			c0.4-0.085,0.818,0.111,1.011,0.473C348.751,40.743,348.754,40.75,348.758,40.757z"/>
	</g>
</g>
<g>
	<g>
		<path fill="#A9D5D6" d="M532.282,45.516c-1.674,0-3.186-0.922-3.945-2.407c-0.144-0.262-0.467-0.407-0.77-0.328
			c-0.361,0.093-0.731,0.14-1.103,0.14c-1.802,0-3.448-1.118-4.119-2.788c-0.009-0.014-0.016-0.029-0.022-0.045
			c-0.815-2.123,0.093-4.504,2.113-5.54c0.008-0.004,0.015-0.007,0.022-0.01c0.255-0.156,0.378-0.461,0.299-0.754
			c-0.004-0.017-0.007-0.034-0.009-0.051c-0.525-2.142,0.603-4.341,2.646-5.167c0.019-0.013,0.038-0.024,0.061-0.033
			c0.511-0.195,1.043-0.293,1.584-0.293c1.674,0,3.188,0.925,3.953,2.413c0.143,0.259,0.469,0.404,0.762,0.323
			c0.025-0.007,0.051-0.01,0.077-0.01c0.289-0.083,0.66-0.13,1.03-0.13c1.807,0,3.457,1.12,4.125,2.794
			c0.007,0.013,0.014,0.026,0.02,0.041c0.816,2.12-0.094,4.499-2.117,5.535c-0.262,0.144-0.399,0.466-0.319,0.763
			c0.005,0.017,0.008,0.034,0.01,0.052c0.531,2.149-0.61,4.364-2.675,5.187c-0.011,0.006-0.021,0.011-0.033,0.015
			C533.36,45.416,532.825,45.515,532.282,45.516z M527.739,42.169c0.466,0,0.896,0.254,1.119,0.664
			c0.662,1.294,1.973,2.093,3.424,2.093c0.455,0,0.903-0.081,1.334-0.24c0.009-0.004,0.018-0.008,0.026-0.012
			c1.83-0.705,2.843-2.662,2.354-4.553c-0.005-0.016-0.007-0.033-0.009-0.049c-0.126-0.55,0.126-1.116,0.624-1.389
			c1.745-0.894,2.536-2.927,1.862-4.751c-0.007-0.012-0.013-0.024-0.018-0.038c-0.566-1.478-2.012-2.471-3.596-2.471
			c-0.32,0-0.642,0.041-0.954,0.121c-0.006,0.001-0.013,0.003-0.019,0.004c-0.549,0.14-1.146-0.124-1.418-0.621
			c-0.666-1.298-1.979-2.1-3.432-2.1c-0.443,0-0.881,0.077-1.301,0.228c-0.018,0.011-0.036,0.021-0.056,0.029
			c-1.827,0.7-2.837,2.655-2.351,4.548c0.005,0.017,0.008,0.033,0.009,0.05c0.123,0.553-0.131,1.118-0.631,1.39
			c-0.013,0.007-0.026,0.013-0.041,0.018c-1.702,0.896-2.477,2.9-1.823,4.709c0.032,0.041,0.054,0.091,0.061,0.146
			c0.597,1.453,1.983,2.386,3.559,2.386c0.321,0,0.643-0.041,0.955-0.121C527.523,42.183,527.631,42.169,527.739,42.169z"/>
		<path fill="#A9D5D6" d="M529.465,42.588c-0.423,0-0.835-0.088-1.225-0.262c-0.011-0.004-0.021-0.01-0.031-0.016
			c-1.379-0.632-2.069-2.18-1.617-3.63c0.002-0.008,0.004-0.016,0.006-0.024c0.047-0.151-0.018-0.312-0.156-0.391
			c-0.015-0.008-0.027-0.017-0.04-0.027c-1.271-0.776-1.783-2.364-1.212-3.736c0.004-0.021,0.011-0.042,0.02-0.062
			c0.485-1.087,1.569-1.789,2.76-1.789c0.313,0,0.623,0.049,0.922,0.145c0.114,0.033,0.31-0.027,0.39-0.163
			c0.54-0.914,1.536-1.482,2.6-1.482c0.4,0,0.791,0.079,1.161,0.235c0.019,0.004,0.037,0.01,0.056,0.019
			c1.411,0.63,2.119,2.212,1.646,3.681c-0.043,0.146,0.021,0.307,0.158,0.385c0.018,0.01,0.034,0.022,0.05,0.035
			c1.27,0.779,1.779,2.37,1.198,3.746c-0.004,0.014-0.009,0.029-0.015,0.043c-0.486,1.088-1.57,1.792-2.762,1.792
			c-0.312,0-0.621-0.048-0.919-0.144c-0.13-0.038-0.31,0.022-0.387,0.158C531.523,42.02,530.527,42.588,529.465,42.588z
			 M528.515,41.803c1.098,0.471,2.439,0.021,3.042-0.998c0.205-0.363,0.666-0.545,1.071-0.426c1.166,0.375,2.44-0.202,2.947-1.279
			c0.003-0.012,0.008-0.023,0.013-0.035c0.502-1.131,0.079-2.455-0.984-3.08c-0.018-0.011-0.034-0.022-0.049-0.036
			c-0.339-0.224-0.492-0.642-0.374-1.038c0.375-1.167-0.17-2.417-1.267-2.941c-0.017-0.004-0.032-0.009-0.049-0.017
			c-1.101-0.495-2.47-0.048-3.077,0.981c-0.214,0.362-0.665,0.543-1.07,0.426c-1.165-0.375-2.43,0.194-2.941,1.26
			c-0.004,0.018-0.01,0.035-0.018,0.053c-0.503,1.127-0.082,2.452,0.979,3.08c0.012,0.007,0.023,0.015,0.034,0.024
			c0.344,0.217,0.504,0.625,0.399,1.018c-0.002,0.012-0.006,0.025-0.01,0.037c-0.383,1.183,0.187,2.454,1.324,2.957
			C528.496,41.793,528.506,41.798,528.515,41.803z"/>
	</g>
	<g>
		<path fill="#A9D5D6" d="M528.825,45.419c-0.608,0-1.202-0.124-1.765-0.368c-0.008-0.003-0.017-0.006-0.025-0.01
			c-2.078-0.923-3.119-3.249-2.421-5.409c0.001-0.004,0.003-0.008,0.004-0.012c0.076-0.294-0.053-0.603-0.319-0.757
			c-0.015-0.009-0.029-0.019-0.042-0.029c-1.883-1.139-2.64-3.484-1.786-5.51c0.003-0.027,0.01-0.054,0.021-0.081
			c0.716-1.596,2.31-2.628,4.06-2.628c0.461,0,0.918,0.072,1.357,0.213c0.262,0.077,0.615-0.051,0.764-0.311
			c0.008-0.014,0.018-0.028,0.027-0.04c0.799-1.323,2.25-2.144,3.799-2.144c0.599,0,1.183,0.12,1.735,0.356
			c0.02,0.004,0.039,0.01,0.059,0.019c2.074,0.923,3.114,3.248,2.419,5.409c-0.087,0.294,0.041,0.612,0.312,0.767
			c0.018,0.01,0.033,0.021,0.047,0.033c1.891,1.144,2.646,3.507,1.774,5.542c-0.004,0.015-0.009,0.029-0.016,0.043
			c-0.709,1.601-2.301,2.636-4.055,2.636c-0.46,0-0.915-0.071-1.354-0.212c-0.258-0.076-0.621,0.049-0.774,0.313
			C531.852,44.584,530.388,45.419,528.825,45.419z M527.334,44.527c0.477,0.201,0.978,0.303,1.491,0.303
			c1.354,0,2.624-0.724,3.313-1.889c0.287-0.49,0.906-0.74,1.456-0.578c0.388,0.125,0.782,0.187,1.181,0.187
			c1.501,0,2.864-0.874,3.491-2.231c0.004-0.013,0.008-0.026,0.014-0.039c0.798-1.791,0.131-3.889-1.553-4.881
			c-0.016-0.009-0.03-0.02-0.044-0.031c-0.478-0.301-0.697-0.878-0.534-1.424c0.597-1.856-0.276-3.846-2.031-4.666
			c-0.018-0.004-0.035-0.01-0.053-0.018c-0.499-0.223-1.025-0.336-1.566-0.336c-1.354,0-2.623,0.724-3.312,1.889
			c-0.008,0.013-0.017,0.025-0.025,0.037c-0.291,0.466-0.893,0.7-1.426,0.542c-0.389-0.125-0.785-0.187-1.185-0.187
			c-1.488,0-2.846,0.859-3.483,2.198c-0.003,0.024-0.01,0.049-0.021,0.073c-0.799,1.787-0.131,3.883,1.552,4.876
			c0.016,0.009,0.029,0.019,0.042,0.03c0.478,0.304,0.697,0.884,0.535,1.429c-0.003,0.011-0.007,0.021-0.011,0.031
			c-0.583,1.851,0.302,3.834,2.068,4.642C527.271,44.492,527.304,44.507,527.334,44.527z"/>
		<path fill="#A9D5D6" d="M531.729,42.641c-1.12,0-2.174-0.643-2.685-1.638c-0.001-0.002-0.002-0.004-0.003-0.006
			c-0.078-0.129-0.235-0.192-0.381-0.152c-0.018,0.005-0.036,0.008-0.054,0.01c-1.414,0.339-2.938-0.447-3.489-1.784
			c-0.013-0.018-0.023-0.039-0.031-0.06c-0.55-1.443,0.069-3.062,1.44-3.767c0.131-0.071,0.2-0.235,0.158-0.388
			c-0.003-0.012-0.006-0.025-0.007-0.038c-0.356-1.457,0.412-2.954,1.802-3.514c0.012-0.006,0.024-0.012,0.037-0.017
			c0.349-0.133,0.713-0.201,1.083-0.201c1.141,0,2.168,0.627,2.683,1.636c0.071,0.131,0.229,0.204,0.387,0.161
			c0.019-0.005,0.037-0.008,0.055-0.009c1.436-0.344,2.967,0.461,3.509,1.822c0.004,0.007,0.007,0.015,0.01,0.022
			c0.554,1.442-0.064,3.062-1.437,3.767c-0.136,0.072-0.204,0.232-0.162,0.389c0.383,1.486-0.408,3.02-1.84,3.568
			c-0.008,0.003-0.016,0.005-0.023,0.008C532.442,42.576,532.089,42.641,531.729,42.641z M529.581,40.757
			c0.553,1.049,1.899,1.562,3.016,1.131c0.007-0.003,0.015-0.005,0.021-0.008c1.135-0.45,1.76-1.673,1.455-2.857
			c-0.112-0.421,0.076-0.859,0.46-1.062c1.099-0.564,1.596-1.852,1.169-3.005c-0.003-0.006-0.006-0.011-0.008-0.017
			c-0.432-1.124-1.7-1.788-2.872-1.483c-0.019,0.005-0.038,0.008-0.057,0.009c-0.394,0.083-0.809-0.113-1.005-0.469
			c-0.545-1.069-1.851-1.586-2.991-1.175c-0.01,0.005-0.02,0.009-0.03,0.014c-1.152,0.442-1.789,1.676-1.482,2.87
			c0.004,0.012,0.006,0.024,0.007,0.036c0.093,0.409-0.094,0.826-0.463,1.024c-1.088,0.559-1.588,1.825-1.188,2.97
			c0.011,0.016,0.02,0.033,0.026,0.052c0.429,1.123,1.699,1.779,2.869,1.483c0.017-0.004,0.034-0.007,0.051-0.008
			c0.396-0.084,0.818,0.111,1.012,0.473C529.574,40.743,529.578,40.75,529.581,40.757z"/>
	</g>
</g>
<g>
	<path fill="#A9D5D6" d="M298.93,43.787c-1.589,0-3.026-0.947-3.662-2.385c-0.346,0.096-0.703,0.144-1.064,0.144
		c-1.241,0-2.39-0.559-3.154-1.534c-1.109-1.411-1.131-3.401-0.086-4.835c-1.145-1.128-1.511-2.839-0.906-4.347
		c0.666-1.661,2.364-2.685,4.145-2.496c0.405-1.556,1.704-2.729,3.312-2.957c1.813-0.257,3.521,0.735,4.232,2.342
		c0.346-0.096,0.703-0.144,1.065-0.144c1.24,0,2.39,0.559,3.155,1.533c1.107,1.417,1.128,3.406,0.084,4.836
		c1.145,1.125,1.512,2.837,0.907,4.348c-0.615,1.528-2.076,2.516-3.722,2.516c0,0,0,0,0,0c-0.141,0-0.282-0.008-0.423-0.022
		c-0.404,1.557-1.704,2.73-3.314,2.959C299.308,43.774,299.118,43.787,298.93,43.787z M295.618,40.664l0.099,0.276
		c0.541,1.501,2.073,2.458,3.698,2.224c1.453-0.207,2.61-1.315,2.878-2.76l0.054-0.289l0.289,0.052
		c0.197,0.035,0.399,0.053,0.599,0.053c1.404,0,2.651-0.842,3.175-2.145c0.546-1.364,0.164-2.92-0.952-3.872l-0.224-0.19l0.19-0.224
		c1.04-1.228,1.073-3.042,0.078-4.315c-0.652-0.831-1.633-1.308-2.69-1.308c-0.39,0-0.773,0.066-1.14,0.195l-0.276,0.098
		l-0.099-0.276c-0.54-1.501-2.081-2.455-3.699-2.221c-1.452,0.206-2.608,1.313-2.877,2.757l-0.054,0.288l-0.289-0.052
		c-0.198-0.035-0.4-0.053-0.601-0.053c-1.404,0-2.65,0.843-3.173,2.148c-0.546,1.361-0.164,2.916,0.951,3.87l0.222,0.19
		l-0.188,0.224c-1.04,1.232-1.072,3.046-0.076,4.314c0.651,0.832,1.632,1.308,2.69,1.308c0.389,0,0.772-0.066,1.138-0.195
		L295.618,40.664z"/>
	<path fill="#A9D5D6" d="M297.027,40.442c-0.351,0-0.695-0.067-1.024-0.198c-1.113-0.449-1.803-1.581-1.718-2.761
		c-1.025-0.3-1.793-1.173-1.947-2.251c-0.169-1.193,0.465-2.355,1.53-2.867c-0.253-1.04,0.12-2.142,0.976-2.812
		c0.927-0.727,2.288-0.763,3.25-0.108c0.761-0.728,1.93-0.963,2.924-0.562c1.115,0.448,1.804,1.579,1.715,2.759
		c1.029,0.301,1.797,1.176,1.948,2.253c0.17,1.189-0.464,2.351-1.53,2.865c0.252,1.04-0.12,2.142-0.974,2.813
		c-0.488,0.384-1.074,0.587-1.695,0.587l0,0c-0.557,0-1.1-0.168-1.555-0.479C298.418,40.167,297.74,40.442,297.027,40.442z
		 M296.539,29.557c-0.487,0-0.948,0.159-1.332,0.46c-0.73,0.572-1.013,1.544-0.704,2.419l0.098,0.276l-0.276,0.099
		c-0.956,0.344-1.546,1.326-1.403,2.337c0.131,0.919,0.832,1.65,1.742,1.818l0.287,0.053l-0.05,0.288
		c-0.177,1.003,0.38,2.008,1.323,2.388c0.852,0.341,1.858,0.09,2.447-0.602l0.19-0.223l0.224,0.189
		c0.76,0.642,1.942,0.667,2.728,0.048c0.729-0.572,1.011-1.545,0.703-2.42l-0.097-0.276l0.275-0.1
		c0.958-0.346,1.548-1.329,1.403-2.335c-0.129-0.919-0.829-1.65-1.743-1.821l-0.288-0.054l0.052-0.288
		c0.179-1.003-0.375-2.006-1.32-2.386c-0.853-0.343-1.857-0.09-2.447,0.602l-0.19,0.223l-0.224-0.189
		C297.547,29.737,297.051,29.557,296.539,29.557z"/>
	<path fill="#A9D5D6" d="M298.508,36.99c-1.338,0-2.428-1.089-2.428-2.428s1.089-2.428,2.428-2.428c1.339,0,2.428,1.089,2.428,2.428
		S299.847,36.99,298.508,36.99z M298.508,32.724c-1.014,0-1.838,0.824-1.838,1.838s0.824,1.838,1.838,1.838s1.838-0.824,1.838-1.838
		S299.521,32.724,298.508,32.724z"/>
</g>
<g>
	<path fill="#A9D5D6" d="M367.493,30.022c-0.12,0-0.242-0.007-0.364-0.022c-1.277-0.154-2.299-1.137-2.524-2.386
		c-1.155-0.022-2.187-0.717-2.639-1.783c-0.503-1.187-0.163-2.563,0.803-3.379c-0.555-1.004-0.478-2.248,0.222-3.176
		c0.562-0.743,1.417-1.169,2.346-1.169c0.34,0,0.671,0.058,0.987,0.171c0.586-0.969,1.702-1.533,2.862-1.391
		c1.278,0.157,2.302,1.14,2.529,2.386c1.153,0.022,2.184,0.716,2.638,1.78c0.504,1.187,0.164,2.565-0.805,3.383
		c0.556,1.004,0.477,2.248-0.224,3.176c-0.556,0.741-1.409,1.167-2.34,1.167l0,0c-0.336,0-0.674-0.059-0.99-0.172
		C369.469,29.474,368.515,30.022,367.493,30.022z M365.133,26.996l0.024,0.292c0.089,1.1,0.949,1.994,2.043,2.126
		c1.019,0.13,1.966-0.416,2.395-1.31l0.127-0.264l0.265,0.125c0.309,0.146,0.654,0.223,0.997,0.223c0.744,0,1.425-0.34,1.869-0.932
		c0.605-0.801,0.629-1.896,0.061-2.727l-0.166-0.242l0.242-0.167c0.907-0.626,1.252-1.819,0.82-2.837
		c-0.391-0.918-1.33-1.49-2.329-1.415l-0.292,0.022l-0.024-0.292c-0.092-1.098-0.954-1.992-2.05-2.127
		c-1.005-0.124-1.963,0.416-2.391,1.308l-0.126,0.264l-0.266-0.125c-0.983-0.465-2.21-0.159-2.869,0.712
		c-0.604,0.8-0.627,1.896-0.059,2.727l0.166,0.242l-0.242,0.167c-0.906,0.625-1.25,1.817-0.818,2.834
		c0.39,0.92,1.33,1.491,2.331,1.417L365.133,26.996z"/>
	<path fill="#A9D5D6" d="M368.158,26.026c-1.424,0-2.583-1.159-2.583-2.583c0-1.424,1.159-2.583,2.583-2.583
		c1.424,0,2.583,1.159,2.583,2.583C370.741,24.867,369.582,26.026,368.158,26.026z M368.158,21.45c-1.099,0-1.993,0.894-1.993,1.993
		c0,1.099,0.894,1.993,1.993,1.993c1.099,0,1.993-0.894,1.993-1.993C370.151,22.344,369.257,21.45,368.158,21.45z"/>
</g>
<g>
	<path fill="#A9D5D6" d="M406.065,182.828c-0.12,0-0.24-0.008-0.362-0.022c-1.277-0.157-2.301-1.142-2.528-2.388
		c-1.154-0.021-2.185-0.716-2.637-1.78c-0.505-1.188-0.165-2.565,0.804-3.381c-0.556-1.004-0.478-2.247,0.223-3.176
		c0.557-0.741,1.41-1.167,2.339-1.167c0.336,0,0.673,0.06,0.99,0.173c0.588-0.971,1.705-1.534,2.866-1.396
		c1.274,0.155,2.297,1.139,2.524,2.387c1.154,0.021,2.186,0.717,2.64,1.783c0.502,1.188,0.162,2.563-0.805,3.378
		c0.556,1.004,0.478,2.247-0.223,3.176c-0.56,0.743-1.414,1.169-2.343,1.169c-0.341,0-0.672-0.058-0.989-0.172
		C408.04,182.28,407.087,182.828,406.065,182.828z M403.701,179.799l0.025,0.292c0.092,1.099,0.955,1.993,2.05,2.128
		c1.001,0.134,1.962-0.416,2.389-1.309l0.126-0.265l0.266,0.125c0.983,0.463,2.212,0.159,2.868-0.712
		c0.604-0.801,0.628-1.896,0.06-2.726l-0.167-0.243l0.243-0.167c0.906-0.623,1.251-1.814,0.82-2.832
		c-0.391-0.92-1.319-1.498-2.331-1.418l-0.292,0.022l-0.025-0.292c-0.093-1.1-0.953-1.994-2.045-2.127
		c-1.019-0.131-1.966,0.415-2.396,1.311l-0.127,0.264l-0.265-0.125c-0.981-0.461-2.21-0.159-2.864,0.709
		c-0.605,0.802-0.629,1.897-0.06,2.727l0.167,0.243l-0.243,0.167c-0.908,0.624-1.252,1.816-0.819,2.835
		c0.367,0.863,1.211,1.422,2.15,1.422c0,0,0,0,0,0c0.059,0,0.118-0.002,0.177-0.007L403.701,179.799z"/>
	<path fill="#A9D5D6" d="M406.73,178.831c-1.424,0-2.582-1.158-2.582-2.582s1.158-2.582,2.582-2.582
		c1.423,0,2.581,1.158,2.581,2.582S408.154,178.831,406.73,178.831z M406.73,174.256c-1.099,0-1.992,0.894-1.992,1.992
		s0.894,1.992,1.992,1.992c1.098,0,1.991-0.894,1.991-1.992S407.829,174.256,406.73,174.256z"/>
</g>
<g>
	<path fill="#A9D5D6" d="M582.299,177.676c-0.12,0-0.241-0.008-0.363-0.022c-1.277-0.157-2.302-1.141-2.528-2.387
		c-1.153-0.021-2.185-0.716-2.637-1.78c-0.505-1.187-0.165-2.564,0.803-3.381c-0.558-1.003-0.479-2.247,0.225-3.176
		c0.556-0.741,1.408-1.167,2.338-1.167c0.336,0,0.673,0.06,0.989,0.173c0.59-0.972,1.708-1.53,2.865-1.395
		c1.275,0.154,2.299,1.138,2.524,2.386c1.153,0.022,2.186,0.717,2.641,1.781c0.501,1.188,0.16,2.564-0.806,3.38
		c0.557,1.002,0.478,2.246-0.224,3.176c-0.558,0.742-1.411,1.169-2.343,1.169c-0.341,0-0.672-0.058-0.988-0.171
		C584.272,177.129,583.321,177.676,582.299,177.676z M579.934,174.649l0.024,0.292c0.092,1.098,0.954,1.992,2.05,2.127
		c1.008,0.132,1.963-0.416,2.387-1.307l0.126-0.265l0.266,0.125c0.988,0.463,2.214,0.159,2.869-0.712
		c0.605-0.803,0.63-1.898,0.061-2.727l-0.167-0.242l0.243-0.168c0.905-0.624,1.25-1.815,0.82-2.834
		c-0.392-0.917-1.314-1.498-2.332-1.416l-0.292,0.022l-0.024-0.292c-0.092-1.1-0.952-1.994-2.045-2.126
		c-1.017-0.129-1.965,0.415-2.396,1.31l-0.127,0.264l-0.265-0.125c-0.309-0.146-0.652-0.223-0.995-0.223
		c-0.742,0-1.423,0.34-1.866,0.932c-0.607,0.803-0.632,1.897-0.062,2.727l0.167,0.242l-0.243,0.168
		c-0.907,0.625-1.251,1.817-0.817,2.835c0.391,0.918,1.332,1.499,2.328,1.415L579.934,174.649z"/>
	<path fill="#A9D5D6" d="M582.963,173.679c-1.038,0-1.971-0.617-2.377-1.571c-0.27-0.636-0.275-1.338-0.018-1.978
		c0.259-0.64,0.751-1.14,1.386-1.409c0.32-0.137,0.659-0.206,1.006-0.206c1.038,0,1.972,0.616,2.379,1.57
		c0.556,1.312-0.058,2.831-1.368,3.388C583.649,173.61,583.311,173.679,582.963,173.679z M582.96,169.105
		c-0.267,0-0.527,0.054-0.775,0.159c-0.49,0.208-0.87,0.594-1.069,1.087c-0.199,0.494-0.194,1.036,0.014,1.526
		c0.313,0.736,1.033,1.212,1.834,1.212c0.268,0,0.529-0.054,0.777-0.159c1.011-0.429,1.484-1.602,1.056-2.613
		C584.481,169.581,583.761,169.105,582.96,169.105z"/>
</g>
<g>
	<path fill="#A9D5D6" d="M682.142,163.571c-0.119,0-0.239-0.007-0.36-0.021c-1.276-0.155-2.301-1.139-2.528-2.387
		c-1.153-0.022-2.184-0.716-2.637-1.78c-0.504-1.185-0.164-2.562,0.803-3.381c-0.556-1.002-0.477-2.245,0.224-3.177
		c0.556-0.74,1.408-1.165,2.338-1.165c0.336,0,0.674,0.059,0.99,0.172c0.589-0.97,1.696-1.539,2.865-1.396
		c1.275,0.156,2.298,1.14,2.523,2.387c1.153,0.021,2.187,0.715,2.643,1.78c0.5,1.189,0.158,2.566-0.807,3.381
		c0.557,1.001,0.479,2.245-0.223,3.176c-0.761,1.011-2.138,1.422-3.332,0.995C684.117,163.024,683.164,163.571,682.142,163.571z
		 M679.779,160.544l0.024,0.291c0.093,1.101,0.955,1.995,2.049,2.128c1.004,0.131,1.963-0.417,2.39-1.309l0.126-0.265l0.266,0.125
		c0.982,0.463,2.214,0.161,2.868-0.71c0.604-0.804,0.629-1.899,0.06-2.726l-0.167-0.242l0.243-0.168
		c0.904-0.624,1.25-1.816,0.821-2.836c-0.393-0.917-1.314-1.491-2.333-1.414l-0.293,0.022l-0.024-0.292
		c-0.092-1.1-0.951-1.994-2.045-2.128c-0.997-0.121-1.965,0.418-2.396,1.312l-0.127,0.264l-0.265-0.125
		c-0.982-0.465-2.21-0.16-2.863,0.707c-0.604,0.804-0.629,1.899-0.061,2.727l0.166,0.242l-0.241,0.167
		c-0.907,0.628-1.251,1.82-0.818,2.837c0.391,0.917,1.318,1.503,2.328,1.415L679.779,160.544z"/>
	<path fill="#A9D5D6" d="M682.808,159.575c-1.423,0-2.581-1.158-2.581-2.582s1.158-2.582,2.581-2.582
		c1.424,0,2.582,1.158,2.582,2.582S684.231,159.575,682.808,159.575z M682.808,155c-1.098,0-1.991,0.894-1.991,1.992
		s0.894,1.992,1.991,1.992c1.099,0,1.992-0.894,1.992-1.992S683.906,155,682.808,155z"/>
</g>
<g>
	<path fill="#A9D5D6" d="M492.232,186.501l-0.418-0.416c5.205-5.207,5.202-13.681-0.006-18.89c-2.521-2.521-5.874-3.911-9.441-3.912
		c-0.001,0-0.003,0-0.004,0c-3.566,0-6.918,1.388-9.439,3.908l-0.416-0.416c2.632-2.633,6.132-4.082,9.855-4.082
		c0.001,0,0.002,0,0.004,0c3.725,0.001,7.226,1.452,9.858,4.086C497.663,172.217,497.667,181.065,492.232,186.501z"/>
	<path fill="#A9D5D6" d="M503.364,169.585c-3.572,0-7.144-1.36-9.863-4.08c-5.438-5.438-5.438-14.286-0.001-19.725l0.418,0.416
		c-5.208,5.21-5.207,13.685,0,18.893c5.209,5.207,13.683,5.208,18.892,0.001l0.416,0.418
		C510.507,168.226,506.936,169.585,503.364,169.585z"/>
	<path fill="#A9D5D6" d="M493.505,186.5c-2.635-2.635-4.086-6.137-4.087-9.861c0-3.726,1.45-7.228,4.086-9.862
		c5.436-5.437,14.281-5.433,19.719,0.002l-0.416,0.418c-5.208-5.208-13.682-5.209-18.886-0.003
		c-2.524,2.523-3.914,5.878-3.913,9.445s1.391,6.921,3.913,9.443L493.505,186.5z"/>
	<path fill="#A9D5D6" d="M482.371,169.583c-3.573,0.001-7.146-1.359-9.865-4.078l0.416-0.418c5.209,5.207,13.684,5.209,18.893,0.003
		c5.205-5.207,5.202-13.681-0.007-18.891l0.418-0.416c5.438,5.438,5.44,14.287,0.006,19.723
		C489.514,168.223,485.941,169.583,482.371,169.583z"/>
</g>
<g>
	<path fill="#A9D5D6" d="M661.169,180.985h-0.59c0-7.362-5.992-13.352-13.358-13.352c-7.365,0-13.356,5.989-13.356,13.352h-0.59
		c0-7.688,6.256-13.941,13.946-13.941C654.912,167.043,661.169,173.297,661.169,180.985z"/>
	<path fill="#A9D5D6" d="M647.222,165.242c-7.69,0-13.946-6.256-13.946-13.946h0.59c0,7.365,5.991,13.356,13.356,13.356
		c7.366,0,13.358-5.991,13.358-13.356h0.59C661.17,158.986,654.913,165.242,647.222,165.242z"/>
	<path fill="#A9D5D6" d="M662.069,180.084c-7.69,0-13.947-6.255-13.947-13.943s6.257-13.943,13.947-13.943v0.59
		c-7.365,0-13.357,5.99-13.357,13.354s5.992,13.354,13.357,13.354V180.084z"/>
	<path fill="#A9D5D6" d="M632.374,180.084v-0.59c7.366,0,13.359-5.991,13.359-13.354c0-7.362-5.993-13.353-13.359-13.353v-0.59
		c7.691,0,13.949,6.255,13.949,13.942C646.323,173.829,640.065,180.084,632.374,180.084z"/>
</g>
<g>
	<path fill="#A9D5D6" d="M203.427,180.985h-0.59c0-7.362-5.993-13.352-13.359-13.352c-7.365,0-13.357,5.989-13.357,13.352h-0.59
		c0-7.688,6.256-13.941,13.947-13.941C197.169,167.043,203.427,173.297,203.427,180.985z"/>
	<path fill="#A9D5D6" d="M189.478,165.242c-7.69,0-13.947-6.256-13.947-13.946h0.59c0,7.365,5.992,13.356,13.357,13.356
		c7.366,0,13.359-5.991,13.359-13.356h0.59C203.427,158.986,197.169,165.242,189.478,165.242z"/>
	<path fill="#A9D5D6" d="M204.324,180.084c-7.689,0-13.945-6.255-13.945-13.943s6.256-13.943,13.945-13.943v0.59
		c-7.364,0-13.355,5.99-13.355,13.354s5.991,13.354,13.355,13.354V180.084z"/>
	<path fill="#A9D5D6" d="M174.63,180.084v-0.59c7.366,0,13.359-5.991,13.359-13.354c0-7.362-5.993-13.353-13.359-13.353v-0.59
		c7.691,0,13.949,6.255,13.949,13.942C188.579,173.829,182.321,180.084,174.63,180.084z"/>
</g>
<g>
	<path fill="#A9D5D6" d="M438.839,175.804c-0.167,0-0.335-0.011-0.505-0.031c-1.826-0.223-3.279-1.65-3.554-3.445
		c-0.008,0-0.016,0-0.024,0c-1.651,0-3.133-0.979-3.777-2.495c-0.719-1.695-0.208-3.667,1.207-4.8c-0.833-1.42-0.74-3.21,0.262-4.54
		c0.782-1.036,1.977-1.631,3.277-1.631c0.514,0,1.012,0.094,1.484,0.278c0.802-1.412,2.393-2.247,4.06-2.043
		c1.825,0.224,3.279,1.651,3.554,3.444c1.629-0.003,3.151,0.973,3.799,2.495c0.719,1.691,0.208,3.664-1.208,4.8
		c0.835,1.419,0.741,3.21-0.262,4.541c-0.781,1.037-1.976,1.633-3.275,1.633c-0.514,0-1.012-0.094-1.485-0.278
		C441.67,175,440.305,175.804,438.839,175.804z M435.311,171.706l0.024,0.292c0.135,1.648,1.427,2.99,3.071,3.189
		c1.508,0.189,2.944-0.625,3.587-1.962l0.127-0.264l0.265,0.125c0.469,0.222,0.972,0.334,1.493,0.334
		c1.113,0,2.136-0.51,2.805-1.398c0.907-1.204,0.945-2.849,0.094-4.091l-0.166-0.242l0.241-0.167
		c1.358-0.942,1.876-2.731,1.229-4.255c-0.586-1.377-1.992-2.244-3.494-2.126l-0.292,0.022l-0.024-0.292
		c-0.136-1.646-1.428-2.987-3.071-3.188c-1.507-0.183-2.948,0.626-3.588,1.963l-0.127,0.265l-0.265-0.125
		c-0.469-0.222-0.972-0.334-1.493-0.334c-1.114,0-2.137,0.509-2.807,1.396c-0.906,1.203-0.944,2.847-0.093,4.092l0.166,0.242
		l-0.242,0.166c-1.358,0.938-1.875,2.728-1.227,4.254c0.585,1.377,1.99,2.242,3.497,2.126L435.311,171.706z"/>
	<path fill="#A9D5D6" d="M439.801,170.033c-1.984,0-3.598-1.614-3.598-3.598c0-1.984,1.614-3.599,3.598-3.599
		s3.598,1.614,3.598,3.599C443.398,168.418,441.785,170.033,439.801,170.033z M439.801,163.426c-1.659,0-3.008,1.35-3.008,3.009
		c0,1.658,1.349,3.008,3.008,3.008s3.008-1.35,3.008-3.008C442.809,164.776,441.459,163.426,439.801,163.426z"/>
</g>
<g>
	<path fill="#A9D5D6" d="M704.434,182.87c-0.166,0-0.335-0.011-0.505-0.031c-1.823-0.221-3.276-1.649-3.553-3.446
		c-0.008,0-0.016,0-0.023,0c-1.651,0-3.133-0.979-3.775-2.495c-0.719-1.694-0.209-3.666,1.205-4.8
		c-0.832-1.42-0.737-3.21,0.264-4.539c0.779-1.036,1.973-1.631,3.273-1.631c0.515,0,1.013,0.094,1.486,0.278
		c0.803-1.412,2.384-2.249,4.061-2.045c1.824,0.226,3.277,1.653,3.553,3.446c0.008,0,0.016,0,0.023,0
		c1.649,0,3.132,0.979,3.777,2.495c0.719,1.691,0.209,3.664-1.207,4.8c0.833,1.42,0.739,3.211-0.264,4.541
		c-0.781,1.036-1.976,1.631-3.275,1.631c-0.514,0-1.012-0.094-1.484-0.278C707.267,182.064,705.9,182.87,704.434,182.87z
		 M700.906,178.77l0.024,0.292c0.137,1.65,1.428,2.992,3.069,3.19c1.52,0.193,2.945-0.625,3.59-1.964l0.127-0.264l0.265,0.125
		c0.47,0.222,0.972,0.334,1.492,0.334c1.113,0,2.136-0.509,2.805-1.396c0.907-1.203,0.945-2.848,0.096-4.093l-0.165-0.241
		l0.24-0.167c1.358-0.942,1.875-2.73,1.228-4.254c-0.587-1.376-1.992-2.243-3.496-2.126l-0.292,0.022l-0.024-0.292
		c-0.136-1.646-1.428-2.988-3.07-3.19c-1.514-0.184-2.946,0.627-3.588,1.965l-0.126,0.265l-0.266-0.125
		c-0.47-0.222-0.974-0.334-1.495-0.334c-1.114,0-2.136,0.509-2.803,1.396c-0.906,1.203-0.944,2.848-0.096,4.092l0.165,0.242
		l-0.24,0.166c-1.357,0.939-1.873,2.729-1.226,4.254c0.583,1.378,1.994,2.244,3.494,2.126L700.906,178.77z"/>
	<path fill="#A9D5D6" d="M705.396,177.098c-1.983,0-3.598-1.614-3.598-3.598s1.614-3.598,3.598-3.598
		c1.984,0,3.599,1.614,3.599,3.598S707.381,177.098,705.396,177.098z M705.396,170.493c-1.658,0-3.008,1.35-3.008,3.008
		s1.35,3.008,3.008,3.008c1.659,0,3.009-1.35,3.009-3.008S707.056,170.493,705.396,170.493z"/>
</g>
<g>
	<path fill="#A9D5D6" d="M228.498,179.761c-0.855,0-1.665-0.374-2.218-1.013c-0.438,0.248-0.932,0.379-1.443,0.379l0,0
		c-0.626,0-1.226-0.197-1.734-0.568c-1.038-0.764-1.447-2.123-1.03-3.32c-0.989-0.58-1.554-1.692-1.423-2.85
		c0.141-1.278,1.112-2.311,2.357-2.549c0.009-1.148,0.69-2.194,1.757-2.659c1.159-0.505,2.574-0.173,3.388,0.768
		c0.977-0.555,2.257-0.486,3.179,0.191c1.037,0.767,1.444,2.124,1.028,3.317c0.987,0.581,1.553,1.692,1.425,2.849
		c-0.145,1.279-1.118,2.313-2.361,2.554c-0.008,1.146-0.688,2.191-1.754,2.655C229.297,179.678,228.902,179.761,228.498,179.761z
		 M226.419,177.949l0.169,0.238c0.624,0.878,1.846,1.226,2.845,0.787c0.92-0.4,1.479-1.342,1.392-2.343l-0.025-0.291l0.292-0.028
		c1.098-0.104,1.984-0.975,2.108-2.071c0.11-0.998-0.427-1.955-1.337-2.379l-0.266-0.125l0.123-0.267
		c0.461-0.998,0.151-2.199-0.737-2.855c-0.797-0.586-1.926-0.597-2.728-0.033l-0.24,0.169l-0.169-0.239
		c-0.624-0.879-1.847-1.228-2.845-0.789c-0.921,0.4-1.481,1.344-1.394,2.347l0.025,0.292l-0.292,0.027
		c-1.098,0.102-1.983,0.971-2.104,2.066c-0.113,1,0.424,1.956,1.334,2.38l0.266,0.124l-0.123,0.267
		c-0.461,1.002-0.151,2.204,0.739,2.858c0.405,0.297,0.884,0.454,1.385,0.454l0,0c0.483,0,0.948-0.146,1.342-0.421L226.419,177.949z
		"/>
	<path fill="#A9D5D6" d="M227.217,175.93c-1.423,0-2.581-1.158-2.581-2.581s1.158-2.581,2.581-2.581
		c1.423,0,2.581,1.158,2.581,2.581S228.64,175.93,227.217,175.93z M227.217,171.358c-1.098,0-1.991,0.894-1.991,1.991
		s0.893,1.991,1.991,1.991c1.098,0,1.991-0.894,1.991-1.991S228.315,171.358,227.217,171.358z"/>
</g>
<g>
	<path fill="#A9D5D6" d="M391.692,165.371c-0.857,0-1.668-0.374-2.221-1.014c-0.438,0.249-0.933,0.38-1.444,0.38l0,0
		c-0.626,0-1.225-0.197-1.731-0.57c-1.039-0.765-1.447-2.123-1.031-3.318c-0.989-0.58-1.554-1.691-1.423-2.848
		c0.142-1.281,1.114-2.314,2.359-2.55c0.012-1.148,0.692-2.195,1.756-2.661c1.159-0.504,2.572-0.171,3.388,0.771
		c0.977-0.558,2.257-0.489,3.179,0.188c1.036,0.769,1.444,2.128,1.028,3.32c0.99,0.581,1.556,1.692,1.424,2.848
		c-0.144,1.279-1.117,2.313-2.36,2.553c-0.01,1.145-0.688,2.189-1.753,2.656C392.49,165.289,392.096,165.371,391.692,165.371z
		 M389.61,163.555l0.17,0.24c0.622,0.879,1.848,1.226,2.848,0.79c0.918-0.403,1.478-1.346,1.391-2.345l-0.025-0.292l0.292-0.027
		c1.097-0.103,1.982-0.974,2.106-2.071c0.113-0.997-0.423-1.952-1.336-2.377l-0.267-0.124l0.124-0.268
		c0.461-0.997,0.15-2.199-0.738-2.859c-0.795-0.584-1.924-0.593-2.726-0.029l-0.24,0.168l-0.169-0.238
		c-0.625-0.879-1.847-1.228-2.845-0.792c-0.918,0.401-1.479,1.346-1.394,2.351l0.024,0.292L386.531,156
		c-1.097,0.1-1.981,0.969-2.104,2.066c-0.113,0.998,0.424,1.954,1.335,2.378l0.267,0.124l-0.124,0.268
		c-0.461,0.999-0.15,2.2,0.74,2.856c0.404,0.298,0.882,0.455,1.381,0.455l0,0c0.484,0,0.948-0.146,1.342-0.423L389.61,163.555z"/>
	<path fill="#A9D5D6" d="M390.408,161.54c-1.424,0-2.582-1.158-2.582-2.582s1.158-2.582,2.582-2.582
		c1.423,0,2.582,1.158,2.582,2.582S391.832,161.54,390.408,161.54z M390.408,156.965c-1.099,0-1.992,0.894-1.992,1.992
		s0.894,1.992,1.992,1.992c1.098,0,1.992-0.894,1.992-1.992S391.506,156.965,390.408,156.965z"/>
</g>
<g>
	<g>
		<path fill="#A9D5D6" d="M366.292,182.004c-0.988,0-1.921-0.318-2.701-0.922c-0.015-0.008-0.03-0.018-0.043-0.028
			c-1.779-1.41-2.208-3.921-0.998-5.842c0.156-0.262,0.112-0.6-0.111-0.817c-0.013-0.013-0.025-0.026-0.036-0.041
			c-1.55-1.582-1.694-4.066-0.34-5.82c0.007-0.012,0.014-0.022,0.023-0.034c0.847-1.068,2.116-1.683,3.48-1.683
			c0.837,0,1.653,0.236,2.36,0.683c0.243,0.145,0.616,0.104,0.83-0.11c0.837-0.839,1.952-1.301,3.139-1.301
			c0.984,0,1.914,0.317,2.694,0.917c0.018,0.009,0.034,0.02,0.05,0.031c1.782,1.413,2.212,3.926,1.001,5.844
			c-0.002,0.004-0.005,0.008-0.007,0.011c-0.146,0.268-0.098,0.598,0.121,0.812c0.015,0.015,0.028,0.031,0.039,0.048
			c1.537,1.572,1.683,4.032,0.348,5.781c-0.009,0.022-0.022,0.044-0.038,0.063c-0.847,1.065-2.115,1.677-3.479,1.677
			c-0.839,0-1.658-0.236-2.367-0.684c-0.244-0.144-0.61-0.104-0.819,0.11C368.598,181.542,367.481,182.004,366.292,182.004z
			 M363.866,180.554c0.014,0.007,0.027,0.016,0.04,0.026c0.686,0.546,1.51,0.834,2.386,0.834c1.032,0,2-0.4,2.727-1.128
			c0.389-0.4,1.062-0.487,1.548-0.2c0.622,0.392,1.331,0.597,2.059,0.597c1.155,0,2.231-0.506,2.965-1.391
			c0.009-0.021,0.021-0.039,0.035-0.058c1.219-1.533,1.093-3.73-0.292-5.109c-0.015-0.015-0.028-0.031-0.04-0.049
			c-0.378-0.412-0.444-1.022-0.155-1.508c0.006-0.01,0.012-0.02,0.019-0.028c1.018-1.64,0.662-3.771-0.83-4.997
			c-0.016-0.008-0.031-0.018-0.045-0.029c-0.688-0.547-1.513-0.836-2.388-0.836c-1.029,0-1.996,0.4-2.722,1.127
			c-0.397,0.4-1.073,0.486-1.556,0.196c-0.619-0.39-1.326-0.595-2.051-0.595c-1.166,0-2.25,0.517-2.985,1.418
			c-0.006,0.01-0.013,0.02-0.02,0.029c-1.217,1.534-1.091,3.733,0.292,5.115c0.012,0.013,0.023,0.026,0.033,0.04
			c0.388,0.409,0.458,1.023,0.166,1.512C362.01,177.175,362.363,179.325,363.866,180.554z"/>
		<path fill="#A9D5D6" d="M369.434,180.014c-1.397,0.001-2.634-0.986-2.942-2.347c-0.04-0.163-0.202-0.234-0.377-0.257
			c-1.5-0.02-2.755-1.136-2.954-2.62c-0.003-0.014-0.006-0.027-0.008-0.041c-0.177-1.534,0.824-2.949,2.329-3.29
			c0.147-0.037,0.257-0.178,0.255-0.334c-0.004-1.536,1.144-2.826,2.669-3.004c0.016-0.001,0.03-0.003,0.045-0.002
			c1.521-0.142,2.908,0.874,3.234,2.332c0,0.002,0.001,0.004,0.001,0.006c0.044,0.155,0.196,0.229,0.36,0.246
			c1.497,0.014,2.754,1.119,2.964,2.595c0.008,0.021,0.014,0.044,0.016,0.067c0.174,1.534-0.83,2.949-2.333,3.291
			c-0.145,0.037-0.25,0.176-0.25,0.336c0,1.519-1.121,2.794-2.617,2.993c-0.015,0.004-0.03,0.007-0.045,0.009
			C369.666,180.008,369.549,180.014,369.434,180.014z M366.206,176.827c0.419,0.022,0.764,0.307,0.86,0.706
			c0.265,1.173,1.371,1.997,2.599,1.881c0.013-0.003,0.026-0.005,0.04-0.007c1.226-0.14,2.15-1.177,2.15-2.412
			c-0.003-0.429,0.286-0.805,0.701-0.911c1.195-0.271,1.995-1.372,1.893-2.579c-0.006-0.019-0.01-0.038-0.013-0.059
			c-0.141-1.226-1.177-2.15-2.412-2.152c-0.015,0-0.029-0.001-0.043-0.003c-0.426-0.021-0.773-0.307-0.87-0.707
			c-0.001-0.007-0.003-0.014-0.004-0.021c-0.273-1.174-1.407-2.002-2.638-1.851c-0.014,0.001-0.03,0.002-0.04,0.002
			c-1.205,0.163-2.104,1.19-2.102,2.407c0.006,0.432-0.286,0.808-0.708,0.912c-1.201,0.272-2.002,1.387-1.884,2.604
			c0.003,0.012,0.005,0.023,0.006,0.035c0.143,1.226,1.178,2.149,2.409,2.149C366.169,176.821,366.188,176.823,366.206,176.827z"/>
	</g>
	<g>
		<path fill="#A9D5D6" d="M369.611,182.955c-2.05,0-3.866-1.453-4.318-3.456c-0.075-0.291-0.342-0.5-0.648-0.5
			c-0.016,0-0.032-0.002-0.048-0.004c-2.225-0.015-4.089-1.673-4.374-3.876c-0.003-0.013-0.005-0.024-0.007-0.037
			c-0.261-2.26,1.21-4.339,3.422-4.838c0.297-0.076,0.509-0.35,0.507-0.663c0.002-2.232,1.658-4.111,3.863-4.399
			c0.016-0.005,0.033-0.009,0.05-0.011c2.255-0.273,4.35,1.257,4.838,3.424c0.002,0.008,0.003,0.015,0.004,0.022
			c0.086,0.285,0.352,0.48,0.658,0.48c0.012,0,0.023,0.001,0.035,0.002c2.212,0.016,4.067,1.654,4.362,3.838
			c0.01,0.023,0.017,0.049,0.02,0.075c0.256,2.257-1.219,4.337-3.43,4.836c-0.29,0.074-0.504,0.353-0.501,0.661
			c0,0.016-0.001,0.03-0.003,0.045c-0.017,2.213-1.664,4.07-3.857,4.357c-0.018,0.006-0.038,0.011-0.057,0.013
			C369.954,182.944,369.781,182.955,369.611,182.955z M364.673,178.41c0.576,0.021,1.054,0.406,1.194,0.951
			c0.421,1.867,2.199,3.181,4.125,2.984c0.017-0.005,0.035-0.009,0.053-0.011c1.945-0.223,3.41-1.865,3.407-3.82
			c0-0.015,0.001-0.029,0.003-0.044c0.015-0.567,0.401-1.055,0.953-1.195c1.897-0.429,3.167-2.188,2.99-4.113
			c-0.008-0.021-0.014-0.044-0.017-0.068c-0.222-1.94-1.862-3.404-3.814-3.404c-0.013,0-0.025-0.001-0.038-0.003
			c-0.579-0.015-1.071-0.404-1.209-0.958c-0.003-0.014-0.006-0.028-0.007-0.042c-0.434-1.839-2.205-3.128-4.124-2.937
			c-0.014,0.004-0.029,0.007-0.044,0.009c-1.941,0.224-3.407,1.866-3.409,3.82c0.004,0.583-0.391,1.094-0.958,1.239
			c-1.91,0.43-3.18,2.207-2.98,4.146c0.002,0.011,0.004,0.021,0.005,0.031c0.227,1.943,1.868,3.409,3.816,3.409
			C364.637,178.405,364.655,178.407,364.673,178.41z"/>
		<path fill="#A9D5D6" d="M367.258,179.39c-0.687,0-1.335-0.227-1.876-0.654c-0.008-0.007-0.015-0.013-0.022-0.02
			c-1.185-0.965-1.465-2.653-0.65-3.945c0.078-0.129,0.055-0.307-0.058-0.419c-1.085-1.088-1.184-2.811-0.231-4.009
			c0.003-0.004,0.007-0.008,0.01-0.012c0.572-0.715,1.427-1.125,2.349-1.125c0.56,0,1.104,0.154,1.578,0.446
			c0.007,0.004,0.014,0.008,0.021,0.012c0.134,0.083,0.312,0.059,0.42-0.053c0.011-0.013,0.023-0.022,0.037-0.032
			c1.039-1.01,2.764-1.118,3.924-0.241c0.017,0.009,0.034,0.02,0.05,0.032c1.208,0.962,1.498,2.671,0.675,3.976
			c-0.076,0.129-0.052,0.302,0.064,0.414c0.01,0.009,0.019,0.02,0.027,0.03c1.047,1.074,1.144,2.757,0.229,3.947
			c-0.006,0.01-0.013,0.019-0.02,0.028c-0.577,0.727-1.441,1.144-2.369,1.144c-0.568,0-1.122-0.16-1.601-0.463
			c-0.122-0.073-0.306-0.056-0.414,0.058c-0.016,0.017-0.034,0.031-0.052,0.043C368.786,179.091,368.046,179.39,367.258,179.39z
			 M365.775,178.294c0.948,0.729,2.362,0.635,3.2-0.207c0.017-0.017,0.034-0.03,0.054-0.043c0.296-0.263,0.75-0.308,1.095-0.1
			c1.019,0.643,2.421,0.402,3.175-0.516c0.005-0.007,0.01-0.015,0.016-0.022c0.767-0.968,0.688-2.355-0.184-3.228
			c-0.009-0.009-0.018-0.019-0.025-0.028c-0.285-0.304-0.337-0.755-0.125-1.112c0.655-1.04,0.44-2.389-0.493-3.169
			c-0.014-0.008-0.028-0.017-0.041-0.027c-0.948-0.748-2.381-0.662-3.228,0.187c-0.011,0.01-0.022,0.02-0.034,0.028
			c-0.287,0.265-0.737,0.322-1.079,0.132c-0.012-0.006-0.024-0.012-0.036-0.02c-0.386-0.244-0.833-0.373-1.292-0.373
			c-0.749,0-1.442,0.335-1.901,0.92c-0.003,0.004-0.007,0.008-0.01,0.012c-0.751,0.963-0.667,2.337,0.2,3.207
			c0.308,0.305,0.367,0.777,0.143,1.146c-0.664,1.052-0.428,2.425,0.546,3.197C365.764,178.284,365.77,178.29,365.775,178.294z"/>
	</g>
</g>
<g>
	<path fill="#A9D5D6" d="M256.45,169.801c-1.232,0-2.398-0.557-3.172-1.503c-0.638,0.384-1.363,0.585-2.116,0.585l0,0
		c-0.877,0-1.716-0.275-2.425-0.798c-1.48-1.091-2.046-3.048-1.405-4.745c-1.44-0.796-2.271-2.384-2.087-4.038
		c0.208-1.826,1.621-3.294,3.41-3.59c-0.029-1.646,0.931-3.158,2.455-3.824c1.663-0.727,3.685-0.222,4.812,1.155
		c1.382-0.83,3.223-0.754,4.542,0.214c1.479,1.089,2.043,3.047,1.403,4.747c1.441,0.795,2.272,2.384,2.086,4.041
		c-0.206,1.827-1.619,3.294-3.409,3.586c0.028,1.646-0.931,3.158-2.454,3.825C257.568,169.685,257.016,169.801,256.45,169.801z
		 M253.418,167.494l0.169,0.238c0.935,1.321,2.766,1.84,4.266,1.184c1.378-0.603,2.217-2.016,2.088-3.517l-0.025-0.292l0.292-0.027
		c1.645-0.151,2.973-1.455,3.158-3.101c0.168-1.5-0.636-2.934-2.001-3.568l-0.266-0.124l0.122-0.267
		c0.689-1.504,0.224-3.308-1.108-4.288c-1.195-0.877-2.886-0.892-4.093-0.051l-0.24,0.167l-0.169-0.238
		c-0.934-1.318-2.768-1.837-4.266-1.181c-1.379,0.602-2.218,2.015-2.088,3.515l0.025,0.291l-0.291,0.028
		c-1.645,0.154-2.974,1.461-3.161,3.104c-0.167,1.497,0.639,2.931,2.003,3.566l0.266,0.124l-0.123,0.267
		c-0.691,1.501-0.224,3.304,1.109,4.286c0.607,0.447,1.325,0.684,2.076,0.684c0,0,0,0,0,0c0.726,0,1.422-0.22,2.015-0.634
		L253.418,167.494z"/>
	<path fill="#A9D5D6" d="M254.6,164.267c-1.983,0-3.597-1.613-3.597-3.597s1.614-3.598,3.597-3.598s3.597,1.614,3.597,3.598
		S256.583,164.267,254.6,164.267z M254.6,157.663c-1.658,0-3.007,1.35-3.007,3.008s1.349,3.007,3.007,3.007s3.007-1.349,3.007-3.007
		S256.258,157.663,254.6,157.663z"/>
</g>
<g>
	<path fill="#A9D5D6" d="M334.678,167.209L334.678,167.209c-0.497,0-0.985-0.092-1.452-0.274c-1.675-0.653-2.707-2.356-2.537-4.12
		c-1.561-0.387-2.747-1.675-2.992-3.284c-0.273-1.772,0.685-3.517,2.299-4.254c-0.445-1.545,0.076-3.217,1.344-4.234
		c1.362-1.093,3.428-1.139,4.836-0.136c1.099-1.137,2.844-1.535,4.341-0.951c1.672,0.653,2.703,2.354,2.533,4.119
		c1.561,0.388,2.747,1.675,2.993,3.281c0.274,1.774-0.683,3.52-2.298,4.258c0.448,1.543-0.073,3.214-1.345,4.232
		c-1.361,1.091-3.426,1.141-4.834,0.138C336.81,166.766,335.773,167.209,334.678,167.209z M333.845,150.752
		c-0.784,0-1.523,0.26-2.136,0.751c-1.146,0.917-1.576,2.461-1.072,3.84l0.101,0.275l-0.274,0.103
		c-1.511,0.563-2.43,2.128-2.184,3.721c0.221,1.453,1.342,2.599,2.788,2.851l0.289,0.05l-0.049,0.289
		c-0.269,1.588,0.628,3.167,2.133,3.755c1.351,0.527,2.937,0.111,3.861-0.991l0.188-0.225l0.226,0.187
		c1.208,1,3.08,1.019,4.314,0.028c1.148-0.918,1.579-2.461,1.072-3.838l-0.101-0.275l0.275-0.103c1.511-0.563,2.43-2.13,2.184-3.724
		c-0.222-1.45-1.342-2.596-2.788-2.85l-0.289-0.051l0.049-0.288c0.268-1.588-0.627-3.166-2.129-3.753
		c-1.354-0.528-2.938-0.112-3.864,0.991l-0.188,0.224l-0.226-0.186C335.416,151.03,334.641,150.752,333.845,150.752z"/>
	<path fill="#A9D5D6" d="M337.187,164.642c-1.049,0-2.008-0.606-2.466-1.534c-0.221,0.057-0.449,0.085-0.679,0.085l0,0
		c-0.839,0-1.621-0.376-2.145-1.03c-0.751-0.939-0.797-2.264-0.142-3.247c-0.746-0.766-0.985-1.903-0.591-2.917
		c0.434-1.119,1.542-1.823,2.741-1.747c0.289-1.03,1.154-1.807,2.23-1.971c1.206-0.185,2.364,0.451,2.885,1.501
		c1.023-0.262,2.153,0.111,2.82,0.947c0.754,0.939,0.8,2.263,0.142,3.245c0.749,0.767,0.988,1.904,0.591,2.917
		c-0.426,1.103-1.545,1.83-2.739,1.747c-0.291,1.03-1.157,1.808-2.23,1.972C337.462,164.631,337.324,164.642,337.187,164.642z
		 M335.061,162.371l0.102,0.275c0.35,0.942,1.331,1.548,2.351,1.381c0.916-0.14,1.64-0.849,1.801-1.763l0.051-0.289l0.288,0.049
		c1.013,0.174,2.008-0.413,2.369-1.347c0.339-0.864,0.087-1.845-0.625-2.44l-0.226-0.188l0.188-0.227
		c0.65-0.782,0.658-1.928,0.019-2.725c-0.571-0.715-1.572-0.99-2.423-0.68l-0.275,0.102l-0.103-0.274
		c-0.353-0.943-1.333-1.53-2.354-1.381c-0.918,0.14-1.641,0.848-1.8,1.762l-0.05,0.288l-0.289-0.048
		c-1.024-0.179-2.004,0.4-2.371,1.347c-0.337,0.865-0.085,1.846,0.625,2.441l0.224,0.188l-0.186,0.226
		c-0.647,0.784-0.655,1.931-0.018,2.727c0.411,0.515,1.025,0.81,1.684,0.81l0,0c0.255,0,0.505-0.044,0.743-0.132L335.061,162.371z"
		/>
	<path fill="#A9D5D6" d="M336.872,160.872c-0.742,0-1.433-0.331-1.896-0.909c-0.835-1.045-0.667-2.576,0.375-3.412
		c0.431-0.344,0.97-0.533,1.519-0.533c0.742,0,1.433,0.331,1.896,0.908c0.835,1.047,0.667,2.577-0.375,3.413
		C337.96,160.682,337.421,160.872,336.872,160.872z M336.87,156.607c-0.422,0-0.82,0.14-1.151,0.403
		c-0.788,0.633-0.915,1.792-0.282,2.584c0.613,0.767,1.816,0.9,2.585,0.283c0.788-0.632,0.915-1.791,0.283-2.584
		C337.955,156.858,337.432,156.607,336.87,156.607z"/>
</g>
<g>
	<path fill="#A9D5D6" d="M287.522,181.127c-0.75,0-1.487-0.139-2.191-0.413c-2.57-0.997-4.137-3.638-3.812-6.353
		c-2.419-0.54-4.271-2.509-4.65-4.98c-0.42-2.726,1.083-5.403,3.596-6.479c-0.741-2.368,0.039-4.957,1.991-6.52
		c1.069-0.855,2.41-1.327,3.777-1.327c1.311,0,2.588,0.427,3.629,1.206c1.144-1.245,2.75-1.953,4.451-1.953
		c0.749,0,1.485,0.139,2.188,0.413c2.569,1.002,4.135,3.643,3.809,6.354c2.422,0.54,4.275,2.509,4.651,4.982
		c0.418,2.725-1.083,5.402-3.594,6.477c0.739,2.367-0.041,4.956-1.992,6.52c-1.085,0.868-2.392,1.328-3.778,1.328
		c-1.31,0-2.586-0.426-3.626-1.205C290.828,180.42,289.222,181.127,287.522,181.127z M286.233,155.646
		c-1.251,0-2.43,0.414-3.409,1.198c-1.829,1.464-2.517,3.926-1.713,6.127l0.101,0.275l-0.274,0.103
		c-2.411,0.897-3.876,3.396-3.484,5.942c0.355,2.317,2.143,4.144,4.449,4.546l0.289,0.05l-0.049,0.289
		c-0.428,2.538,1.003,5.057,3.403,5.989c0.636,0.247,1.301,0.373,1.978,0.373c1.621,0,3.146-0.713,4.187-1.954l0.188-0.225
		l0.226,0.187c0.973,0.804,2.207,1.247,3.476,1.247c1.251,0,2.43-0.415,3.409-1.199c1.828-1.465,2.518-3.927,1.715-6.128
		l-0.101-0.274l0.274-0.103c2.408-0.897,3.873-3.396,3.482-5.941c-0.353-2.317-2.141-4.145-4.451-4.547l-0.289-0.05l0.049-0.289
		c0.429-2.536-1.001-5.055-3.4-5.991c-0.635-0.247-1.299-0.372-1.975-0.372c-1.622,0-3.148,0.713-4.188,1.957l-0.188,0.225
		l-0.226-0.187C288.739,156.089,287.503,155.646,286.233,155.646z"/>
	<path fill="#A9D5D6" d="M291.407,177.156c-1.609,0-3.075-0.956-3.732-2.407c-0.369,0.107-0.75,0.161-1.138,0.161
		c-1.25,0-2.415-0.56-3.195-1.534c-1.148-1.435-1.189-3.47-0.134-4.945c-1.186-1.144-1.58-2.893-0.976-4.441
		c0.668-1.711,2.38-2.777,4.215-2.59c0.394-1.599,1.711-2.814,3.357-3.066c1.843-0.284,3.61,0.722,4.352,2.355
		c0.368-0.105,0.749-0.159,1.135-0.159c1.25,0,2.416,0.559,3.197,1.533c1.153,1.436,1.195,3.472,0.136,4.947
		c1.187,1.14,1.582,2.889,0.978,4.439c-0.669,1.712-2.394,2.77-4.217,2.593c-0.396,1.599-1.713,2.814-3.357,3.066
		C291.819,177.14,291.611,177.156,291.407,177.156z M288.017,174.005l0.102,0.275c0.568,1.531,2.156,2.493,3.819,2.245
		c1.487-0.229,2.663-1.379,2.924-2.863l0.051-0.289l0.289,0.049c0.191,0.032,0.386,0.049,0.58,0.049
		c1.455,0,2.739-0.878,3.271-2.236c0.546-1.404,0.137-2.997-1.019-3.963l-0.226-0.188l0.188-0.227
		c1.057-1.272,1.07-3.134,0.032-4.426c-0.668-0.834-1.666-1.312-2.737-1.312c-0.412,0-0.817,0.071-1.203,0.212l-0.275,0.1
		l-0.102-0.274c-0.569-1.53-2.156-2.493-3.818-2.241c-1.489,0.229-2.665,1.379-2.924,2.863l-0.051,0.289l-0.29-0.049
		c-0.192-0.033-0.388-0.05-0.583-0.05c-1.454,0-2.735,0.877-3.265,2.235c-0.547,1.401-0.139,2.994,1.016,3.965l0.224,0.188
		l-0.187,0.225c-1.052,1.273-1.066,3.134-0.033,4.425c0.668,0.835,1.666,1.313,2.735,1.313c0.414,0,0.819-0.071,1.205-0.213
		L288.017,174.005z"/>
	<path fill="#A9D5D6" d="M290.918,171.318c-1.099,0-2.124-0.49-2.812-1.346c-1.237-1.55-0.986-3.819,0.559-5.06
		c0.636-0.511,1.434-0.792,2.248-0.792c1.099,0,2.123,0.492,2.809,1.349c1.241,1.547,0.992,3.816-0.554,5.058
		C292.531,171.037,291.732,171.318,290.918,171.318z M290.913,164.71c-0.69,0-1.339,0.229-1.878,0.661
		c-1.292,1.038-1.502,2.937-0.468,4.232c0.575,0.714,1.433,1.124,2.352,1.124c0.69,0,1.341-0.229,1.881-0.661
		c1.292-1.038,1.5-2.935,0.462-4.229C292.688,165.122,291.832,164.71,290.913,164.71z"/>
</g>
<g>
	<path fill="#A9D5D6" d="M749.163,186.501l-0.418-0.416c5.205-5.208,5.202-13.68-0.005-18.886c-2.522-2.523-5.876-3.913-9.443-3.915
		c-0.002,0-0.004,0-0.006,0c-3.566,0-6.917,1.388-9.436,3.907l-0.418-0.416c2.631-2.632,6.13-4.081,9.854-4.081
		c0.002,0,0.004,0,0.006,0c3.725,0.002,7.227,1.453,9.86,4.088C754.595,172.218,754.598,181.064,749.163,186.501z"/>
	<path fill="#A9D5D6" d="M760.294,169.585c-3.572,0-7.144-1.359-9.863-4.08c-5.438-5.438-5.438-14.286-0.002-19.725l0.418,0.416
		c-5.208,5.21-5.207,13.685,0,18.893c5.211,5.209,13.684,5.208,18.893,0.001l0.416,0.418
		C767.438,168.226,763.865,169.585,760.294,169.585z"/>
	<path fill="#A9D5D6" d="M750.433,186.5c-5.437-5.438-5.437-14.286,0.001-19.723c2.633-2.633,6.134-4.082,9.857-4.082
		c0.002,0,0.002,0,0.004,0c3.724,0,7.225,1.451,9.858,4.085l-0.418,0.416c-2.521-2.521-5.874-3.911-9.441-3.912h-0.002
		c-3.567,0-6.92,1.389-9.442,3.911c-5.207,5.206-5.207,13.679,0.001,18.889L750.433,186.5z"/>
	<path fill="#A9D5D6" d="M739.301,169.583c-3.573,0-7.145-1.359-9.864-4.078l0.416-0.418c5.21,5.209,13.684,5.211,18.892,0.002
		c5.204-5.205,5.201-13.68-0.006-18.89l0.418-0.416c5.437,5.439,5.438,14.287,0.005,19.723
		C746.442,168.223,742.871,169.582,739.301,169.583z"/>
</g>
<g>
	<path fill="#A9D5D6" d="M788.815,179.761c-0.855,0-1.665-0.374-2.218-1.013c-0.438,0.248-0.932,0.379-1.442,0.379l0,0
		c-0.626,0-1.226-0.197-1.733-0.568c-1.039-0.765-1.447-2.124-1.03-3.32c-0.988-0.58-1.554-1.692-1.423-2.85
		c0.142-1.278,1.112-2.311,2.356-2.549c0.01-1.148,0.69-2.194,1.758-2.659c1.156-0.506,2.572-0.173,3.388,0.768
		c0.977-0.554,2.255-0.486,3.178,0.191c1.037,0.766,1.444,2.124,1.028,3.317c0.987,0.581,1.553,1.692,1.425,2.849
		c-0.144,1.279-1.117,2.313-2.361,2.554c-0.008,1.146-0.687,2.19-1.752,2.655C789.615,179.678,789.221,179.761,788.815,179.761z
		 M786.736,177.949l0.169,0.238c0.624,0.878,1.845,1.225,2.847,0.787c0.92-0.4,1.479-1.342,1.39-2.342l-0.025-0.292l0.292-0.028
		c1.098-0.104,1.983-0.975,2.107-2.071c0.11-0.998-0.427-1.955-1.337-2.379l-0.266-0.125l0.123-0.267
		c0.462-0.998,0.151-2.199-0.737-2.855c-0.798-0.587-1.928-0.595-2.726-0.033l-0.24,0.169l-0.17-0.239
		c-0.624-0.879-1.849-1.228-2.845-0.789c-0.921,0.4-1.481,1.344-1.395,2.347l0.025,0.292l-0.292,0.027
		c-1.098,0.102-1.981,0.971-2.103,2.066c-0.112,1,0.424,1.956,1.334,2.38l0.267,0.124l-0.123,0.267
		c-0.462,1.002-0.151,2.203,0.738,2.858c0.405,0.297,0.885,0.454,1.385,0.454l0,0c0.483,0,0.946-0.146,1.341-0.421L786.736,177.949z
		"/>
	<path fill="#A9D5D6" d="M787.535,175.93c-1.424,0-2.582-1.158-2.582-2.581c0-1.424,1.158-2.582,2.582-2.582
		s2.582,1.158,2.582,2.582C790.117,174.772,788.959,175.93,787.535,175.93z M787.535,171.357c-1.099,0-1.992,0.894-1.992,1.992
		c0,1.098,0.894,1.991,1.992,1.991s1.992-0.894,1.992-1.991C789.527,172.25,788.634,171.357,787.535,171.357z"/>
</g>
<g>
	<path fill="#A9D5D6" d="M816.768,169.801c-1.232,0-2.397-0.557-3.172-1.503c-0.638,0.384-1.363,0.585-2.116,0.585l0,0
		c-0.878,0-1.717-0.275-2.426-0.798c-1.479-1.092-2.044-3.049-1.403-4.745c-1.439-0.795-2.271-2.383-2.088-4.038
		c0.207-1.826,1.621-3.295,3.411-3.59c-0.029-1.646,0.931-3.158,2.454-3.824c1.663-0.728,3.686-0.222,4.812,1.155
		c1.381-0.83,3.223-0.754,4.542,0.214c1.479,1.089,2.044,3.047,1.402,4.747c1.442,0.794,2.273,2.383,2.087,4.041
		c-0.206,1.827-1.619,3.294-3.409,3.586c0.028,1.646-0.932,3.158-2.454,3.825C817.886,169.685,817.333,169.801,816.768,169.801z
		 M813.736,167.494l0.169,0.239c0.936,1.319,2.766,1.839,4.267,1.183c1.378-0.603,2.217-2.016,2.088-3.517l-0.024-0.292l0.291-0.027
		c1.646-0.151,2.974-1.455,3.159-3.101c0.169-1.5-0.636-2.935-2.002-3.568l-0.267-0.124l0.123-0.267
		c0.69-1.504,0.225-3.308-1.107-4.288c-1.195-0.877-2.886-0.892-4.093-0.051l-0.24,0.167l-0.169-0.239
		c-0.935-1.317-2.77-1.838-4.267-1.18c-1.379,0.602-2.218,2.015-2.088,3.515l0.025,0.291l-0.292,0.028
		c-1.645,0.154-2.975,1.461-3.161,3.104c-0.166,1.497,0.64,2.931,2.004,3.566l0.267,0.124l-0.123,0.267
		c-0.69,1.501-0.225,3.303,1.107,4.286c0.607,0.447,1.325,0.684,2.076,0.684c0,0,0,0,0.001,0c0.726,0,1.423-0.22,2.016-0.634
		L813.736,167.494z"/>
	<path fill="#A9D5D6" d="M814.918,164.267c-1.983,0-3.597-1.613-3.597-3.597s1.613-3.598,3.597-3.598s3.597,1.614,3.597,3.598
		S816.901,164.267,814.918,164.267z M814.918,157.663c-1.658,0-3.007,1.35-3.007,3.008s1.349,3.007,3.007,3.007
		s3.007-1.349,3.007-3.007S816.576,157.663,814.918,157.663z"/>
</g>
<g>
	<path fill="#A9D5D6" d="M847.84,181.127c-0.749,0-1.487-0.139-2.191-0.413c-2.569-0.998-4.137-3.638-3.812-6.353
		c-2.418-0.54-4.27-2.509-4.649-4.98c-0.42-2.726,1.084-5.403,3.597-6.479c-0.741-2.368,0.039-4.957,1.99-6.52
		c1.069-0.855,2.41-1.327,3.777-1.327c1.312,0,2.589,0.427,3.63,1.206c1.144-1.245,2.749-1.953,4.45-1.953
		c0.749,0,1.485,0.139,2.189,0.413c2.569,1.002,4.135,3.643,3.809,6.354c2.423,0.54,4.275,2.509,4.651,4.982
		c0.418,2.725-1.084,5.402-3.595,6.477c0.739,2.367-0.041,4.956-1.992,6.52c-1.069,0.856-2.411,1.328-3.777,1.328
		c-1.311,0-2.587-0.426-3.627-1.205C851.146,180.42,849.54,181.127,847.84,181.127z M846.551,155.646
		c-1.251,0-2.43,0.414-3.408,1.198c-1.829,1.463-2.518,3.926-1.713,6.127l0.101,0.275l-0.275,0.103
		c-2.411,0.898-3.878,3.397-3.486,5.942c0.356,2.316,2.145,4.144,4.45,4.546l0.289,0.05l-0.049,0.289
		c-0.428,2.538,1.004,5.057,3.402,5.989c0.637,0.247,1.303,0.373,1.979,0.373c1.62,0,3.146-0.713,4.187-1.954l0.188-0.225
		l0.226,0.187c0.973,0.804,2.207,1.247,3.477,1.247c1.251,0,2.43-0.415,3.408-1.199c1.828-1.464,2.519-3.927,1.716-6.128l-0.1-0.274
		l0.274-0.103c2.408-0.897,3.873-3.396,3.483-5.941c-0.353-2.317-2.142-4.145-4.452-4.547l-0.289-0.05l0.049-0.289
		c0.43-2.535-1-5.055-3.4-5.991c-0.635-0.247-1.299-0.372-1.975-0.372c-1.621,0-3.147,0.713-4.187,1.957l-0.188,0.225l-0.226-0.187
		C849.057,156.089,847.821,155.646,846.551,155.646z"/>
	<path fill="#A9D5D6" d="M851.725,177.156c-1.609,0-3.074-0.956-3.731-2.407c-0.37,0.107-0.752,0.161-1.14,0.161
		c-1.25,0-2.415-0.56-3.195-1.534c-1.147-1.435-1.188-3.471-0.134-4.945c-1.186-1.144-1.58-2.893-0.975-4.441
		c0.667-1.711,2.386-2.777,4.215-2.59c0.396-1.599,1.713-2.814,3.357-3.066c1.85-0.284,3.611,0.722,4.353,2.356
		c0.368-0.106,0.749-0.16,1.136-0.16c1.251,0,2.416,0.559,3.197,1.533c1.151,1.436,1.194,3.473,0.135,4.947
		c1.187,1.14,1.582,2.888,0.979,4.439c-0.67,1.711-2.367,2.77-4.218,2.593c-0.396,1.599-1.713,2.814-3.357,3.066
		C852.137,177.14,851.929,177.156,851.725,177.156z M848.335,174.005l0.103,0.275c0.567,1.531,2.151,2.492,3.819,2.245
		c1.488-0.229,2.663-1.379,2.925-2.863l0.051-0.289l0.288,0.049c1.634,0.274,3.248-0.648,3.852-2.188
		c0.546-1.404,0.136-2.997-1.02-3.963l-0.225-0.188l0.188-0.227c1.056-1.271,1.069-3.133,0.032-4.426
		c-0.927-1.154-2.55-1.606-3.941-1.101l-0.275,0.1l-0.102-0.274c-0.568-1.53-2.158-2.493-3.817-2.241
		c-1.489,0.229-2.664,1.379-2.926,2.863l-0.051,0.289l-0.289-0.049c-0.191-0.033-0.388-0.05-0.583-0.05
		c-1.453,0-2.734,0.877-3.265,2.235c-0.547,1.401-0.139,2.994,1.016,3.965l0.225,0.188l-0.187,0.225
		c-1.053,1.272-1.066,3.134-0.033,4.425c0.668,0.835,1.664,1.313,2.734,1.313c0.414,0,0.819-0.071,1.206-0.213L848.335,174.005z"/>
	<path fill="#A9D5D6" d="M851.236,171.318c-1.099,0-2.123-0.49-2.812-1.346c-1.237-1.55-0.986-3.819,0.559-5.06
		c0.636-0.511,1.434-0.792,2.247-0.792c1.1,0,2.123,0.492,2.809,1.349c1.241,1.547,0.993,3.815-0.554,5.058
		C852.849,171.037,852.05,171.318,851.236,171.318z M851.23,164.71c-0.689,0-1.339,0.229-1.878,0.661
		c-1.292,1.038-1.502,2.937-0.468,4.232c0.575,0.714,1.433,1.124,2.352,1.124c0.69,0,1.34-0.229,1.88-0.661
		c1.293-1.038,1.5-2.936,0.463-4.229C853.005,165.122,852.149,164.71,851.23,164.71z"/>
</g>
<g>
	<g>
		<path fill="#A9D5D6" d="M558.48,168.448c-1.673,0.001-3.188-0.924-3.953-2.412c-0.142-0.261-0.467-0.4-0.763-0.323
			c-0.015,0.004-0.029,0.007-0.044,0.009c-0.348,0.086-0.706,0.13-1.064,0.13c-1.804,0-3.451-1.117-4.12-2.787
			c-0.009-0.014-0.016-0.029-0.022-0.045c-0.816-2.119,0.094-4.499,2.116-5.537c0.267-0.145,0.4-0.46,0.319-0.762
			c-0.004-0.017-0.007-0.033-0.009-0.051c-0.532-2.15,0.607-4.363,2.671-5.186c0.012-0.006,0.023-0.012,0.036-0.017
			c0.512-0.196,1.048-0.296,1.591-0.296c1.674,0,3.185,0.923,3.943,2.408c0.143,0.262,0.468,0.407,0.771,0.328
			c0.362-0.094,0.734-0.142,1.105-0.142c1.799,0,3.442,1.117,4.113,2.785c0.01,0.016,0.018,0.031,0.024,0.049
			c0.816,2.12-0.092,4.501-2.112,5.538c-0.007,0.003-0.015,0.007-0.021,0.01c-0.255,0.156-0.379,0.463-0.301,0.758
			c0.004,0.016,0.007,0.031,0.009,0.047c0.526,2.142-0.6,4.341-2.641,5.166c-0.02,0.015-0.042,0.027-0.065,0.036
			C559.554,168.349,559.021,168.448,558.48,168.448z M553.938,165.1c0.463,0,0.889,0.253,1.11,0.66
			c0.667,1.297,1.98,2.099,3.432,2.099c0.441,0,0.878-0.076,1.297-0.227c0.018-0.013,0.038-0.023,0.06-0.032
			c1.827-0.698,2.837-2.653,2.35-4.548c-0.005-0.016-0.007-0.032-0.009-0.048c-0.122-0.553,0.132-1.119,0.631-1.392
			c0.014-0.007,0.027-0.014,0.041-0.019c1.707-0.898,2.48-2.911,1.818-4.723c-0.009-0.013-0.016-0.027-0.021-0.043
			c-0.576-1.502-1.984-2.473-3.589-2.473c-0.322,0-0.645,0.041-0.957,0.122c-0.559,0.145-1.165-0.12-1.44-0.623
			c-0.661-1.295-1.971-2.094-3.422-2.094c-0.454,0-0.902,0.08-1.332,0.239c-0.01,0.005-0.021,0.01-0.031,0.014
			c-1.83,0.703-2.842,2.66-2.353,4.552c0.005,0.017,0.008,0.034,0.009,0.051c0.125,0.551-0.128,1.115-0.626,1.387
			c-1.741,0.894-2.532,2.923-1.863,4.745c0.008,0.013,0.015,0.027,0.021,0.042c0.565,1.479,2.01,2.471,3.594,2.471
			c0.321,0,0.643-0.04,0.955-0.12c0.013-0.004,0.026-0.006,0.04-0.008C553.745,165.111,553.842,165.1,553.938,165.1z"/>
		<path fill="#A9D5D6" d="M555.637,165.534c-0.404,0-0.797-0.08-1.17-0.238c-0.016-0.004-0.031-0.009-0.046-0.016
			c-1.411-0.63-2.119-2.211-1.646-3.679c0.043-0.146-0.021-0.308-0.159-0.386c-0.018-0.01-0.034-0.021-0.049-0.035
			c-1.269-0.779-1.777-2.368-1.199-3.741c0.004-0.017,0.01-0.033,0.017-0.049c0.486-1.088,1.57-1.791,2.762-1.791
			c0.312,0,0.621,0.049,0.918,0.145c0.132,0.036,0.312-0.023,0.389-0.158c0.75-1.27,2.421-1.825,3.782-1.244
			c0.046,0.01,0.089,0.03,0.124,0.059c1.349,0.646,2.017,2.178,1.564,3.612c-0.001,0.006-0.003,0.011-0.004,0.017
			c-0.047,0.152,0.018,0.312,0.156,0.39c0.015,0.009,0.028,0.018,0.041,0.028c1.272,0.777,1.785,2.368,1.21,3.742
			c-0.004,0.019-0.01,0.037-0.018,0.055c-0.485,1.087-1.568,1.788-2.76,1.788c-0.312,0.001-0.623-0.048-0.922-0.144
			c-0.112-0.033-0.309,0.026-0.388,0.162C557.697,164.966,556.7,165.534,555.637,165.534z M554.613,164.719
			c0.013,0.004,0.026,0.008,0.039,0.014c1.103,0.493,2.47,0.047,3.078-0.981c0.212-0.363,0.667-0.544,1.069-0.428
			c1.176,0.38,2.435-0.196,2.944-1.265c0.004-0.016,0.009-0.03,0.016-0.046c0.503-1.128,0.081-2.453-0.98-3.081
			c-0.012-0.007-0.022-0.015-0.033-0.023c-0.341-0.215-0.505-0.634-0.4-1.023c0.003-0.01,0.005-0.021,0.009-0.03
			c0.384-1.184-0.185-2.454-1.322-2.956c-0.012-0.005-0.023-0.011-0.034-0.018c-1.096-0.465-2.437-0.016-3.036,1.002
			c-0.21,0.362-0.671,0.543-1.074,0.423c-1.159-0.372-2.435,0.203-2.942,1.275c-0.004,0.014-0.009,0.027-0.015,0.041
			c-0.503,1.129-0.08,2.453,0.983,3.079c0.018,0.01,0.034,0.022,0.049,0.036c0.338,0.225,0.491,0.642,0.375,1.037
			C552.961,162.946,553.509,164.199,554.613,164.719z"/>
	</g>
	<g>
		<path fill="#A9D5D6" d="M555.018,168.353c-0.602,0-1.188-0.121-1.744-0.359c-0.017-0.004-0.032-0.01-0.049-0.017
			c-2.073-0.923-3.113-3.249-2.419-5.41c0.088-0.295-0.04-0.612-0.312-0.768c-0.014-0.007-0.026-0.016-0.038-0.025
			c-1.896-1.143-2.655-3.51-1.783-5.548c0.004-0.015,0.009-0.029,0.016-0.045c0.711-1.601,2.303-2.635,4.056-2.635
			c0.459,0,0.914,0.071,1.353,0.213c0.262,0.072,0.62-0.047,0.776-0.312c0.794-1.344,2.257-2.179,3.819-2.179
			c0.602,0,1.188,0.121,1.745,0.359c0.016,0.004,0.031,0.009,0.046,0.016c2.079,0.922,3.12,3.248,2.421,5.409
			c-0.001,0.004-0.002,0.008-0.004,0.012c-0.075,0.295,0.054,0.604,0.321,0.76c0.011,0.006,0.021,0.014,0.031,0.021
			c1.891,1.138,2.651,3.489,1.795,5.519c-0.003,0.026-0.011,0.053-0.021,0.078c-0.716,1.599-2.31,2.631-4.062,2.631
			c-0.46,0-0.916-0.071-1.354-0.212c-0.258-0.078-0.615,0.049-0.765,0.309c-0.008,0.016-0.018,0.029-0.028,0.042
			C558.019,167.533,556.566,168.353,555.018,168.353z M553.409,167.413c0.015,0.004,0.029,0.01,0.044,0.016
			c0.498,0.223,1.024,0.335,1.564,0.335c1.356,0,2.626-0.725,3.313-1.89c0.008-0.014,0.017-0.026,0.026-0.038
			c0.29-0.464,0.887-0.694,1.425-0.54c1.84,0.593,3.861-0.316,4.668-2.016c0.004-0.024,0.011-0.048,0.021-0.071
			c0.799-1.786,0.131-3.883-1.552-4.876c-0.012-0.007-0.021-0.014-0.032-0.021c-0.483-0.303-0.708-0.887-0.547-1.437
			c0.004-0.011,0.007-0.021,0.012-0.031c0.581-1.847-0.297-3.825-2.054-4.637c-0.014-0.004-0.028-0.009-0.042-0.015
			c-0.498-0.222-1.024-0.334-1.564-0.334c-1.354,0-2.624,0.724-3.312,1.889c-0.289,0.491-0.911,0.736-1.459,0.576
			c-0.386-0.125-0.78-0.187-1.178-0.187c-1.5,0-2.864,0.873-3.492,2.229c-0.003,0.014-0.008,0.026-0.014,0.04
			c-0.798,1.79-0.13,3.889,1.553,4.882c0.012,0.007,0.023,0.015,0.034,0.022c0.485,0.3,0.709,0.881,0.544,1.432
			C550.771,164.602,551.648,166.597,553.409,167.413z"/>
		<path fill="#A9D5D6" d="M557.92,165.599c-1.14,0.001-2.168-0.627-2.685-1.637c-0.071-0.132-0.233-0.2-0.386-0.161
			c-0.023,0.007-0.048,0.01-0.071,0.011c-1.428,0.337-2.964-0.474-3.499-1.839c-0.002-0.003-0.003-0.006-0.004-0.009
			c-0.554-1.442,0.063-3.061,1.437-3.764c0.135-0.07,0.204-0.235,0.163-0.389c-0.382-1.486,0.409-3.021,1.84-3.571
			c0.013-0.005,0.026-0.009,0.041-0.013c0.332-0.122,0.68-0.185,1.033-0.185c1.12,0,2.174,0.643,2.685,1.638
			c0.002,0.005,0.004,0.009,0.006,0.014c0.079,0.125,0.23,0.188,0.375,0.146c0.019-0.006,0.038-0.009,0.057-0.011
			c1.424-0.341,2.942,0.451,3.492,1.791c0.012,0.017,0.021,0.036,0.029,0.056c0.551,1.442-0.069,3.062-1.44,3.766
			c-0.134,0.071-0.201,0.231-0.159,0.388c0.004,0.013,0.007,0.025,0.008,0.038c0.356,1.456-0.411,2.951-1.8,3.513
			c-0.012,0.007-0.025,0.014-0.039,0.019C558.653,165.532,558.29,165.599,557.92,165.599z M554.941,163.2
			c0.339,0,0.651,0.187,0.815,0.487c0.547,1.069,1.851,1.589,2.988,1.178c0.011-0.005,0.021-0.01,0.033-0.015
			c1.152-0.441,1.79-1.676,1.483-2.87c-0.004-0.012-0.006-0.023-0.007-0.035c-0.094-0.411,0.094-0.828,0.464-1.025
			c1.089-0.56,1.589-1.827,1.185-2.974c-0.01-0.015-0.018-0.031-0.024-0.049c-0.43-1.121-1.702-1.779-2.87-1.484
			c-0.016,0.005-0.032,0.007-0.048,0.009c-0.401,0.09-0.82-0.108-1.014-0.471c-0.006-0.01-0.011-0.021-0.015-0.031
			c-0.555-1.043-1.894-1.557-3.011-1.123c-0.012,0.004-0.024,0.008-0.037,0.011c-1.125,0.456-1.742,1.676-1.439,2.855
			c0.111,0.414-0.082,0.861-0.461,1.062c-1.104,0.565-1.601,1.859-1.163,3.018c0.001,0.001,0.001,0.002,0.002,0.003
			c0.432,1.124,1.705,1.783,2.872,1.48c0.024-0.007,0.049-0.01,0.073-0.01C554.826,163.205,554.884,163.2,554.941,163.2z"/>
	</g>
</g>
<g>
	<path fill="#A9D5D6" d="M608.607,171.349c-1.588,0-3.024-0.946-3.658-2.382c-0.347,0.095-0.703,0.143-1.065,0.143
		c-1.241,0-2.392-0.559-3.156-1.533c-1.107-1.415-1.129-3.406-0.085-4.838c-1.145-1.126-1.511-2.838-0.906-4.348
		c0.667-1.66,2.37-2.688,4.146-2.492c0.403-1.557,1.703-2.73,3.313-2.96c1.809-0.26,3.52,0.737,4.231,2.345
		c0.346-0.095,0.702-0.143,1.063-0.143c1.241,0,2.391,0.559,3.154,1.534c1.108,1.412,1.131,3.402,0.086,4.836
		c1.145,1.127,1.512,2.837,0.906,4.345c-0.666,1.662-2.369,2.697-4.146,2.496c-0.404,1.557-1.703,2.729-3.312,2.956
		C608.988,171.335,608.797,171.349,608.607,171.349z M605.3,168.228l0.099,0.276c0.539,1.501,2.084,2.449,3.698,2.22
		c1.452-0.205,2.608-1.312,2.877-2.756l0.054-0.288l0.288,0.052c0.198,0.035,0.399,0.054,0.601,0.054
		c1.405,0,2.651-0.844,3.175-2.148c0.546-1.361,0.163-2.916-0.951-3.87l-0.223-0.19l0.188-0.224c1.04-1.23,1.071-3.045,0.075-4.314
		c-0.65-0.831-1.631-1.308-2.689-1.308c-0.39,0-0.771,0.065-1.137,0.194l-0.276,0.098l-0.1-0.276
		c-0.542-1.501-2.064-2.458-3.699-2.224c-1.454,0.207-2.61,1.316-2.878,2.76l-0.054,0.288l-0.288-0.052
		c-0.198-0.035-0.399-0.053-0.601-0.053c-1.404,0-2.651,0.842-3.176,2.145c-0.545,1.363-0.163,2.919,0.951,3.87l0.223,0.19
		l-0.188,0.225c-1.039,1.23-1.072,3.046-0.077,4.317c0.652,0.83,1.634,1.307,2.692,1.307c0.39,0,0.773-0.065,1.14-0.194
		L605.3,168.228z"/>
	<path fill="#A9D5D6" d="M606.702,168.004L606.702,168.004c-0.351,0-0.695-0.067-1.023-0.199c-1.115-0.448-1.804-1.58-1.715-2.76
		c-1.029-0.301-1.798-1.176-1.949-2.254c-0.171-1.19,0.465-2.353,1.533-2.864c-0.253-1.039,0.12-2.141,0.975-2.812
		c0.924-0.728,2.284-0.766,3.249-0.108c0.759-0.727,1.927-0.964,2.922-0.563c1.114,0.449,1.805,1.581,1.72,2.762
		c1.024,0.298,1.792,1.172,1.946,2.249c0.169,1.193-0.466,2.356-1.53,2.868c0.253,1.039-0.12,2.141-0.976,2.812
		c-0.929,0.726-2.289,0.761-3.251,0.107C608.094,167.729,607.415,168.004,606.702,168.004z M606.217,157.119
		c-0.487,0-0.947,0.159-1.33,0.46c-0.729,0.573-1.013,1.546-0.703,2.42l0.098,0.277l-0.276,0.099
		c-0.959,0.345-1.551,1.326-1.406,2.334c0.129,0.921,0.83,1.652,1.744,1.821l0.288,0.054l-0.052,0.288
		c-0.18,1.003,0.375,2.007,1.32,2.387c0.853,0.343,1.858,0.09,2.446-0.603l0.19-0.223l0.225,0.188
		c0.756,0.64,1.94,0.665,2.729,0.048c0.729-0.571,1.012-1.544,0.703-2.419l-0.098-0.276l0.276-0.099
		c0.956-0.344,1.547-1.327,1.403-2.338c-0.132-0.919-0.831-1.649-1.741-1.816l-0.287-0.053l0.051-0.288
		c0.177-1.004-0.38-2.009-1.324-2.39c-0.851-0.342-1.856-0.087-2.445,0.603l-0.19,0.223l-0.225-0.188
		C607.225,157.299,606.729,157.119,606.217,157.119z"/>
	<path fill="#A9D5D6" d="M608.188,164.551c-1.339,0-2.429-1.089-2.429-2.428s1.09-2.428,2.429-2.428s2.428,1.089,2.428,2.428
		S609.526,164.551,608.188,164.551z M608.188,160.286c-1.014,0-1.839,0.824-1.839,1.838s0.825,1.838,1.839,1.838
		s1.838-0.824,1.838-1.838S609.201,160.286,608.188,160.286z"/>
</g>
<g>
	<path fill="#A9D5D6" d="M537.871,179.824c-0.12,0-0.241-0.008-0.362-0.022c-1.278-0.158-2.303-1.142-2.528-2.387
		c-1.153-0.022-2.184-0.716-2.638-1.78c-0.504-1.187-0.164-2.564,0.803-3.382c-0.555-1.003-0.477-2.247,0.223-3.176
		c0.557-0.741,1.411-1.167,2.342-1.167c0.337,0,0.674,0.06,0.99,0.172c0.585-0.97,1.702-1.532,2.864-1.394
		c1.277,0.155,2.3,1.138,2.523,2.386c1.155,0.022,2.188,0.717,2.64,1.783c0.504,1.187,0.163,2.563-0.804,3.38
		c0.556,1.004,0.478,2.247-0.223,3.175c-0.561,0.743-1.415,1.169-2.345,1.169c-0.34,0-0.671-0.058-0.986-0.171
		C539.847,179.277,538.894,179.824,537.871,179.824z M535.507,176.796l0.024,0.292c0.091,1.098,0.953,1.992,2.05,2.127
		c1.004,0.128,1.963-0.416,2.391-1.307l0.126-0.265l0.266,0.125c0.981,0.464,2.21,0.157,2.867-0.713
		c0.604-0.8,0.628-1.895,0.06-2.725l-0.166-0.243l0.242-0.167c0.906-0.625,1.25-1.817,0.818-2.834
		c-0.391-0.919-1.314-1.504-2.332-1.418l-0.293,0.022l-0.023-0.293c-0.089-1.099-0.948-1.993-2.043-2.125
		c-1.013-0.133-1.967,0.415-2.395,1.309l-0.126,0.265l-0.266-0.125c-0.309-0.146-0.653-0.223-0.997-0.223
		c-0.744,0-1.426,0.34-1.871,0.932c-0.603,0.802-0.627,1.897-0.06,2.728l0.166,0.242l-0.241,0.166
		c-0.906,0.627-1.251,1.819-0.818,2.837c0.392,0.918,1.337,1.498,2.329,1.415L535.507,176.796z"/>
	<path fill="#A9D5D6" d="M538.537,175.827c-1.424,0-2.583-1.158-2.583-2.582c0-1.425,1.159-2.584,2.583-2.584
		s2.583,1.159,2.583,2.584C541.12,174.668,539.961,175.827,538.537,175.827z M538.537,171.25c-1.099,0-1.993,0.895-1.993,1.994
		c0,1.099,0.895,1.992,1.993,1.992s1.993-0.894,1.993-1.992C540.53,172.145,539.636,171.25,538.537,171.25z"/>
</g>
</svg>
