<?xml version="1.0" encoding="utf-8"?>
<!-- Generator: Adobe Illustrator 16.0.4, SVG Export Plug-In . SVG Version: 6.00 Build 0)  -->
<!DOCTYPE svg PUBLIC "-//W3C//DTD SVG 1.1//EN" "http://www.w3.org/Graphics/SVG/1.1/DTD/svg11.dtd">
<svg version="1.1" id="Layer_1" xmlns="http://www.w3.org/2000/svg" xmlns:xlink="http://www.w3.org/1999/xlink" x="0px" y="0px"
	 width="294.18px" height="194.883px" viewBox="0 0 294.18 194.883" enable-background="new 0 0 294.18 194.883"
	 xml:space="preserve">
<polygon fill="#A9D5D7" points="287.419,166.9 5,166.9 0,194.883 292.42,194.883 "/>
<g>
	<path fill="#A9D3D6" d="M148.567,156.77c-24.703,0-48.198-2.776-66.156-7.816c-0.213-0.06-0.361-0.253-0.365-0.475
		c0-0.045,0.005-0.089,0.016-0.131V0.395h1v147.702c17.823,4.949,41.065,7.673,65.505,7.673c24.646,0,48.03-2.764,65.908-7.786
		V0.395h1v147.946c0.006,0.226-0.139,0.438-0.361,0.502C197.104,153.955,173.47,156.77,148.567,156.77z"/>
	<path fill="#A9D3D6" d="M148.567,159.64c-26.088,0-50.523-3.05-68.803-8.589c-0.172-0.052-0.303-0.193-0.343-0.368
		c-0.016-0.071-0.016-0.145-0.001-0.214V0h1v150.205c18.148,5.44,42.329,8.436,68.147,8.436c26.03,0,50.355-3.038,68.552-8.557V0h1
		v150.445c0,0.22-0.144,0.423-0.354,0.487C199.438,156.547,174.864,159.64,148.567,159.64z"/>
</g>
<g>
	<g>
		<path fill="#A9D5D6" d="M27.343,24.896c-3.054,0-6.108-1.163-8.434-3.488c-4.65-4.65-4.653-12.215-0.006-16.862l0.356,0.356
			c-4.45,4.451-4.448,11.695,0.006,16.149c4.454,4.452,11.697,4.454,16.146,0.004l0.356,0.356
			C33.446,23.734,30.394,24.896,27.343,24.896z"/>
		<path fill="#A9D5D6" d="M17.818,39.363l-0.356-0.356c2.157-2.157,3.345-5.026,3.345-8.077s-1.188-5.919-3.345-8.076
			c-4.454-4.453-11.7-4.454-16.153,0l-0.356-0.356c4.65-4.65,12.216-4.649,16.866,0c2.252,2.252,3.492,5.246,3.493,8.432
			C21.31,34.116,20.07,37.111,17.818,39.363z"/>
		<path fill="#A9D5D6" d="M9.387,24.902c-0.001,0-0.002,0-0.003,0c-3.184-0.001-6.178-1.242-8.43-3.494l0.356-0.356
			c2.157,2.157,5.024,3.345,8.074,3.346c0.001,0,0.002,0,0.002,0c3.049,0,5.916-1.188,8.072-3.344
			c2.158-2.158,3.346-5.026,3.345-8.076c-0.001-3.05-1.19-5.917-3.348-8.074l0.356-0.356c2.253,2.252,3.495,5.246,3.496,8.431
			c0.001,3.185-1.24,6.18-3.493,8.433C15.565,23.662,12.571,24.901,9.387,24.902z"/>
		<path fill="#A9D5D6" d="M18.907,39.361c-2.253-2.252-3.494-5.247-3.495-8.432s1.239-6.179,3.491-8.43
			c4.649-4.649,12.214-4.648,16.865,0.001l-0.356,0.356c-4.454-4.453-11.7-4.454-16.152-0.001c-2.157,2.156-3.344,5.023-3.343,8.074
			c0,3.05,1.189,5.917,3.347,8.075L18.907,39.361z"/>
	</g>
	<g>
		<path fill="#A9D5D6" d="M57.185,132.552L57.185,132.552c-0.742,0-1.44-0.327-1.913-0.886c-0.841,0.467-1.937,0.396-2.716-0.193
			c-0.879-0.658-1.217-1.823-0.851-2.845c-0.84-0.508-1.314-1.464-1.191-2.45c0.132-1.09,0.973-1.965,2.04-2.159
			c0.018-0.979,0.607-1.866,1.523-2.257c1.003-0.423,2.207-0.124,2.89,0.688c0.842-0.468,1.936-0.397,2.716,0.192
			c0.88,0.661,1.218,1.826,0.852,2.847c0.84,0.506,1.313,1.461,1.191,2.448c-0.133,1.092-0.975,1.967-2.041,2.161
			c-0.017,0.979-0.606,1.865-1.522,2.253C57.851,132.485,57.522,132.552,57.185,132.552z M55.398,130.983l0.143,0.206
			c0.373,0.538,0.987,0.858,1.644,0.859h0c0.269,0,0.532-0.055,0.781-0.161c0.79-0.334,1.275-1.133,1.208-1.988l-0.02-0.25
			l0.25-0.021c0.94-0.079,1.706-0.816,1.821-1.752c0.104-0.853-0.345-1.674-1.12-2.045l-0.226-0.108l0.107-0.227
			c0.402-0.854,0.146-1.884-0.608-2.451c-0.677-0.51-1.641-0.528-2.332-0.052l-0.208,0.143l-0.143-0.208
			c-0.521-0.759-1.563-1.065-2.423-0.701c-0.79,0.336-1.276,1.137-1.21,1.992l0.019,0.25l-0.25,0.021
			c-0.94,0.08-1.705,0.815-1.818,1.75c-0.106,0.852,0.344,1.675,1.12,2.048l0.225,0.109l-0.106,0.226
			c-0.402,0.854-0.147,1.884,0.606,2.447c0.676,0.511,1.641,0.53,2.331,0.055L55.398,130.983z"/>
		<path fill="#A9D5D6" d="M56.124,129.267c-0.889,0-1.688-0.528-2.035-1.347c-0.23-0.54-0.236-1.14-0.016-1.687
			c0.221-0.548,0.641-0.977,1.184-1.208c0.275-0.116,0.565-0.176,0.862-0.176c0.888,0,1.687,0.528,2.034,1.347
			c0.231,0.542,0.237,1.143,0.016,1.689c-0.22,0.546-0.64,0.974-1.182,1.205C56.711,129.208,56.42,129.267,56.124,129.267z
			 M56.119,125.354c-0.229,0-0.453,0.046-0.665,0.137c-0.418,0.178-0.743,0.509-0.913,0.932c-0.17,0.422-0.166,0.884,0.012,1.301
			c0.268,0.632,0.885,1.04,1.571,1.04c0.229,0,0.453-0.046,0.665-0.137c0.418-0.178,0.742-0.508,0.912-0.929
			c0.17-0.423,0.166-0.885-0.012-1.304C57.421,125.762,56.804,125.354,56.119,125.354z"/>
	</g>
	<g>
		<path fill="#A9D5D6" d="M45.125,47.179c-0.742,0-1.44-0.328-1.912-0.888c-0.84,0.467-1.935,0.397-2.715-0.192
			c-0.88-0.66-1.218-1.824-0.851-2.845c-0.839-0.508-1.313-1.463-1.193-2.45c0.134-1.092,0.975-1.966,2.041-2.159
			c0.018-0.978,0.607-1.866,1.523-2.257c1.004-0.424,2.206-0.125,2.892,0.688c0.841-0.467,1.935-0.396,2.717,0.192
			c0.878,0.664,1.215,1.83,0.851,2.848c0.838,0.505,1.312,1.46,1.191,2.448c-0.134,1.09-0.975,1.965-2.041,2.16
			c-0.018,0.977-0.607,1.863-1.522,2.254C45.791,47.111,45.462,47.179,45.125,47.179z M43.339,45.607l0.143,0.207
			c0.524,0.759,1.563,1.067,2.424,0.7c0.79-0.337,1.277-1.137,1.21-1.99l-0.019-0.25l0.249-0.021c0.94-0.081,1.706-0.817,1.82-1.751
			c0.104-0.853-0.346-1.674-1.12-2.045l-0.226-0.108l0.107-0.227c0.402-0.852,0.146-1.882-0.606-2.452
			c-0.674-0.509-1.641-0.526-2.331-0.052l-0.208,0.143l-0.143-0.207c-0.525-0.76-1.565-1.066-2.426-0.701
			c-0.79,0.337-1.277,1.139-1.21,1.993l0.02,0.25l-0.25,0.021c-0.939,0.077-1.705,0.812-1.819,1.748
			c-0.104,0.852,0.347,1.675,1.122,2.048l0.226,0.108l-0.107,0.227c-0.403,0.853-0.148,1.882,0.606,2.447
			c0.675,0.509,1.64,0.527,2.331,0.053L43.339,45.607z"/>
		<path fill="#A9D5D6" d="M44.061,43.893c-1.218,0-2.208-0.99-2.208-2.208s0.99-2.208,2.208-2.208s2.208,0.99,2.208,2.208
			S45.279,43.893,44.061,43.893z M44.061,39.981c-0.939,0-1.704,0.765-1.704,1.704s0.765,1.704,1.704,1.704s1.704-0.765,1.704-1.704
			S45.001,39.981,44.061,39.981z"/>
	</g>
	<g>
		<path fill="#A9D5D6" d="M64.577,84.039c-6.573,0-11.92-5.349-11.92-11.925c0-6.577,5.347-11.928,11.92-11.928v0.504
			c-6.295,0-11.416,5.125-11.416,11.424c0,6.297,5.121,11.421,11.416,11.421V84.039z"/>
		<path fill="#A9D5D6" d="M39.19,84.039v-0.504c6.297,0,11.421-5.124,11.421-11.421c0-6.299-5.124-11.424-11.421-11.424v-0.504
			c6.575,0,11.925,5.351,11.925,11.928C51.115,78.69,45.765,84.039,39.19,84.039z"/>
		<path fill="#A9D5D6" d="M51.882,71.342c-6.573,0-11.921-5.349-11.921-11.924h0.504c0,6.297,5.122,11.42,11.417,11.42
			c6.298,0,11.422-5.123,11.422-11.42h0.504C63.807,65.993,58.458,71.342,51.882,71.342z"/>
		<path fill="#A9D5D6" d="M63.807,84.809h-0.504c0-6.299-5.124-11.424-11.422-11.424c-6.295,0-11.417,5.125-11.417,11.424h-0.504
			c0-6.577,5.348-11.928,11.921-11.928C58.458,72.881,63.807,78.232,63.807,84.809z"/>
	</g>
	<g>
		<path fill="#A9D5D6" d="M31.574,140.043c-6.573,0-11.92-5.349-11.92-11.924c0-6.577,5.347-11.929,11.92-11.929v0.504
			c-6.295,0-11.416,5.125-11.416,11.425c0,6.297,5.121,11.42,11.416,11.42V140.043z"/>
		<path fill="#A9D5D6" d="M6.187,140.043v-0.504c6.297,0,11.421-5.123,11.421-11.42c0-6.3-5.124-11.425-11.421-11.425v-0.504
			c6.575,0,11.925,5.352,11.925,11.929C18.112,134.695,12.762,140.043,6.187,140.043z"/>
		<path fill="#A9D5D6" d="M18.879,127.346c-6.573,0-11.921-5.349-11.921-11.924h0.504c0,6.297,5.122,11.42,11.417,11.42
			c6.297,0,11.421-5.123,11.421-11.42h0.504C30.803,121.998,25.454,127.346,18.879,127.346z"/>
		<path fill="#A9D5D6" d="M30.803,140.814H30.3c0-6.299-5.124-11.424-11.421-11.424c-6.295,0-11.417,5.125-11.417,11.424H6.958
			c0-6.577,5.348-11.928,11.921-11.928C25.454,128.886,30.803,134.237,30.803,140.814z"/>
	</g>
	<g>
		<path fill="#A9D5D6" d="M59.71,30.191L59.71,30.191c-1.069,0-2.074-0.486-2.733-1.311c-1.19,0.699-2.765,0.618-3.881-0.225
			c-1.257-0.943-1.722-2.622-1.156-4.07c-1.225-0.694-1.92-2.06-1.747-3.471c0.188-1.56,1.409-2.803,2.945-3.039
			c-0.01-1.406,0.824-2.691,2.133-3.248c1.429-0.604,3.151-0.158,4.104,1.032c1.19-0.699,2.764-0.617,3.883,0.225
			c1.254,0.946,1.719,2.625,1.156,4.07c1.224,0.696,1.919,2.061,1.745,3.47c-0.188,1.561-1.408,2.803-2.944,3.038
			c0.011,1.407-0.824,2.692-2.133,3.249C60.643,30.097,60.181,30.191,59.71,30.191z M57.104,28.192l0.143,0.206
			c0.557,0.807,1.478,1.289,2.463,1.289l0,0c0.404,0,0.799-0.081,1.174-0.24c1.185-0.504,1.915-1.705,1.817-2.989l-0.019-0.25
			l0.25-0.021c1.411-0.115,2.557-1.219,2.726-2.624c0.158-1.276-0.516-2.508-1.677-3.067l-0.226-0.108l0.107-0.226
			c0.603-1.277,0.221-2.823-0.908-3.675c-1.014-0.764-2.461-0.792-3.499-0.081l-0.207,0.142l-0.143-0.206
			c-0.789-1.137-2.348-1.595-3.638-1.05c-1.185,0.504-1.916,1.705-1.818,2.988l0.019,0.25l-0.25,0.021
			c-1.41,0.117-2.557,1.222-2.727,2.626c-0.158,1.278,0.517,2.51,1.679,3.067l0.226,0.109l-0.107,0.227
			c-0.605,1.28-0.224,2.825,0.908,3.674c1.012,0.763,2.459,0.791,3.499,0.082L57.104,28.192z"/>
		<path fill="#A9D5D6" d="M58.175,25.446c-1.696,0-3.075-1.38-3.075-3.076c0-1.696,1.379-3.076,3.075-3.076
			c1.696,0,3.076,1.38,3.076,3.076C61.251,24.066,59.871,25.446,58.175,25.446z M58.175,19.798c-1.418,0-2.571,1.154-2.571,2.572
			c0,1.418,1.153,2.572,2.571,2.572c1.418,0,2.572-1.154,2.572-2.572C60.747,20.952,59.593,19.798,58.175,19.798z"/>
	</g>
	<g>
		<g>
			<path fill="#A9D5D6" d="M47.854,156.767c-1.429,0-2.721-0.79-3.373-2.062c-0.121-0.22-0.399-0.339-0.651-0.272
				c-0.018,0.005-0.036,0.008-0.053,0.009c-0.294,0.071-0.595,0.107-0.896,0.108c-1.542,0-2.953-0.959-3.526-2.39
				c-0.006-0.011-0.012-0.022-0.016-0.035c-0.695-1.814,0.081-3.849,1.806-4.732c0.23-0.126,0.348-0.398,0.28-0.659
				c-0.475-1.844,0.493-3.748,2.253-4.459c0.015-0.01,0.03-0.018,0.047-0.024c0.437-0.168,0.894-0.254,1.36-0.254
				c1.431,0,2.725,0.79,3.377,2.061c0.003,0.007,0.007,0.014,0.009,0.021c0.132,0.214,0.397,0.317,0.646,0.254
				c0.015-0.005,0.03-0.007,0.045-0.008c0.294-0.072,0.596-0.108,0.898-0.108c1.558,0,2.928,0.925,3.513,2.363
				c0.013,0.018,0.024,0.038,0.033,0.06c0.69,1.812-0.089,3.848-1.812,4.734c-0.226,0.124-0.345,0.398-0.275,0.648
				c0.003,0.012,0.005,0.024,0.007,0.036c0.459,1.843-0.515,3.739-2.279,4.44c-0.01,0.006-0.021,0.011-0.032,0.016
				C48.776,156.682,48.319,156.767,47.854,156.767z M43.978,153.909c0.396,0,0.759,0.215,0.948,0.561
				c0.568,1.109,1.689,1.794,2.928,1.794c0.388,0,0.771-0.069,1.137-0.205c0.009-0.005,0.02-0.01,0.03-0.014
				c1.562-0.599,2.425-2.271,2.009-3.89c-0.002-0.01-0.004-0.02-0.006-0.03c-0.115-0.471,0.101-0.96,0.533-1.197
				c1.479-0.762,2.157-2.486,1.604-4.041c-0.012-0.016-0.021-0.034-0.029-0.054c-0.492-1.283-1.698-2.113-3.071-2.113
				c-0.275,0-0.55,0.035-0.817,0.104c-0.015,0.004-0.03,0.007-0.045,0.008c-0.467,0.102-0.958-0.123-1.186-0.539
				c-0.007-0.013-0.012-0.025-0.017-0.038c-0.571-1.082-1.683-1.753-2.911-1.753c-0.381,0-0.757,0.066-1.118,0.197
				c-0.014,0.009-0.029,0.018-0.046,0.023c-1.561,0.6-2.424,2.271-2.008,3.887c0.126,0.483-0.092,0.99-0.532,1.23
				c-1.481,0.759-2.156,2.485-1.595,4.042c0.028,0.036,0.046,0.08,0.052,0.127c0.506,1.223,1.719,2.038,3.044,2.038
				c0.275,0,0.549-0.035,0.816-0.104c0.017-0.004,0.034-0.007,0.052-0.008C43.823,153.917,43.901,153.909,43.978,153.909z"/>
			<path fill="#A9D5D6" d="M45.446,154.278c-0.348,0-0.687-0.069-1.009-0.207c-0.012-0.003-0.022-0.007-0.034-0.012
				c-1.206-0.537-1.812-1.89-1.409-3.146c0.039-0.127-0.016-0.267-0.134-0.334c-1.132-0.669-1.582-2.074-1.048-3.271
				c0.003-0.006,0.005-0.012,0.008-0.017c0.416-0.916,1.333-1.507,2.345-1.507c0.256,0,0.51,0.038,0.754,0.113
				c0.01,0.002,0.019,0.004,0.028,0.007c0.133,0.042,0.269-0.015,0.335-0.133c0.006-0.012,0.013-0.022,0.021-0.032
				c0.647-1.056,2.055-1.519,3.204-1.035c0.015,0.003,0.03,0.008,0.045,0.015c1.205,0.538,1.811,1.891,1.408,3.147
				c-0.037,0.123,0.02,0.263,0.139,0.332c1.113,0.661,1.564,2.037,1.064,3.222c-0.003,0.015-0.008,0.029-0.014,0.043
				c-0.414,0.931-1.339,1.532-2.357,1.532c-0.268,0-0.534-0.042-0.79-0.124c-0.094-0.029-0.264,0.02-0.329,0.136
				c-0.01,0.018-0.021,0.033-0.035,0.048C47.172,153.81,46.337,154.278,45.446,154.278z M44.572,153.582
				c0.01,0.003,0.019,0.007,0.028,0.011c0.945,0.421,2.114,0.04,2.632-0.841c0.01-0.018,0.022-0.033,0.036-0.047
				c0.188-0.277,0.552-0.412,0.881-0.315c1.011,0.322,2.084-0.168,2.519-1.086c0.003-0.012,0.008-0.024,0.013-0.036
				c0.43-0.963,0.07-2.095-0.838-2.634c-0.318-0.187-0.469-0.562-0.365-0.915c0.32-1.001-0.146-2.071-1.085-2.517
				c-0.013-0.004-0.025-0.008-0.038-0.014c-0.942-0.421-2.112-0.041-2.635,0.838c-0.005,0.009-0.011,0.018-0.018,0.025
				c-0.179,0.284-0.533,0.432-0.862,0.347c-0.014-0.002-0.028-0.005-0.042-0.009c-0.205-0.066-0.418-0.101-0.633-0.101
				c-0.82,0-1.564,0.482-1.895,1.229c-0.002,0.006-0.004,0.011-0.007,0.016c-0.416,0.958-0.052,2.077,0.85,2.61
				c0.319,0.183,0.47,0.562,0.362,0.919C43.154,152.066,43.626,153.139,44.572,153.582z"/>
		</g>
		<g>
			<path fill="#A9D5D6" d="M44.898,156.685c-0.519,0-1.025-0.104-1.505-0.312c-0.008-0.003-0.017-0.006-0.024-0.01
				c-1.776-0.788-2.667-2.775-2.072-4.623c0.074-0.253-0.035-0.528-0.268-0.663c-1.646-0.974-2.307-3.014-1.555-4.765
				c0.003-0.012,0.007-0.022,0.012-0.034c0.609-1.369,1.971-2.253,3.468-2.253c0.393,0,0.782,0.061,1.157,0.182
				c0.003,0.001,0.006,0.003,0.01,0.004c0.249,0.065,0.52-0.051,0.65-0.274c0.007-0.012,0.015-0.023,0.023-0.033
				c0.682-1.128,1.92-1.826,3.242-1.826c0.506,0,1,0.1,1.468,0.297c0.024,0.002,0.048,0.009,0.071,0.019
				c1.771,0.795,2.66,2.786,2.065,4.631c-0.072,0.246,0.039,0.523,0.266,0.653c0.01,0.006,0.021,0.013,0.03,0.021
				c1.625,0.977,2.276,2.998,1.533,4.739c-0.003,0.016-0.008,0.031-0.015,0.047c-0.609,1.367-1.971,2.25-3.47,2.25
				c-0.393,0-0.782-0.062-1.156-0.182c-0.223-0.063-0.527,0.041-0.656,0.268c-0.008,0.013-0.016,0.025-0.025,0.036
				C47.465,155.985,46.223,156.685,44.898,156.685z M43.537,155.887c0.007,0.002,0.014,0.005,0.021,0.008
				c0.427,0.189,0.877,0.286,1.34,0.286c1.161,0,2.247-0.619,2.834-1.615c0.007-0.012,0.015-0.023,0.024-0.033
				c0.251-0.4,0.764-0.596,1.22-0.463c0.331,0.106,0.667,0.16,1.008,0.16c1.281,0,2.446-0.743,2.985-1.898
				c0.003-0.015,0.008-0.028,0.015-0.042c0.682-1.528,0.111-3.323-1.33-4.174c-0.009-0.005-0.019-0.012-0.027-0.019
				c-0.407-0.25-0.603-0.759-0.468-1.221c0.509-1.582-0.229-3.279-1.719-3.99c-0.021-0.003-0.043-0.009-0.063-0.018
				c-0.427-0.19-0.878-0.287-1.34-0.287c-1.158,0-2.242,0.619-2.829,1.614c-0.007,0.013-0.016,0.024-0.025,0.035
				c-0.256,0.398-0.766,0.596-1.223,0.458c-0.008-0.002-0.017-0.005-0.025-0.009c-0.318-0.1-0.647-0.15-0.98-0.15
				c-1.283,0-2.452,0.749-2.989,1.912c-0.003,0.011-0.006,0.021-0.011,0.03c-0.68,1.527-0.109,3.32,1.329,4.171
				c0.432,0.251,0.636,0.764,0.494,1.246C41.265,153.484,42.022,155.193,43.537,155.887z"/>
			<path fill="#A9D5D6" d="M47.386,154.323c-0.971,0-1.849-0.536-2.293-1.399c-0.06-0.113-0.203-0.176-0.333-0.14
				c-1.248,0.318-2.595-0.383-3.05-1.574c-0.003-0.009-0.006-0.019-0.009-0.027c-0.454-1.224,0.075-2.588,1.24-3.187
				c0.001,0,0.002-0.001,0.004-0.002c0.112-0.064,0.167-0.198,0.132-0.323c-0.004-0.015-0.007-0.03-0.008-0.045
				c-0.296-1.237,0.354-2.506,1.528-2.988c0.015-0.01,0.031-0.018,0.048-0.024c0.297-0.113,0.608-0.171,0.923-0.171
				c0.973,0,1.854,0.537,2.297,1.402c0.059,0.109,0.2,0.169,0.334,0.135c0.011-0.003,0.022-0.005,0.033-0.006
				c0.199-0.049,0.404-0.073,0.608-0.073c1.048,0,2.005,0.648,2.395,1.617c0.005,0.01,0.009,0.019,0.013,0.029
				c0.474,1.236-0.055,2.621-1.228,3.22c-0.114,0.062-0.173,0.199-0.138,0.331c0.005,0.019,0.008,0.037,0.009,0.056
				c0.299,1.251-0.375,2.535-1.586,3.001c-0.007,0.003-0.014,0.005-0.021,0.007C47.994,154.268,47.693,154.323,47.386,154.323z
				 M44.837,152.269c0.298,0,0.567,0.162,0.704,0.422c0.475,0.923,1.615,1.365,2.591,0.988c0.006-0.002,0.012-0.004,0.018-0.006
				c0.972-0.389,1.505-1.435,1.241-2.445c-0.005-0.02-0.008-0.039-0.008-0.059c-0.065-0.339,0.095-0.682,0.403-0.85
				c0.939-0.479,1.364-1.573,1.005-2.56c-0.004-0.008-0.008-0.016-0.011-0.024c-0.368-0.958-1.456-1.52-2.454-1.267
				c-0.012,0.003-0.024,0.005-0.036,0.007c-0.345,0.072-0.709-0.092-0.872-0.398c-0.467-0.909-1.574-1.355-2.542-1.013
				c-0.013,0.008-0.027,0.015-0.042,0.021c-0.984,0.377-1.529,1.433-1.268,2.454c0.003,0.013,0.006,0.026,0.007,0.039
				c0.075,0.344-0.09,0.703-0.405,0.868c-0.004,0.002-0.009,0.004-0.013,0.006c-0.935,0.49-1.353,1.597-0.972,2.582
				c0.003,0.008,0.006,0.017,0.009,0.025c0.376,0.939,1.456,1.486,2.44,1.235C44.699,152.278,44.768,152.269,44.837,152.269z"/>
		</g>
	</g>
	<g>
		<g>
			<path fill="#A9D5D6" d="M21.258,64.355c-1.43,0-2.724-0.791-3.375-2.063c-0.121-0.22-0.397-0.34-0.65-0.271
				c-0.017,0.005-0.035,0.007-0.052,0.008c-0.294,0.072-0.596,0.109-0.898,0.109c-1.543,0-2.954-0.958-3.526-2.391
				c-0.006-0.011-0.011-0.021-0.016-0.033c-0.695-1.815,0.082-3.849,1.806-4.733c0.229-0.126,0.348-0.398,0.281-0.658
				c-0.475-1.837,0.485-3.735,2.236-4.452c0.019-0.015,0.04-0.026,0.062-0.035c0.437-0.167,0.894-0.252,1.358-0.252
				c1.432,0,2.727,0.79,3.379,2.061c0.004,0.008,0.008,0.016,0.011,0.024c0.134,0.211,0.399,0.314,0.644,0.25
				c0.015-0.004,0.03-0.006,0.045-0.008c0.295-0.072,0.597-0.108,0.899-0.108c1.558,0,2.929,0.926,3.514,2.366
				c0.014,0.018,0.025,0.037,0.033,0.059c0.69,1.812-0.089,3.847-1.813,4.732c-0.226,0.124-0.344,0.399-0.275,0.651
				c0.003,0.012,0.005,0.024,0.007,0.036c0.46,1.842-0.514,3.738-2.277,4.441c-0.01,0.006-0.021,0.011-0.033,0.016
				C22.179,64.27,21.722,64.355,21.258,64.355z M17.382,61.496c0.394,0,0.757,0.215,0.946,0.56c0.568,1.11,1.689,1.795,2.93,1.795
				c0.388,0,0.77-0.069,1.136-0.204c0.01-0.005,0.02-0.01,0.03-0.014c1.561-0.6,2.424-2.272,2.007-3.89
				c-0.003-0.011-0.005-0.021-0.006-0.032c-0.112-0.465,0.109-0.965,0.533-1.198c1.48-0.76,2.158-2.485,1.604-4.039
				c-0.012-0.016-0.021-0.034-0.029-0.053c-0.493-1.285-1.699-2.115-3.072-2.115c-0.275,0-0.55,0.035-0.818,0.104
				c-0.015,0.004-0.03,0.006-0.045,0.007c-0.469,0.103-0.957-0.122-1.186-0.538c-0.007-0.014-0.014-0.029-0.019-0.043
				c-0.571-1.079-1.683-1.748-2.91-1.748c-0.376,0-0.748,0.064-1.104,0.192c-0.017,0.013-0.036,0.023-0.056,0.031
				c-1.562,0.6-2.426,2.271-2.008,3.887c0.125,0.483-0.095,0.989-0.533,1.229c-1.48,0.758-2.155,2.485-1.595,4.042
				c0.028,0.036,0.047,0.08,0.052,0.128c0.505,1.222,1.718,2.038,3.043,2.037c0.275,0,0.55-0.035,0.818-0.104
				c0.017-0.004,0.033-0.007,0.05-0.008C17.226,61.504,17.304,61.496,17.382,61.496z"/>
			<path fill="#A9D5D6" d="M18.846,61.864c-0.348,0-0.688-0.069-1.009-0.206c-0.011-0.003-0.022-0.007-0.034-0.012
				c-1.207-0.537-1.812-1.89-1.409-3.146c0.039-0.127-0.016-0.266-0.133-0.333c-1.128-0.666-1.579-2.062-1.054-3.257
				c0.001-0.003,0.002-0.006,0.004-0.009c0.41-0.93,1.335-1.531,2.356-1.531c0.259,0,0.515,0.039,0.763,0.116
				c0.006,0.001,0.012,0.003,0.018,0.005c0.13,0.04,0.27-0.017,0.336-0.134c0.006-0.012,0.013-0.022,0.021-0.032
				c0.646-1.056,2.054-1.519,3.205-1.035c0.015,0.003,0.03,0.008,0.045,0.015c1.205,0.538,1.81,1.891,1.407,3.147
				c-0.036,0.123,0.021,0.262,0.14,0.333c1.113,0.661,1.563,2.036,1.064,3.219c-0.003,0.015-0.008,0.029-0.015,0.043
				c-0.415,0.932-1.341,1.534-2.359,1.534c-0.268,0-0.533-0.042-0.788-0.125c-0.096-0.024-0.263,0.021-0.329,0.136
				c-0.01,0.018-0.021,0.034-0.035,0.048C20.573,61.397,19.737,61.864,18.846,61.864z M17.972,61.168
				c0.01,0.003,0.019,0.006,0.028,0.01c0.946,0.422,2.115,0.04,2.633-0.841c0.01-0.017,0.022-0.033,0.036-0.047
				c0.189-0.277,0.553-0.409,0.881-0.315c1.011,0.325,2.083-0.168,2.519-1.087c0.003-0.013,0.007-0.025,0.013-0.038
				c0.43-0.961,0.07-2.092-0.838-2.631c-0.317-0.187-0.468-0.563-0.365-0.915c0.321-1-0.145-2.071-1.084-2.518
				c-0.013-0.003-0.026-0.008-0.038-0.014c-0.943-0.418-2.114-0.041-2.636,0.837c-0.005,0.009-0.011,0.018-0.018,0.026
				c-0.18,0.287-0.539,0.431-0.872,0.346c-0.011-0.002-0.021-0.005-0.032-0.008c-0.205-0.066-0.418-0.1-0.633-0.1
				c-0.817,0-1.557,0.477-1.889,1.217c-0.001,0.003-0.003,0.006-0.004,0.009c-0.43,0.963-0.068,2.093,0.841,2.629
				c0.319,0.183,0.469,0.562,0.361,0.919C16.554,59.652,17.026,60.726,17.972,61.168z"/>
		</g>
		<g>
			<path fill="#A9D5D6" d="M18.302,64.273c-0.517,0-1.021-0.104-1.499-0.31c-0.011-0.003-0.021-0.007-0.032-0.012
				c-1.777-0.788-2.667-2.775-2.071-4.622c0.073-0.252-0.037-0.529-0.269-0.664c-1.641-0.971-2.303-3.004-1.559-4.752
				c0.003-0.017,0.009-0.033,0.016-0.049c0.609-1.368,1.97-2.252,3.466-2.252c0.394,0,0.785,0.062,1.16,0.184
				c0.003,0.001,0.006,0.002,0.01,0.003c0.249,0.065,0.52-0.051,0.648-0.275c0.007-0.012,0.016-0.024,0.025-0.035
				c0.682-1.127,1.919-1.825,3.241-1.825c0.506,0,1,0.1,1.47,0.298c0.023,0.002,0.047,0.009,0.069,0.019
				c1.771,0.795,2.66,2.787,2.067,4.632c-0.072,0.246,0.039,0.523,0.265,0.653c0.008,0.005,0.016,0.01,0.024,0.016
				c1.629,0.976,2.283,3.003,1.537,4.747c-0.003,0.015-0.008,0.03-0.015,0.044c-0.609,1.367-1.97,2.25-3.467,2.25
				c-0.393,0-0.782-0.062-1.157-0.183c-0.217-0.062-0.527,0.042-0.655,0.268c-0.007,0.012-0.015,0.023-0.023,0.034
				C20.87,63.572,19.628,64.272,18.302,64.273z M16.934,63.472c0.009,0.003,0.019,0.006,0.028,0.01
				c0.427,0.19,0.877,0.286,1.34,0.286c1.161,0,2.247-0.618,2.835-1.614c0.006-0.01,0.013-0.02,0.021-0.029
				c0.249-0.403,0.763-0.603,1.222-0.468c1.581,0.513,3.312-0.276,3.993-1.741c0.003-0.013,0.008-0.026,0.014-0.04
				c0.682-1.528,0.11-3.323-1.33-4.173c-0.007-0.004-0.014-0.009-0.021-0.014c-0.411-0.25-0.61-0.761-0.474-1.225
				c0.508-1.583-0.231-3.282-1.721-3.992c-0.021-0.003-0.042-0.009-0.062-0.018c-0.427-0.19-0.878-0.287-1.34-0.287
				c-1.159,0-2.243,0.619-2.829,1.615c-0.008,0.013-0.016,0.025-0.025,0.036c-0.255,0.399-0.769,0.594-1.222,0.459
				c-0.009-0.002-0.017-0.005-0.025-0.009c-0.318-0.101-0.649-0.152-0.982-0.152c-1.279,0-2.443,0.745-2.982,1.902
				c-0.003,0.015-0.008,0.029-0.015,0.044c-0.679,1.526-0.107,3.318,1.33,4.169c0.43,0.251,0.634,0.764,0.495,1.246
				C14.668,61.071,15.421,62.777,16.934,63.472z"/>
			<path fill="#A9D5D6" d="M20.788,61.91c-0.971,0-1.85-0.537-2.293-1.4c-0.059-0.113-0.205-0.176-0.333-0.139
				c-1.245,0.32-2.593-0.383-3.05-1.574c-0.002-0.006-0.004-0.012-0.006-0.017c-0.462-1.223,0.062-2.589,1.227-3.191
				c0.001,0,0.002-0.001,0.003-0.001c0.12-0.063,0.179-0.199,0.143-0.331c-0.004-0.015-0.007-0.029-0.008-0.044
				c-0.296-1.237,0.354-2.504,1.527-2.987c0.015-0.01,0.031-0.019,0.049-0.025c0.297-0.114,0.608-0.171,0.923-0.171
				c0.973,0,1.853,0.537,2.297,1.402c0.059,0.11,0.202,0.169,0.333,0.136c0.011-0.003,0.022-0.005,0.033-0.006
				c0.2-0.049,0.404-0.074,0.609-0.074c1.047,0,2.004,0.649,2.394,1.619c0.005,0.009,0.009,0.019,0.013,0.029
				c0.475,1.236-0.052,2.62-1.226,3.219c-0.116,0.063-0.174,0.198-0.139,0.332c0.004,0.017,0.007,0.033,0.008,0.05
				c0.302,1.254-0.373,2.541-1.585,3.006c-0.008,0.003-0.017,0.006-0.025,0.008C21.395,61.855,21.094,61.91,20.788,61.91z
				 M18.239,59.856c0.298,0,0.568,0.161,0.704,0.421c0.358,0.697,1.065,1.128,1.846,1.128c0.255,0,0.506-0.047,0.746-0.14
				c0.007-0.002,0.014-0.005,0.021-0.007c0.97-0.389,1.501-1.434,1.238-2.444c-0.004-0.018-0.007-0.036-0.008-0.054
				c-0.067-0.341,0.094-0.687,0.403-0.854c0.938-0.479,1.363-1.572,1.003-2.558c-0.004-0.008-0.008-0.016-0.011-0.024
				c-0.368-0.96-1.458-1.528-2.454-1.268c-0.012,0.003-0.023,0.005-0.035,0.006c-0.344,0.076-0.708-0.09-0.872-0.398
				c-0.468-0.91-1.574-1.354-2.542-1.013c-0.013,0.008-0.027,0.015-0.042,0.021c-0.984,0.377-1.529,1.433-1.268,2.454
				c0.003,0.013,0.006,0.027,0.007,0.041c0.073,0.338-0.087,0.692-0.392,0.859c-0.004,0.002-0.008,0.004-0.012,0.006
				c-0.947,0.485-1.372,1.598-0.986,2.588c0.002,0.005,0.004,0.011,0.006,0.016c0.375,0.945,1.455,1.503,2.444,1.245
				C18.101,59.865,18.17,59.856,18.239,59.856z"/>
		</g>
	</g>
	<g>
		<path fill="#A9D5D6" d="M46.532,112.963c-0.437,0-0.865-0.084-1.274-0.247c-1.425-0.574-2.293-2.038-2.132-3.545
			c-1.332-0.348-2.335-1.46-2.53-2.835c-0.217-1.521,0.617-3.003,2.004-3.618c-0.366-1.325,0.095-2.749,1.189-3.605
			c1.182-0.932,2.929-0.952,4.133-0.075c0.946-0.963,2.443-1.286,3.717-0.775c1.427,0.571,2.295,2.036,2.134,3.545
			c1.332,0.346,2.334,1.457,2.528,2.834c0.219,1.521-0.615,3.003-2.001,3.617c0.367,1.326-0.094,2.751-1.189,3.608
			c-0.61,0.479-1.341,0.73-2.114,0.73l0,0c-0.729,0-1.438-0.231-2.021-0.657C48.333,112.593,47.455,112.963,46.532,112.963z
			 M45.902,98.884c-0.659,0-1.281,0.216-1.801,0.625c-0.988,0.773-1.37,2.088-0.952,3.272l0.083,0.236l-0.236,0.085
			c-1.296,0.467-2.095,1.797-1.9,3.162c0.176,1.242,1.124,2.231,2.359,2.463l0.246,0.046l-0.044,0.247
			c-0.243,1.354,0.509,2.712,1.79,3.228c1.152,0.461,2.511,0.12,3.31-0.814l0.163-0.19l0.191,0.162
			c0.524,0.443,1.194,0.688,1.886,0.688l0,0c0.659,0,1.282-0.216,1.803-0.623c0.988-0.773,1.371-2.09,0.952-3.275l-0.083-0.236
			l0.236-0.085c1.296-0.466,2.095-1.795,1.898-3.161c-0.175-1.243-1.123-2.232-2.357-2.462l-0.247-0.046l0.044-0.247
			c0.244-1.356-0.509-2.714-1.791-3.227c-1.152-0.464-2.512-0.122-3.309,0.812l-0.163,0.19l-0.191-0.162
			C47.262,99.128,46.592,98.884,45.902,98.884z"/>
		<path fill="#A9D5D6" d="M48.684,110.791L48.684,110.791c-0.905,0-1.728-0.527-2.116-1.333c-0.881,0.214-1.84-0.114-2.405-0.832
			c-0.636-0.811-0.663-1.943-0.092-2.779c-0.632-0.66-0.827-1.637-0.48-2.5c0.383-0.949,1.334-1.561,2.361-1.469
			c0.256-0.876,1.004-1.531,1.925-1.664c1.037-0.144,2.019,0.404,2.452,1.306c0.882-0.21,1.84,0.117,2.403,0.836
			c0.635,0.81,0.663,1.943,0.092,2.779c0.634,0.661,0.83,1.638,0.481,2.502c-0.383,0.947-1.331,1.53-2.36,1.465
			c-0.257,0.881-1.005,1.538-1.926,1.666C48.907,110.783,48.795,110.791,48.684,110.791z M46.865,108.831l0.085,0.235
			c0.294,0.812,1.121,1.332,1.999,1.201c0.786-0.108,1.411-0.707,1.556-1.49l0.046-0.246l0.247,0.044
			c0.875,0.161,1.717-0.325,2.04-1.128c0.297-0.736,0.09-1.577-0.515-2.092l-0.191-0.163L52.294,105
			c0.562-0.665,0.579-1.647,0.041-2.334c-0.481-0.614-1.335-0.859-2.067-0.604l-0.236,0.084l-0.085-0.236
			c-0.291-0.808-1.118-1.323-1.999-1.196c-0.786,0.112-1.411,0.71-1.555,1.487l-0.046,0.245l-0.246-0.043
			c-0.871-0.152-1.719,0.329-2.043,1.132c-0.296,0.736-0.089,1.578,0.514,2.093l0.191,0.162l-0.162,0.192
			c-0.562,0.665-0.58,1.646-0.041,2.332c0.483,0.614,1.336,0.858,2.069,0.601L46.865,108.831z"/>
		<path fill="#A9D5D6" d="M48.449,107.565c-1.145,0-2.075-0.931-2.075-2.074c0-1.145,0.931-2.076,2.075-2.076
			s2.075,0.932,2.075,2.076C50.524,106.634,49.594,107.565,48.449,107.565z M48.449,103.918c-0.866,0-1.571,0.705-1.571,1.572
			c0,0.866,0.705,1.57,1.571,1.57s1.571-0.704,1.571-1.57C50.02,104.624,49.315,103.918,48.449,103.918z"/>
	</g>
	<g>
		<path fill="#A9D5D6" d="M17.607,100.739L17.607,100.739c-0.641,0-1.271-0.119-1.874-0.353c-2.197-0.855-3.537-3.114-3.259-5.434
			c-2.067-0.462-3.651-2.146-3.976-4.259c-0.358-2.33,0.927-4.619,3.074-5.539c-0.634-2.025,0.033-4.239,1.703-5.576
			c0.914-0.731,2.061-1.134,3.229-1.134c1.122,0,2.214,0.365,3.105,1.031c0.978-1.064,2.351-1.67,3.805-1.67
			c0.641,0,1.271,0.119,1.873,0.354c2.198,0.856,3.537,3.114,3.255,5.433c2.073,0.463,3.657,2.146,3.978,4.259
			c0.357,2.332-0.927,4.621-3.072,5.54c0.632,2.023-0.036,4.237-1.705,5.574c-0.928,0.743-2.044,1.136-3.229,1.136
			c-1.12,0-2.212-0.364-3.102-1.03C20.434,100.134,19.061,100.739,17.607,100.739z M16.504,78.95c-1.069,0-2.077,0.354-2.913,1.023
			c-1.564,1.252-2.154,3.358-1.466,5.241l0.086,0.235l-0.235,0.087c-2.061,0.768-3.313,2.905-2.979,5.081
			c0.305,1.98,1.834,3.542,3.805,3.886l0.247,0.043l-0.042,0.247c-0.366,2.169,0.858,4.323,2.909,5.122
			c0.544,0.212,1.113,0.319,1.691,0.319c1.386,0,2.69-0.609,3.58-1.672l0.161-0.191l0.193,0.159
			c0.832,0.688,1.888,1.066,2.973,1.066c1.069,0,2.077-0.354,2.914-1.024c1.564-1.253,2.154-3.359,1.468-5.24l-0.086-0.235
			l0.235-0.087c2.059-0.767,3.311-2.904,2.978-5.082c-0.301-1.98-1.831-3.542-3.807-3.886l-0.247-0.043l0.042-0.248
			c0.369-2.168-0.854-4.322-2.906-5.122c-0.543-0.212-1.112-0.319-1.689-0.319c-1.386,0-2.691,0.609-3.58,1.673l-0.161,0.192
			l-0.193-0.16C18.648,79.329,17.591,78.95,16.504,78.95z"/>
		<path fill="#A9D5D6" d="M20.931,97.342c-1.377,0-2.631-0.817-3.194-2.057c-0.314,0.091-0.64,0.137-0.97,0.137l0,0
			c-1.07,0-2.067-0.478-2.734-1.311c-0.981-1.227-1.017-2.969-0.116-4.23c-1.015-0.976-1.351-2.472-0.833-3.798
			c0.561-1.441,2.059-2.373,3.604-2.214c0.336-1.367,1.462-2.408,2.87-2.623c1.581-0.243,3.089,0.618,3.722,2.016
			c0.314-0.091,0.64-0.137,0.969-0.137c1.069,0,2.065,0.478,2.734,1.312c0.986,1.228,1.022,2.969,0.116,4.229
			c1.018,0.975,1.356,2.471,0.837,3.798c-0.57,1.461-2.035,2.37-3.606,2.215c-0.337,1.365-1.463,2.406-2.87,2.623
			C21.282,97.329,21.106,97.342,20.931,97.342z M18.03,94.65l0.087,0.235c0.486,1.308,1.841,2.13,3.268,1.918
			c1.272-0.197,2.277-1.181,2.499-2.449l0.043-0.247l0.247,0.042c1.376,0.233,2.786-0.572,3.292-1.869
			c0.47-1.201,0.119-2.563-0.872-3.389l-0.193-0.162l0.161-0.193c0.904-1.087,0.916-2.678,0.027-3.784
			c-0.792-0.987-2.18-1.374-3.367-0.941l-0.235,0.086L22.9,83.662c-0.485-1.309-1.838-2.129-3.266-1.918
			c-1.274,0.195-2.278,1.18-2.5,2.449l-0.043,0.248l-0.248-0.042c-1.372-0.234-2.786,0.57-3.29,1.868
			c-0.469,1.2-0.121,2.562,0.867,3.39l0.191,0.161l-0.159,0.193c-0.899,1.089-0.91,2.681-0.027,3.786
			c0.571,0.713,1.424,1.122,2.341,1.122l0,0c0.353,0,0.698-0.061,1.027-0.181L18.03,94.65z"/>
		<path fill="#A9D5D6" d="M20.508,92.351c-1.696,0-3.076-1.38-3.076-3.077s1.38-3.077,3.076-3.077c1.697,0,3.077,1.38,3.077,3.077
			S22.204,92.351,20.508,92.351z M20.508,86.701c-1.418,0-2.572,1.154-2.572,2.573c0,1.419,1.154,2.573,2.572,2.573
			c1.419,0,2.573-1.154,2.573-2.573C23.081,87.855,21.927,86.701,20.508,86.701z"/>
	</g>
</g>
<g>
	<g>
		<path fill="#A9D5D6" d="M267.789,24.896c-3.053,0-6.104-1.161-8.427-3.484l0.357-0.356c4.448,4.449,11.693,4.448,16.146-0.004
			c2.158-2.157,3.347-5.025,3.348-8.076c0.002-3.051-1.186-5.918-3.342-8.074l0.357-0.356c2.251,2.251,3.49,5.245,3.489,8.43
			s-1.243,6.18-3.495,8.432C273.897,23.733,270.843,24.896,267.789,24.896z"/>
		<path fill="#A9D5D6" d="M277.313,39.363c-2.253-2.252-3.493-5.248-3.493-8.434c0-3.186,1.241-6.18,3.493-8.432
			c2.253-2.252,5.248-3.493,8.434-3.493s6.18,1.24,8.432,3.493l-0.357,0.356c-2.156-2.157-5.023-3.345-8.074-3.345
			s-5.92,1.188-8.076,3.345c-2.158,2.157-3.346,5.025-3.347,8.076c0,3.051,1.188,5.92,3.347,8.077L277.313,39.363z"/>
		<path fill="#A9D5D6" d="M285.744,24.902c-3.185,0-6.178-1.24-8.429-3.492c-2.253-2.253-3.494-5.248-3.493-8.433
			s1.242-6.179,3.496-8.431l0.355,0.356c-2.158,2.157-3.347,5.024-3.348,8.074c0,3.05,1.188,5.918,3.347,8.076
			c2.155,2.156,5.021,3.344,8.071,3.344c0.001,0,0.002,0,0.003,0c3.05-0.001,5.917-1.189,8.072-3.346l0.357,0.356
			c-2.252,2.252-5.245,3.493-8.43,3.494C285.746,24.902,285.745,24.902,285.744,24.902z"/>
		<path fill="#A9D5D6" d="M276.221,39.361l-0.355-0.356c2.158-2.158,3.348-5.025,3.348-8.075c0.001-3.05-1.187-5.917-3.344-8.074
			c-2.157-2.157-5.025-3.346-8.074-3.346c-0.001,0-0.001,0-0.002,0c-3.05,0-5.918,1.189-8.076,3.347l-0.357-0.356
			c2.254-2.253,5.249-3.494,8.434-3.495c0,0,0.001,0,0.002,0c3.184,0,6.178,1.24,8.431,3.493c2.252,2.251,3.492,5.246,3.492,8.43
			C279.718,34.114,278.475,37.109,276.221,39.361z"/>
	</g>
	<g>
		<path fill="#A9D5D6" d="M237.945,132.552c-0.337,0-0.666-0.067-0.979-0.2c-0.915-0.387-1.505-1.273-1.522-2.253
			c-1.065-0.194-1.906-1.069-2.04-2.162c-0.123-0.987,0.35-1.942,1.19-2.447c-0.365-1.02-0.026-2.186,0.854-2.847
			c0.778-0.589,1.872-0.659,2.716-0.192c0.682-0.812,1.887-1.113,2.889-0.688c0.916,0.39,1.506,1.277,1.524,2.257
			c1.067,0.194,1.908,1.069,2.04,2.16c0.122,0.986-0.351,1.942-1.191,2.449c0.365,1.022,0.027,2.188-0.853,2.846
			c-0.777,0.589-1.875,0.659-2.716,0.192C239.385,132.225,238.687,132.552,237.945,132.552z M236.95,122.642
			c-0.436,0-0.85,0.14-1.198,0.403c-0.756,0.567-1.012,1.599-0.609,2.451l0.106,0.227l-0.227,0.108
			c-0.774,0.37-1.224,1.191-1.118,2.044c0.115,0.937,0.88,1.674,1.82,1.753l0.249,0.021l-0.02,0.25
			c-0.065,0.855,0.42,1.655,1.209,1.988c0.864,0.366,1.901,0.06,2.426-0.698l0.143-0.206l0.207,0.142
			c0.69,0.476,1.658,0.456,2.331-0.054c0.755-0.563,1.011-1.594,0.608-2.448l-0.105-0.227l0.225-0.108
			c0.775-0.373,1.226-1.196,1.12-2.047c-0.113-0.936-0.879-1.671-1.819-1.751l-0.249-0.021l0.02-0.25
			c0.064-0.856-0.423-1.657-1.213-1.992c-0.86-0.365-1.902-0.059-2.422,0.701l-0.143,0.208l-0.208-0.143
			C237.748,122.763,237.356,122.642,236.95,122.642z"/>
		<path fill="#A9D5D6" d="M239.008,129.267L239.008,129.267c-0.297,0-0.587-0.06-0.862-0.176c-0.542-0.23-0.962-0.659-1.183-1.205
			c-0.221-0.547-0.216-1.146,0.015-1.689c0.346-0.817,1.145-1.347,2.034-1.347c0.297,0,0.587,0.06,0.862,0.176
			c0.543,0.231,0.963,0.66,1.184,1.208c0.221,0.547,0.215,1.146-0.017,1.687C240.695,128.739,239.896,129.267,239.008,129.267z
			 M239.011,125.354c-0.687,0-1.303,0.408-1.569,1.039c-0.179,0.42-0.183,0.883-0.013,1.305c0.171,0.421,0.495,0.751,0.913,0.929
			c0.85,0.364,1.88-0.062,2.234-0.903c0.179-0.417,0.183-0.879,0.013-1.301c-0.17-0.423-0.494-0.754-0.913-0.932
			C239.465,125.4,239.241,125.354,239.011,125.354z"/>
	</g>
	<g>
		<path fill="#A9D5D6" d="M250.006,47.179L250.006,47.179c-0.337,0-0.666-0.068-0.979-0.201c-0.914-0.389-1.504-1.275-1.521-2.254
			c-1.065-0.195-1.907-1.07-2.043-2.16c-0.119-0.989,0.355-1.944,1.193-2.448c-0.365-1.019-0.028-2.185,0.85-2.848
			c0.781-0.589,1.876-0.659,2.717-0.192c0.685-0.812,1.886-1.112,2.891-0.688c0.916,0.392,1.506,1.279,1.523,2.257
			c1.065,0.193,1.907,1.067,2.04,2.158c0.12,0.987-0.354,1.943-1.192,2.45c0.367,1.02,0.03,2.185-0.851,2.845
			c-0.781,0.587-1.877,0.657-2.716,0.192C251.446,46.851,250.748,47.179,250.006,47.179z M249.01,37.269
			c-0.437,0-0.852,0.139-1.201,0.402c-0.753,0.568-1.008,1.6-0.605,2.452l0.106,0.227l-0.227,0.108
			c-0.772,0.37-1.224,1.192-1.121,2.045c0.116,0.934,0.883,1.67,1.822,1.751l0.249,0.021l-0.02,0.249
			c-0.064,0.855,0.421,1.655,1.21,1.99c0.25,0.106,0.513,0.16,0.781,0.16l0,0c0.657,0,1.271-0.322,1.643-0.86l0.144-0.208
			l0.207,0.143c0.69,0.474,1.656,0.457,2.332-0.053c0.755-0.566,1.009-1.595,0.605-2.448l-0.107-0.227l0.226-0.108
			c0.774-0.373,1.226-1.196,1.122-2.049c-0.114-0.935-0.88-1.67-1.819-1.748l-0.25-0.021l0.02-0.25
			c0.066-0.854-0.42-1.656-1.211-1.994c-0.858-0.364-1.901-0.057-2.424,0.701l-0.144,0.208l-0.207-0.143
			C249.807,37.39,249.417,37.269,249.01,37.269z"/>
		<path fill="#A9D5D6" d="M251.069,43.893c-1.218,0-2.208-0.99-2.208-2.208s0.99-2.208,2.208-2.208s2.208,0.99,2.208,2.208
			S252.287,43.893,251.069,43.893z M251.069,39.981c-0.939,0-1.704,0.765-1.704,1.704s0.765,1.704,1.704,1.704
			s1.704-0.765,1.704-1.704S252.009,39.981,251.069,39.981z"/>
	</g>
	<g>
		<path fill="#A9D5D6" d="M230.555,84.039v-0.504c6.295,0,11.416-5.124,11.416-11.421c0-6.299-5.121-11.424-11.416-11.424v-0.504
			c6.572,0,11.92,5.351,11.92,11.928C242.475,78.69,237.128,84.039,230.555,84.039z"/>
		<path fill="#A9D5D6" d="M255.941,84.039c-6.575,0-11.925-5.349-11.925-11.925c0-6.577,5.35-11.928,11.925-11.928v0.504
			c-6.298,0-11.421,5.125-11.421,11.424c0,6.297,5.123,11.421,11.421,11.421V84.039z"/>
		<path fill="#A9D5D6" d="M243.248,71.342c-6.575,0-11.924-5.349-11.924-11.924h0.504c0,6.297,5.123,11.42,11.42,11.42
			c6.295,0,11.417-5.123,11.417-11.42h0.504C255.169,65.993,249.821,71.342,243.248,71.342z"/>
		<path fill="#A9D5D6" d="M255.169,84.809h-0.504c0-6.299-5.122-11.424-11.417-11.424c-6.297,0-11.42,5.125-11.42,11.424h-0.504
			c0-6.577,5.349-11.928,11.924-11.928C249.821,72.881,255.169,78.232,255.169,84.809z"/>
	</g>
	<g>
		<path fill="#A9D5D6" d="M263.557,140.043v-0.504c6.295,0,11.416-5.123,11.416-11.42c0-6.3-5.121-11.425-11.416-11.425v-0.504
			c6.572,0,11.92,5.352,11.92,11.929C275.477,134.695,270.13,140.043,263.557,140.043z"/>
		<path fill="#A9D5D6" d="M288.944,140.043c-6.575,0-11.925-5.349-11.925-11.924c0-6.577,5.35-11.929,11.925-11.929v0.504
			c-6.298,0-11.421,5.125-11.421,11.425c0,6.297,5.123,11.42,11.421,11.42V140.043z"/>
		<path fill="#A9D5D6" d="M276.25,127.346c-6.575,0-11.924-5.349-11.924-11.924h0.504c0,6.297,5.123,11.42,11.42,11.42
			c6.295,0,11.417-5.123,11.417-11.42h0.504C288.171,121.998,282.823,127.346,276.25,127.346z"/>
		<path fill="#A9D5D6" d="M288.171,140.814h-0.504c0-6.299-5.122-11.424-11.417-11.424c-6.297,0-11.42,5.125-11.42,11.424h-0.504
			c0-6.577,5.349-11.928,11.924-11.928C282.823,128.886,288.171,134.237,288.171,140.814z"/>
	</g>
	<g>
		<path fill="#A9D5D6" d="M235.421,30.191L235.421,30.191c-0.472,0-0.933-0.094-1.37-0.28c-1.31-0.555-2.144-1.841-2.133-3.249
			c-1.537-0.234-2.758-1.477-2.945-3.038c-0.176-1.409,0.521-2.773,1.745-3.47c-0.562-1.446-0.097-3.125,1.157-4.07
			c1.118-0.842,2.693-0.922,3.882-0.225c0.662-0.826,1.667-1.312,2.735-1.312c0.471,0,0.931,0.094,1.368,0.28
			c1.31,0.556,2.145,1.841,2.135,3.248c1.534,0.236,2.755,1.479,2.944,3.04c0.173,1.413-0.522,2.778-1.746,3.47
			c0.564,1.449,0.099,3.128-1.158,4.071c-1.117,0.842-2.691,0.923-3.881,0.224C237.495,29.705,236.49,30.191,235.421,30.191z
			 M233.98,15.882c-0.654,0-1.277,0.209-1.803,0.604c-1.129,0.852-1.511,2.397-0.908,3.675l0.106,0.226l-0.226,0.108
			c-1.162,0.56-1.836,1.792-1.678,3.066c0.17,1.406,1.316,2.51,2.728,2.625l0.25,0.021l-0.02,0.25
			c-0.098,1.286,0.632,2.487,1.817,2.989c1.291,0.55,2.852,0.089,3.637-1.049l0.143-0.206l0.207,0.142
			c1.036,0.708,2.485,0.681,3.498-0.081c1.132-0.849,1.514-2.395,0.909-3.676l-0.107-0.227l0.227-0.108
			c1.16-0.555,1.835-1.787,1.679-3.066c-0.171-1.405-1.317-2.51-2.727-2.626l-0.25-0.021l0.02-0.25
			c0.097-1.284-0.634-2.484-1.819-2.988c-0.374-0.159-0.769-0.24-1.171-0.24c-0.984,0-1.906,0.482-2.466,1.29l-0.143,0.206
			l-0.207-0.142C235.177,16.063,234.59,15.882,233.98,15.882z"/>
		<path fill="#A9D5D6" d="M236.956,25.446c-1.696,0-3.076-1.38-3.076-3.076c0-1.696,1.38-3.076,3.076-3.076s3.076,1.38,3.076,3.076
			C240.032,24.066,238.652,25.446,236.956,25.446z M236.956,19.798c-1.418,0-2.572,1.154-2.572,2.572
			c0,1.418,1.154,2.572,2.572,2.572s2.572-1.154,2.572-2.572C239.528,20.952,238.374,19.798,236.956,19.798z"/>
	</g>
	<g>
		<g>
			<path fill="#A9D5D6" d="M247.275,156.767c-0.465,0-0.923-0.085-1.36-0.254c-0.013-0.005-0.024-0.011-0.035-0.017
				c-1.763-0.703-2.735-2.6-2.274-4.441c0.002-0.012,0.004-0.022,0.007-0.033c0.068-0.251-0.05-0.525-0.281-0.653
				c-1.718-0.883-2.497-2.918-1.808-4.73c0.009-0.023,0.021-0.045,0.036-0.064c0.586-1.436,1.955-2.358,3.511-2.358
				c0.303,0,0.604,0.036,0.899,0.108c0.015,0.001,0.029,0.004,0.044,0.008c0.246,0.062,0.514-0.041,0.646-0.255
				c0.003-0.007,0.006-0.013,0.009-0.02c0.652-1.271,1.946-2.061,3.378-2.061c0.465,0,0.922,0.085,1.358,0.253
				c0.021,0.008,0.04,0.018,0.057,0.03c1.755,0.715,2.718,2.615,2.243,4.453c-0.067,0.262,0.05,0.534,0.286,0.664
				c1.719,0.879,2.495,2.914,1.801,4.729c-0.005,0.013-0.01,0.024-0.017,0.035c-0.573,1.432-1.983,2.39-3.527,2.39
				c-0.302,0-0.604-0.037-0.898-0.109c-0.017-0.001-0.034-0.003-0.051-0.008c-0.25-0.065-0.528,0.052-0.654,0.278
				C249.997,155.977,248.704,156.767,247.275,156.767z M246.14,156.059c0.366,0.136,0.748,0.204,1.135,0.204
				c1.239,0,2.359-0.685,2.924-1.788c0.232-0.421,0.717-0.646,1.184-0.54c0.016,0,0.032,0.003,0.048,0.007
				c0.268,0.068,0.543,0.104,0.817,0.104c1.354,0,2.59-0.85,3.076-2.115c0.004-0.01,0.009-0.02,0.014-0.029
				c0.572-1.562-0.102-3.301-1.583-4.059c-0.444-0.245-0.663-0.751-0.538-1.235c0.417-1.615-0.447-3.286-2.01-3.886
				c-0.017-0.007-0.032-0.015-0.048-0.024c-0.358-0.13-0.732-0.196-1.112-0.196c-1.229,0-2.341,0.671-2.912,1.754
				c-0.004,0.013-0.01,0.025-0.017,0.037c-0.229,0.417-0.722,0.643-1.186,0.538c-0.016-0.001-0.03-0.003-0.045-0.007
				c-0.268-0.068-0.543-0.104-0.817-0.104c-1.373,0-2.579,0.83-3.071,2.113c-0.008,0.021-0.019,0.041-0.031,0.059
				c-0.55,1.553,0.128,3.275,1.6,4.032c0.438,0.241,0.654,0.731,0.539,1.203c-0.002,0.01-0.004,0.02-0.006,0.028
				c-0.417,1.619,0.446,3.291,2.008,3.89C246.12,156.048,246.131,156.054,246.14,156.059z"/>
			<path fill="#A9D5D6" d="M249.685,154.278c-0.891,0-1.726-0.468-2.192-1.225c-0.013-0.014-0.024-0.029-0.034-0.046
				c-0.065-0.115-0.208-0.172-0.338-0.134c-0.247,0.08-0.513,0.122-0.78,0.122c-1.019,0-1.943-0.602-2.358-1.532
				c-0.007-0.016-0.012-0.032-0.016-0.048c-0.497-1.184-0.046-2.557,1.064-3.216c0.12-0.07,0.177-0.21,0.139-0.339
				c-0.4-1.251,0.205-2.604,1.41-3.142c0.015-0.006,0.028-0.011,0.044-0.015c1.148-0.484,2.558-0.021,3.204,1.035
				c0.008,0.01,0.015,0.021,0.021,0.032c0.065,0.115,0.208,0.171,0.335,0.133c0.009-0.003,0.019-0.005,0.028-0.007
				c0.245-0.075,0.498-0.113,0.754-0.113c1.021,0,1.945,0.601,2.356,1.53c0.002,0.004,0.004,0.008,0.005,0.012
				c0.522,1.192,0.072,2.588-1.053,3.251c-0.121,0.069-0.175,0.208-0.136,0.341c0.402,1.252-0.204,2.604-1.41,3.141
				c-0.012,0.005-0.024,0.01-0.036,0.013C250.371,154.208,250.033,154.278,249.685,154.278z M247.865,152.707
				c0.014,0.014,0.025,0.028,0.035,0.045c0.518,0.883,1.686,1.262,2.63,0.841c0.01-0.004,0.021-0.008,0.031-0.012
				c0.945-0.442,1.416-1.516,1.096-2.513c-0.109-0.363,0.041-0.742,0.364-0.926c0.906-0.535,1.268-1.666,0.837-2.629
				c-0.001-0.003-0.003-0.007-0.004-0.011c-0.334-0.738-1.073-1.214-1.889-1.214c-0.215,0-0.429,0.034-0.633,0.101
				c-0.015,0.004-0.028,0.007-0.042,0.01c-0.328,0.08-0.685-0.062-0.862-0.348c-0.007-0.008-0.013-0.017-0.018-0.025
				c-0.521-0.88-1.688-1.26-2.635-0.838c-0.012,0.005-0.024,0.01-0.036,0.013c-0.94,0.446-1.407,1.517-1.088,2.512
				c0.104,0.357-0.046,0.733-0.364,0.921c-0.907,0.539-1.268,1.671-0.836,2.633c0.006,0.014,0.011,0.028,0.014,0.042
				c0.437,0.914,1.535,1.396,2.509,1.083C247.341,152.284,247.677,152.428,247.865,152.707z"/>
		</g>
		<g>
			<path fill="#A9D5D6" d="M250.231,156.685c-1.324,0-2.563-0.698-3.246-1.826c-0.011-0.012-0.02-0.025-0.028-0.04
				c-0.127-0.226-0.411-0.342-0.66-0.265c-0.368,0.118-0.758,0.18-1.15,0.18c-1.498,0-2.859-0.883-3.469-2.25
				c-0.005-0.012-0.01-0.024-0.013-0.037c-0.75-1.743-0.098-3.771,1.531-4.75c0.01-0.007,0.019-0.014,0.029-0.02
				c0.226-0.129,0.336-0.407,0.263-0.66c-0.592-1.838,0.297-3.828,2.067-4.623c0.024-0.012,0.05-0.018,0.074-0.021
				c0.469-0.196,0.961-0.296,1.466-0.296c1.321,0,2.56,0.698,3.242,1.826c0.008,0.011,0.016,0.022,0.023,0.034
				c0.128,0.223,0.402,0.336,0.65,0.272c0.003-0.001,0.005-0.002,0.008-0.003c0.374-0.121,0.764-0.182,1.156-0.182
				c1.498,0,2.859,0.884,3.468,2.253c0.004,0.009,0.008,0.019,0.011,0.027c0.757,1.752,0.095,3.797-1.55,4.771
				c-0.234,0.136-0.344,0.411-0.269,0.671c0.593,1.84-0.298,3.827-2.074,4.616c-0.01,0.004-0.02,0.008-0.029,0.011
				C251.254,156.581,250.749,156.685,250.231,156.685z M247.371,154.53c0.01,0.011,0.02,0.023,0.026,0.036
				c0.587,0.996,1.673,1.615,2.834,1.615c0.462,0,0.912-0.097,1.339-0.286c0.008-0.004,0.017-0.007,0.024-0.01
				c1.516-0.694,2.271-2.402,1.759-3.99c-0.142-0.489,0.062-1.002,0.495-1.253c1.436-0.851,2.007-2.644,1.327-4.17
				c-0.003-0.008-0.007-0.016-0.009-0.023c-0.535-1.167-1.705-1.919-2.991-1.919c-0.334,0-0.665,0.051-0.984,0.152
				c-0.007,0.003-0.014,0.005-0.021,0.007c-0.457,0.138-0.97-0.061-1.223-0.46c-0.009-0.01-0.017-0.021-0.023-0.033
				c-0.588-0.995-1.672-1.614-2.829-1.614c-0.463,0-0.914,0.097-1.341,0.287c-0.021,0.01-0.044,0.016-0.066,0.019
				c-1.487,0.712-2.225,2.408-1.718,3.982c0.136,0.471-0.061,0.979-0.467,1.229c-0.009,0.007-0.017,0.013-0.026,0.018
				c-1.441,0.852-2.014,2.646-1.331,4.174c0.005,0.011,0.009,0.021,0.012,0.033c0.537,1.16,1.705,1.907,2.988,1.907
				c0.341,0,0.678-0.054,1.002-0.158C246.631,153.927,247.121,154.13,247.371,154.53z"/>
			<path fill="#A9D5D6" d="M247.744,154.323c-0.306,0-0.606-0.054-0.895-0.161c-0.009-0.002-0.017-0.005-0.025-0.008
				c-1.213-0.467-1.888-1.754-1.584-3.008c0.001-0.017,0.003-0.033,0.008-0.049c0.035-0.132-0.024-0.269-0.145-0.334
				c-1.166-0.597-1.694-1.98-1.221-3.217c0.004-0.011,0.008-0.021,0.014-0.029c0.39-0.97,1.347-1.617,2.394-1.617
				c0.205,0,0.41,0.024,0.609,0.073c0.011,0.001,0.022,0.003,0.033,0.006c0.132,0.036,0.274-0.024,0.336-0.139
				c0.441-0.861,1.321-1.398,2.295-1.398c0.315,0,0.626,0.058,0.923,0.171c0.019,0.007,0.035,0.016,0.052,0.026
				c1.172,0.483,1.82,1.751,1.524,2.987c-0.002,0.015-0.004,0.029-0.009,0.044c-0.034,0.123,0.02,0.256,0.128,0.321
				c0.003,0.001,0.006,0.003,0.009,0.004c1.17,0.601,1.698,1.971,1.237,3.196c-0.002,0.007-0.004,0.013-0.006,0.019
				c-0.382,0.989-1.35,1.654-2.41,1.654c-0.215,0-0.431-0.027-0.64-0.081c-0.14-0.035-0.274,0.026-0.335,0.142
				C249.594,153.787,248.715,154.323,247.744,154.323z M247.052,153.699c0.963,0.345,2.072-0.102,2.537-1.006
				c0.169-0.323,0.558-0.49,0.909-0.397c0.989,0.254,2.068-0.3,2.445-1.245c0.001-0.006,0.003-0.011,0.005-0.016
				c0.381-0.983-0.035-2.088-0.967-2.579c-0.007-0.003-0.014-0.006-0.02-0.01c-0.314-0.165-0.479-0.524-0.404-0.868
				c0.001-0.013,0.004-0.025,0.007-0.038c0.261-1.021-0.284-2.077-1.269-2.454c-0.016-0.006-0.03-0.014-0.044-0.021
				c-0.966-0.339-2.074,0.105-2.537,1.011c-0.168,0.311-0.529,0.474-0.875,0.401c-0.012-0.002-0.023-0.004-0.034-0.007
				c-0.999-0.255-2.087,0.308-2.454,1.267c-0.003,0.009-0.007,0.017-0.011,0.024c-0.358,0.986,0.066,2.081,0.998,2.557
				c0.316,0.172,0.477,0.519,0.408,0.86c-0.001,0.017-0.004,0.034-0.008,0.051c-0.264,1.009,0.267,2.052,1.234,2.442
				C247.001,153.675,247.027,153.685,247.052,153.699z"/>
		</g>
	</g>
	<g>
		<g>
			<path fill="#A9D5D6" d="M273.873,64.355c-0.464,0-0.921-0.085-1.358-0.253c-0.011-0.004-0.021-0.009-0.03-0.014
				c-1.766-0.702-2.74-2.601-2.28-4.444c0.002-0.012,0.004-0.023,0.007-0.034c0.069-0.251-0.05-0.526-0.282-0.654
				c-1.718-0.882-2.496-2.917-1.806-4.729c0.008-0.022,0.02-0.043,0.033-0.061c0.586-1.438,1.956-2.364,3.513-2.364
				c0.302,0,0.604,0.037,0.899,0.109c0.015,0.001,0.029,0.003,0.044,0.007c0.248,0.064,0.514-0.041,0.646-0.254
				c0.003-0.007,0.006-0.013,0.009-0.02c0.653-1.271,1.948-2.061,3.379-2.061c0.465,0,0.922,0.085,1.358,0.252
				c0.023,0.009,0.044,0.021,0.062,0.035c1.75,0.716,2.71,2.614,2.237,4.453c-0.068,0.26,0.049,0.532,0.286,0.661
				c1.719,0.88,2.495,2.915,1.8,4.729c-0.005,0.012-0.01,0.023-0.016,0.034c-0.573,1.432-1.983,2.39-3.526,2.39
				c-0.303,0-0.604-0.037-0.899-0.109c-0.018-0.001-0.034-0.004-0.051-0.008c-0.25-0.067-0.528,0.05-0.653,0.278
				C276.595,63.564,275.302,64.355,273.873,64.355z M272.734,63.646c0.367,0.136,0.75,0.205,1.139,0.205
				c1.239,0,2.361-0.686,2.927-1.789c0.23-0.422,0.726-0.643,1.183-0.54c0.017,0.001,0.032,0.003,0.049,0.007
				c0.268,0.069,0.542,0.104,0.817,0.104c1.353,0,2.588-0.85,3.074-2.114c0.004-0.01,0.008-0.02,0.014-0.029
				c0.573-1.562-0.101-3.302-1.582-4.06c-0.446-0.244-0.665-0.75-0.538-1.234c0.416-1.616-0.447-3.288-2.008-3.886
				c-0.021-0.008-0.04-0.018-0.058-0.031c-0.356-0.127-0.728-0.192-1.104-0.192c-1.229,0-2.342,0.671-2.913,1.754
				c-0.004,0.012-0.01,0.025-0.016,0.037c-0.229,0.417-0.723,0.64-1.187,0.539c-0.016-0.001-0.03-0.003-0.045-0.007
				c-0.268-0.069-0.543-0.104-0.817-0.104c-1.373,0-2.578,0.83-3.071,2.115c-0.008,0.02-0.018,0.038-0.029,0.055
				c-0.553,1.554,0.124,3.277,1.597,4.034c0.433,0.237,0.653,0.738,0.54,1.204c-0.002,0.01-0.003,0.02-0.006,0.029
				c-0.416,1.618,0.447,3.29,2.008,3.89C272.716,63.637,272.725,63.641,272.734,63.646z"/>
			<path fill="#A9D5D6" d="M276.285,61.864c-0.893,0-1.729-0.468-2.194-1.224c-0.013-0.014-0.024-0.029-0.034-0.046
				c-0.065-0.115-0.203-0.17-0.337-0.134c-0.247,0.08-0.513,0.122-0.78,0.122c-1.019,0-1.944-0.602-2.358-1.534
				c-0.006-0.013-0.01-0.025-0.014-0.039c-0.503-1.184-0.052-2.562,1.062-3.224c0.12-0.07,0.177-0.209,0.139-0.339
				c-0.4-1.25,0.205-2.603,1.41-3.141c0.015-0.007,0.03-0.012,0.046-0.016c0.317-0.134,0.652-0.201,0.996-0.201
				c0.897,0,1.739,0.473,2.207,1.236c0.008,0.01,0.015,0.021,0.021,0.033c0.064,0.116,0.207,0.174,0.336,0.133
				c0.006-0.002,0.012-0.003,0.019-0.005c0.247-0.077,0.503-0.116,0.762-0.116c1.021,0,1.945,0.601,2.356,1.53
				c0.002,0.003,0.003,0.006,0.004,0.01c0.523,1.194,0.073,2.591-1.052,3.255c-0.12,0.069-0.175,0.208-0.136,0.339
				c0.403,1.251-0.202,2.604-1.409,3.141c-0.011,0.005-0.022,0.009-0.034,0.012C276.971,61.794,276.633,61.864,276.285,61.864z
				 M274.463,60.293c0.014,0.014,0.025,0.028,0.035,0.045c0.518,0.881,1.685,1.263,2.633,0.841c0.01-0.004,0.019-0.007,0.028-0.01
				c0.947-0.443,1.418-1.517,1.097-2.514c-0.108-0.362,0.042-0.74,0.364-0.925c0.905-0.535,1.267-1.665,0.838-2.628
				c-0.001-0.003-0.003-0.006-0.004-0.009c-0.333-0.74-1.073-1.217-1.89-1.217c-0.215,0-0.428,0.033-0.632,0.1
				c-0.012,0.003-0.022,0.006-0.033,0.008c-0.333,0.084-0.694-0.058-0.873-0.347c-0.006-0.008-0.012-0.016-0.017-0.024
				c-0.521-0.879-1.688-1.259-2.635-0.838c-0.013,0.006-0.025,0.01-0.038,0.014c-0.939,0.447-1.405,1.517-1.087,2.512
				c0.104,0.358-0.046,0.734-0.364,0.921c-0.907,0.539-1.268,1.67-0.837,2.631c0.005,0.011,0.009,0.022,0.012,0.033
				c0.434,0.921,1.542,1.407,2.513,1.094C273.94,59.871,274.274,60.014,274.463,60.293z"/>
		</g>
		<g>
			<path fill="#A9D5D6" d="M276.831,64.273c-1.327,0-2.569-0.701-3.251-1.832c-0.009-0.01-0.016-0.021-0.022-0.033
				c-0.129-0.226-0.406-0.342-0.663-0.266c-0.367,0.119-0.757,0.18-1.15,0.18c-1.498,0-2.858-0.883-3.468-2.25
				c-0.007-0.016-0.013-0.033-0.017-0.05c-0.742-1.743-0.087-3.768,1.541-4.742c0.008-0.005,0.015-0.01,0.022-0.015
				c0.227-0.13,0.338-0.407,0.264-0.659c-0.591-1.839,0.297-3.831,2.067-4.626c0.023-0.011,0.048-0.017,0.073-0.021
				c0.469-0.196,0.961-0.296,1.467-0.296c1.32,0,2.559,0.699,3.241,1.826c0.01,0.011,0.018,0.022,0.024,0.035
				c0.131,0.225,0.399,0.343,0.649,0.275c0.003-0.001,0.006-0.002,0.009-0.003c0.376-0.122,0.767-0.184,1.16-0.184
				c1.496,0,2.856,0.884,3.466,2.252c0.007,0.016,0.013,0.033,0.016,0.049c0.745,1.748,0.082,3.781-1.558,4.75
				c-0.233,0.137-0.343,0.413-0.267,0.671c0.593,1.841-0.299,3.828-2.074,4.615c-0.01,0.004-0.02,0.008-0.029,0.011
				C277.853,64.168,277.348,64.273,276.831,64.273z M273.975,62.125c0.008,0.009,0.015,0.019,0.021,0.03
				c0.588,0.995,1.674,1.613,2.835,1.613c0.462,0,0.913-0.096,1.34-0.286c0.009-0.003,0.017-0.007,0.025-0.009
				c1.514-0.695,2.269-2.401,1.757-3.989c-0.143-0.488,0.062-1.001,0.494-1.254c1.436-0.85,2.007-2.642,1.327-4.168
				c-0.006-0.015-0.012-0.029-0.015-0.044c-0.539-1.157-1.703-1.901-2.981-1.901c-0.333,0-0.663,0.051-0.982,0.152
				c-0.008,0.003-0.017,0.006-0.025,0.009c-0.457,0.135-0.967-0.06-1.222-0.459c-0.009-0.011-0.018-0.022-0.024-0.035
				c-0.588-0.996-1.673-1.615-2.83-1.615c-0.463,0-0.914,0.097-1.341,0.287c-0.021,0.009-0.043,0.016-0.064,0.019
				c-1.488,0.711-2.227,2.409-1.72,3.985c0.138,0.471-0.062,0.982-0.473,1.232c-0.007,0.004-0.014,0.009-0.021,0.013
				c-1.44,0.85-2.012,2.645-1.329,4.173c0.006,0.015,0.012,0.029,0.015,0.045c0.54,1.153,1.704,1.896,2.982,1.896
				c0.341,0,0.678-0.053,1.003-0.158C273.237,61.515,273.727,61.723,273.975,62.125z"/>
			<path fill="#A9D5D6" d="M274.342,61.91c-0.307,0-0.608-0.055-0.897-0.163c-0.007-0.002-0.014-0.004-0.021-0.007
				c-1.213-0.466-1.888-1.753-1.585-3.008c0.001-0.016,0.003-0.033,0.008-0.049c0.035-0.131-0.024-0.269-0.145-0.334
				c-1.166-0.595-1.694-1.979-1.222-3.215c0.005-0.013,0.011-0.025,0.017-0.036c0.393-0.966,1.348-1.612,2.392-1.612
				c0.205,0,0.41,0.025,0.609,0.074c0.012,0.001,0.022,0.003,0.033,0.006c0.136,0.036,0.274-0.024,0.335-0.139
				c0.442-0.861,1.322-1.398,2.296-1.398c0.315,0,0.626,0.057,0.924,0.171c0.018,0.006,0.034,0.015,0.05,0.025
				c1.174,0.483,1.822,1.751,1.526,2.988c-0.002,0.015-0.004,0.03-0.009,0.044c-0.033,0.12,0.013,0.244,0.114,0.312
				c0.033,0.01,0.064,0.028,0.09,0.05c1.123,0.617,1.622,1.958,1.169,3.159c-0.002,0.006-0.004,0.012-0.006,0.018
				c-0.38,0.99-1.348,1.655-2.409,1.655c-0.216,0-0.431-0.027-0.64-0.081c-0.136-0.035-0.275,0.026-0.335,0.141
				C276.191,61.373,275.311,61.91,274.342,61.91z M273.651,61.286c0.965,0.341,2.07-0.103,2.537-1.008
				c0.167-0.32,0.547-0.486,0.908-0.396c0.99,0.257,2.069-0.301,2.444-1.245c0.001-0.005,0.003-0.011,0.005-0.016
				c0.385-0.99-0.04-2.103-0.987-2.588c-0.007-0.004-0.015-0.008-0.021-0.013c-0.3-0.17-0.454-0.52-0.381-0.855
				c0.001-0.013,0.004-0.026,0.007-0.039c0.261-1.021-0.284-2.077-1.268-2.454c-0.016-0.006-0.029-0.013-0.043-0.021
				c-0.224-0.079-0.456-0.119-0.691-0.119c-0.783,0-1.492,0.432-1.849,1.128c-0.167,0.312-0.528,0.477-0.875,0.401
				c-0.012-0.001-0.023-0.003-0.035-0.006c-0.994-0.257-2.085,0.307-2.453,1.268c-0.004,0.01-0.009,0.021-0.014,0.03
				c-0.354,0.985,0.071,2.075,1.001,2.549c0.316,0.172,0.477,0.519,0.408,0.86c-0.001,0.017-0.004,0.034-0.008,0.051
				c-0.263,1.009,0.268,2.053,1.235,2.442C273.6,61.262,273.628,61.272,273.651,61.286z"/>
		</g>
	</g>
	<g>
		<path fill="#A9D5D6" d="M248.6,112.963c-0.924,0-1.802-0.37-2.443-1.023c-0.583,0.426-1.293,0.657-2.021,0.657l0,0
			c-0.773,0-1.505-0.252-2.115-0.73c-1.094-0.858-1.555-2.283-1.188-3.608c-1.386-0.613-2.22-2.096-2.003-3.618
			c0.195-1.376,1.198-2.487,2.529-2.833c-0.162-1.509,0.705-2.973,2.134-3.545c1.273-0.51,2.772-0.188,3.718,0.775
			c0.584-0.425,1.292-0.657,2.02-0.657c0.773,0,1.504,0.254,2.113,0.732c1.093,0.857,1.554,2.281,1.189,3.605
			c1.386,0.614,2.221,2.098,2.005,3.618c-0.196,1.376-1.2,2.487-2.531,2.835c0.161,1.507-0.706,2.971-2.132,3.544
			C249.466,112.879,249.037,112.963,248.6,112.963z M246.215,111.244l0.162,0.19c0.797,0.934,2.157,1.278,3.31,0.813
			c1.279-0.515,2.032-1.872,1.789-3.227l-0.044-0.247l0.245-0.046c1.235-0.231,2.184-1.221,2.36-2.462
			c0.194-1.366-0.604-2.696-1.901-3.163l-0.235-0.085l0.084-0.236c0.416-1.183,0.033-2.498-0.952-3.272
			c-1.066-0.836-2.66-0.803-3.688,0.062l-0.191,0.162l-0.162-0.19c-0.797-0.935-2.156-1.277-3.311-0.812
			c-1.283,0.513-2.035,1.87-1.79,3.227l0.045,0.247l-0.247,0.046c-1.234,0.229-2.183,1.219-2.358,2.461
			c-0.196,1.367,0.603,2.696,1.898,3.162l0.236,0.085l-0.084,0.236c-0.418,1.184-0.036,2.5,0.951,3.275
			c1.068,0.834,2.665,0.802,3.691-0.064L246.215,111.244z"/>
		<path fill="#A9D5D6" d="M246.447,110.791L246.447,110.791c-0.111,0-0.224-0.008-0.337-0.023c-0.92-0.128-1.669-0.785-1.926-1.666
			c-1.024,0.067-1.977-0.518-2.358-1.465c-0.35-0.863-0.154-1.84,0.48-2.502c-0.57-0.835-0.543-1.969,0.093-2.779
			c0.563-0.719,1.521-1.048,2.403-0.836c0.434-0.9,1.417-1.447,2.45-1.306c0.923,0.132,1.671,0.787,1.926,1.664
			c1.022-0.094,1.977,0.519,2.36,1.468c0.347,0.864,0.152,1.841-0.48,2.501c0.571,0.837,0.544,1.97-0.092,2.778
			c-0.567,0.72-1.525,1.047-2.406,0.833C248.174,110.264,247.352,110.791,246.447,110.791z M244.579,108.531l0.046,0.246
			c0.146,0.783,0.771,1.382,1.556,1.49c0.89,0.136,1.705-0.388,1.998-1.2l0.085-0.236l0.236,0.084
			c0.732,0.258,1.586,0.014,2.07-0.602c0.538-0.685,0.521-1.665-0.041-2.331l-0.162-0.192l0.19-0.162
			c0.604-0.515,0.81-1.356,0.514-2.094c-0.325-0.802-1.175-1.282-2.041-1.131l-0.246,0.044l-0.046-0.246
			c-0.144-0.777-0.769-1.376-1.556-1.487c-0.894-0.13-1.706,0.389-1.998,1.197l-0.085,0.235l-0.236-0.084
			c-0.735-0.258-1.587-0.01-2.067,0.604c-0.539,0.688-0.521,1.669,0.041,2.334l0.162,0.192l-0.191,0.163
			c-0.605,0.515-0.812,1.355-0.515,2.092c0.323,0.803,1.175,1.288,2.039,1.128L244.579,108.531z"/>
		<path fill="#A9D5D6" d="M246.682,107.565c-1.145,0-2.075-0.931-2.075-2.074c0-1.145,0.931-2.076,2.075-2.076
			c1.144,0,2.074,0.932,2.074,2.076C248.757,106.634,247.826,107.565,246.682,107.565z M246.682,103.918
			c-0.866,0-1.571,0.705-1.571,1.572c0,0.866,0.705,1.57,1.571,1.57s1.57-0.704,1.57-1.57
			C248.253,104.624,247.549,103.918,246.682,103.918z"/>
	</g>
	<g>
		<path fill="#A9D5D6" d="M277.525,100.739C277.524,100.739,277.524,100.739,277.525,100.739c-1.455,0-2.829-0.605-3.808-1.668
			c-0.889,0.666-1.98,1.03-3.1,1.03c-1.168,0-2.315-0.403-3.229-1.135c-1.669-1.338-2.337-3.552-1.706-5.575
			c-2.145-0.918-3.429-3.208-3.071-5.54c0.321-2.112,1.905-3.796,3.978-4.259c-0.279-2.319,1.06-4.577,3.256-5.433
			c0.602-0.234,1.231-0.354,1.872-0.354c1.455,0,2.828,0.605,3.806,1.67c0.891-0.667,1.983-1.031,3.104-1.031
			c1.169,0,2.315,0.403,3.229,1.134c1.67,1.337,2.337,3.552,1.703,5.576c2.147,0.92,3.433,3.209,3.073,5.539
			c-0.323,2.113-1.907,3.796-3.977,4.259c0.277,2.32-1.062,4.578-3.256,5.434C278.796,100.62,278.166,100.739,277.525,100.739z
			 M273.782,98.372l0.161,0.191c0.89,1.062,2.194,1.672,3.581,1.672c0,0,0,0,0.001,0c0.578,0,1.146-0.107,1.691-0.319
			c2.049-0.799,3.271-2.953,2.906-5.122l-0.041-0.247l0.247-0.043c1.973-0.344,3.502-1.906,3.805-3.886
			c0.335-2.176-0.918-4.312-2.979-5.081l-0.234-0.088l0.086-0.235c0.688-1.881,0.098-3.987-1.466-5.241
			c-0.837-0.669-1.844-1.023-2.914-1.023c-1.086,0-2.144,0.379-2.977,1.067l-0.192,0.16l-0.161-0.192
			c-0.889-1.063-2.193-1.673-3.58-1.673c-0.577,0-1.146,0.107-1.688,0.319c-2.052,0.799-3.274,2.954-2.906,5.122l0.041,0.247
			l-0.247,0.043c-1.976,0.345-3.506,1.906-3.807,3.886c-0.333,2.178,0.919,4.315,2.977,5.082l0.234,0.087l-0.085,0.235
			c-0.686,1.88-0.096,3.986,1.468,5.24c0.838,0.67,1.846,1.024,2.915,1.024c1.085,0,2.14-0.379,2.971-1.066L273.782,98.372z"/>
		<path fill="#A9D5D6" d="M274.199,97.343c-0.175,0-0.352-0.013-0.529-0.04c-1.405-0.218-2.531-1.259-2.87-2.624
			c-1.546,0.154-3.043-0.774-3.604-2.215c-0.518-1.326-0.181-2.822,0.836-3.797c-0.904-1.26-0.868-3.001,0.116-4.229
			c0.668-0.833,1.664-1.312,2.733-1.312c0.33,0,0.655,0.046,0.97,0.137c0.635-1.398,2.144-2.261,3.721-2.016
			c1.408,0.215,2.535,1.255,2.872,2.623c1.549-0.155,3.043,0.773,3.604,2.214c0.518,1.325,0.182,2.821-0.834,3.797
			c0.902,1.261,0.866,3.002-0.114,4.23c-0.668,0.833-1.664,1.312-2.734,1.312l0,0c-0.33,0-0.655-0.046-0.971-0.137
			C276.832,96.526,275.577,97.343,274.199,97.343z M271.203,94.108l0.043,0.247c0.224,1.269,1.229,2.253,2.501,2.45
			c1.4,0.212,2.781-0.61,3.267-1.919l0.087-0.235l0.236,0.086c0.329,0.12,0.675,0.181,1.027,0.181l0,0
			c0.916,0,1.77-0.409,2.341-1.122c0.883-1.106,0.871-2.698-0.028-3.786l-0.159-0.193l0.191-0.161
			c0.988-0.828,1.337-2.189,0.868-3.389c-0.506-1.299-1.915-2.099-3.29-1.868l-0.247,0.042l-0.043-0.247
			c-0.223-1.27-1.228-2.254-2.502-2.449c-1.424-0.212-2.777,0.609-3.264,1.918l-0.087,0.235l-0.235-0.086
			c-1.188-0.432-2.576-0.047-3.369,0.942c-0.886,1.105-0.874,2.696,0.028,3.783l0.16,0.193l-0.192,0.161
			c-0.99,0.827-1.34,2.189-0.871,3.39c0.507,1.298,1.914,2.103,3.291,1.869L271.203,94.108z"/>
		<path fill="#A9D5D6" d="M274.619,92.35L274.619,92.35c-0.696,0-1.379-0.24-1.923-0.676c-1.322-1.062-1.535-3.001-0.475-4.324
			c0.588-0.733,1.464-1.154,2.403-1.154c0.695,0,1.378,0.241,1.921,0.677c1.322,1.06,1.536,3,0.479,4.325
			C276.434,91.93,275.557,92.35,274.619,92.35z M274.625,86.701c-0.786,0-1.519,0.352-2.011,0.965
			c-0.886,1.106-0.708,2.728,0.398,3.615c0.461,0.37,1.016,0.565,1.606,0.565c0.785,0,1.519-0.351,2.012-0.963
			c0.885-1.107,0.705-2.73-0.4-3.616C275.769,86.896,275.214,86.701,274.625,86.701z"/>
	</g>
</g>
</svg>
