<?xml version="1.0" encoding="utf-8"?>
<!-- Generator: Adobe Illustrator 16.0.4, SVG Export Plug-In . SVG Version: 6.00 Build 0)  -->
<!DOCTYPE svg PUBLIC "-//W3C//DTD SVG 1.1//EN" "http://www.w3.org/Graphics/SVG/1.1/DTD/svg11.dtd">
<svg version="1.1" id="Layer_1" xmlns="http://www.w3.org/2000/svg" xmlns:xlink="http://www.w3.org/1999/xlink" x="0px" y="0px"
	 width="745.106px" height="159.07px" viewBox="0 0 745.106 159.07" enable-background="new 0 0 745.106 159.07"
	 xml:space="preserve">
<polygon fill="#A9D5D7" points="728.083,20.977 434.397,20.977 429.411,48.891 733.071,48.891 "/>
<polygon fill="#A9D3D6" points="745.103,123.896 133.75,123.896 133.75,122.896 743.898,122.896 736.859,85.493 736.877,85.399 
	743.889,50.036 133.748,50.036 133.748,49.036 745.108,49.036 737.876,85.499 "/>
<polygon fill="#A9D3D6" points="742.546,121.691 133.75,121.691 133.75,120.691 741.337,120.691 734.622,85.506 734.641,85.41 
	741.329,52.242 133.748,52.242 133.748,51.242 742.551,51.242 735.641,85.512 "/>
<g>
	<path fill="#A9D3D6" d="M66.933,151.708c-23.9,0-46.634-2.687-64.015-7.564c-0.211-0.06-0.359-0.25-0.365-0.47
		c-0.001-0.045,0.004-0.09,0.015-0.132V0.382h1v142.905c17.246,4.786,39.729,7.421,63.365,7.421c23.839,0,46.461-2.674,63.757-7.531
		V0.382h1v143.151c0.007,0.226-0.137,0.438-0.361,0.503C113.9,148.984,91.03,151.708,66.933,151.708z"/>
	<path fill="#A9D3D6" d="M66.934,154.484c-25.24,0-48.885-2.951-66.579-8.311c-0.164-0.05-0.292-0.18-0.337-0.346
		c-0.021-0.076-0.023-0.155-0.008-0.231V0h1v145.326c17.563,5.262,40.954,8.157,65.924,8.157c25.187,0,48.719-2.938,66.321-8.276
		L133.249,0h1v145.573c-0.031,0.188-0.173,0.429-0.354,0.484C116.163,151.491,92.383,154.484,66.934,154.484z"/>
</g>
<g>
	<path fill="#A9D5D6" d="M415.952,23.045c-0.102,0-0.204-0.006-0.309-0.019c-1.088-0.132-1.959-0.971-2.151-2.036
		c-0.981-0.018-1.862-0.609-2.254-1.517c-0.427-1.013-0.135-2.188,0.688-2.885c-0.477-0.857-0.408-1.919,0.191-2.709
		c0.477-0.633,1.205-0.997,1.997-0.997c0.291,0,0.573,0.049,0.843,0.146c0.499-0.827,1.446-1.315,2.441-1.188
		c1.091,0.132,1.965,0.971,2.157,2.034c0.982,0.02,1.86,0.612,2.247,1.52c0.431,1.01,0.142,2.186-0.684,2.885
		c0.474,0.856,0.406,1.918-0.191,2.709c-0.475,0.632-1.202,0.996-1.996,0.996c-0.286,0-0.574-0.05-0.844-0.147
		C417.638,22.577,416.823,23.045,415.952,23.045z M413.942,20.461l0.021,0.25c0.078,0.938,0.811,1.701,1.742,1.814
		c0.856,0.105,1.675-0.356,2.044-1.117l0.108-0.225l0.226,0.106c0.841,0.396,1.888,0.137,2.442-0.605
		c0.517-0.683,0.537-1.618,0.053-2.325l-0.142-0.207l0.206-0.143c0.773-0.536,1.066-1.553,0.697-2.418
		c-0.333-0.784-1.133-1.276-1.983-1.208l-0.25,0.019l-0.021-0.25c-0.078-0.937-0.812-1.699-1.748-1.812
		c-0.851-0.104-1.676,0.355-2.039,1.116l-0.108,0.227l-0.227-0.107c-0.837-0.397-1.885-0.137-2.443,0.606
		c-0.518,0.682-0.538,1.616-0.052,2.324l0.142,0.207l-0.206,0.143c-0.771,0.535-1.067,1.552-0.702,2.42
		c0.337,0.782,1.123,1.282,1.99,1.205L413.942,20.461z"/>
	<path fill="#A9D5D6" d="M416.522,19.635c-1.215,0-2.203-0.988-2.203-2.203s0.988-2.203,2.203-2.203s2.203,0.988,2.203,2.203
		S417.737,19.635,416.522,19.635z M416.522,15.733c-0.937,0-1.699,0.762-1.699,1.699s0.763,1.699,1.699,1.699
		s1.699-0.762,1.699-1.699S417.458,15.733,416.522,15.733z"/>
</g>
<g>
	<path fill="#A9D5D6" d="M265.643,27.439c-0.102,0-0.206-0.006-0.31-0.02c-1.088-0.13-1.96-0.969-2.154-2.035
		c-0.984-0.019-1.864-0.611-2.251-1.521c-0.427-1.015-0.137-2.188,0.687-2.882c-0.475-0.855-0.407-1.917,0.192-2.71
		c0.476-0.633,1.204-0.997,1.997-0.997c0.291,0,0.574,0.049,0.844,0.146c0.499-0.826,1.444-1.313,2.441-1.187
		c1.087,0.132,1.961,0.971,2.156,2.034c0.985,0.02,1.863,0.611,2.247,1.52c0.431,1.01,0.142,2.186-0.684,2.884
		c0.474,0.857,0.406,1.918-0.193,2.709c-0.473,0.633-1.2,0.996-1.994,0.996c0,0,0,0,0,0c-0.286,0-0.573-0.05-0.843-0.146
		C267.327,26.971,266.514,27.439,265.643,27.439z M263.629,24.856l0.021,0.25c0.079,0.939,0.812,1.702,1.744,1.813
		c0.87,0.113,1.675-0.355,2.042-1.117l0.108-0.225l0.226,0.106c0.264,0.124,0.558,0.189,0.85,0.189c0.634,0,1.214-0.29,1.591-0.794
		c0.518-0.684,0.539-1.618,0.054-2.326l-0.142-0.207l0.206-0.143c0.774-0.535,1.067-1.552,0.697-2.418
		c-0.332-0.784-1.131-1.272-1.983-1.207l-0.249,0.019l-0.021-0.249c-0.08-0.937-0.815-1.7-1.748-1.813
		c-0.861-0.105-1.674,0.355-2.038,1.115l-0.108,0.227l-0.227-0.107c-0.839-0.395-1.886-0.136-2.444,0.606
		c-0.517,0.685-0.538,1.62-0.053,2.326l0.143,0.208l-0.208,0.143c-0.772,0.531-1.066,1.547-0.7,2.417
		c0.333,0.783,1.131,1.271,1.987,1.208L263.629,24.856z"/>
	<path fill="#A9D5D6" d="M266.21,24.029c-0.885,0-1.681-0.526-2.028-1.341c-0.474-1.119,0.05-2.416,1.167-2.891
		c0.274-0.117,0.564-0.176,0.86-0.176c0.886,0,1.682,0.527,2.028,1.342c0.23,0.541,0.236,1.14,0.015,1.686
		c-0.221,0.546-0.641,0.974-1.184,1.204C266.796,23.969,266.506,24.029,266.21,24.029z M266.209,20.125
		c-0.228,0-0.451,0.045-0.663,0.135c-0.862,0.367-1.266,1.367-0.901,2.23c0.268,0.627,0.881,1.033,1.564,1.033
		c0.228,0,0.451-0.045,0.662-0.136c0.419-0.177,0.743-0.507,0.914-0.929c0.17-0.421,0.166-0.882-0.012-1.299
		C267.507,20.531,266.893,20.125,266.209,20.125z"/>
</g>
<g>
	<path fill="#A9D5D6" d="M180.48,39.468c-0.101,0-0.204-0.006-0.307-0.019c-1.09-0.133-1.961-0.972-2.153-2.035
		c-0.983-0.019-1.863-0.611-2.252-1.521c-0.428-1.013-0.138-2.187,0.686-2.884c-0.474-0.854-0.406-1.915,0.192-2.708
		c0.477-0.633,1.206-0.996,1.999-0.996c0.29,0,0.572,0.049,0.842,0.146c0.5-0.827,1.447-1.312,2.441-1.187
		c1.087,0.131,1.961,0.97,2.156,2.036c0.981,0.018,1.861,0.609,2.248,1.518c0.43,1.012,0.14,2.187-0.685,2.884
		c0.475,0.855,0.407,1.916-0.192,2.708c-0.474,0.632-1.2,0.996-1.993,0.996l0,0c-0.287,0-0.575-0.051-0.845-0.148
		C182.167,38.999,181.353,39.468,180.48,39.468z M178.471,36.885l0.021,0.25c0.076,0.937,0.81,1.699,1.743,1.813
		c0.854,0.1,1.675-0.357,2.042-1.12l0.108-0.226l0.227,0.107c0.838,0.398,1.885,0.139,2.44-0.603
		c0.517-0.685,0.538-1.618,0.053-2.324l-0.143-0.207l0.207-0.143c0.773-0.534,1.067-1.551,0.699-2.417
		c-0.334-0.783-1.128-1.279-1.984-1.206l-0.25,0.02l-0.021-0.25c-0.08-0.939-0.814-1.703-1.747-1.815
		c-0.868-0.111-1.674,0.354-2.039,1.114l-0.108,0.226l-0.227-0.106c-0.838-0.394-1.884-0.136-2.444,0.606
		c-0.516,0.685-0.537,1.618-0.052,2.324l0.142,0.207l-0.207,0.143c-0.772,0.534-1.066,1.551-0.7,2.418
		c0.335,0.784,1.14,1.271,1.989,1.208L178.471,36.885z"/>
	<path fill="#A9D5D6" d="M181.051,36.057c-1.215,0-2.203-0.988-2.203-2.203s0.988-2.203,2.203-2.203s2.203,0.988,2.203,2.203
		S182.266,36.057,181.051,36.057z M181.051,32.155c-0.937,0-1.699,0.762-1.699,1.699s0.762,1.699,1.699,1.699
		c0.937,0,1.699-0.762,1.699-1.699S181.988,32.155,181.051,32.155z"/>
</g>
<g>
	<path fill="#A9D5D6" d="M352.014,28.987c-3.046,0-6.093-1.16-8.413-3.479c-4.639-4.639-4.641-12.184-0.006-16.82l0.356,0.356
		c-4.438,4.44-4.436,11.666,0.006,16.107c4.441,4.44,11.666,4.442,16.106,0.004l0.356,0.356
		C358.103,27.828,355.059,28.987,352.014,28.987z"/>
	<path fill="#A9D5D6" d="M342.514,43.418l-0.356-0.356c2.152-2.152,3.337-5.014,3.336-8.058c0-3.043-1.185-5.903-3.336-8.054
		c-2.151-2.152-5.013-3.337-8.056-3.337h-0.001c-3.043,0-5.903,1.185-8.055,3.336l-0.356-0.356c2.246-2.247,5.233-3.484,8.411-3.484
		c0,0,0,0,0.001,0c3.178,0,6.166,1.238,8.412,3.485c2.247,2.245,3.484,5.232,3.484,8.41S344.761,41.17,342.514,43.418z"/>
	<path fill="#A9D5D6" d="M334.105,28.987c-3.046,0-6.093-1.16-8.413-3.479l0.356-0.356c4.442,4.441,11.667,4.444,16.106,0.003
		c2.153-2.152,3.338-5.013,3.337-8.056c0-3.042-1.186-5.903-3.339-8.054l0.356-0.356c2.248,2.247,3.486,5.233,3.487,8.411
		c0,3.178-1.237,6.165-3.485,8.413C340.195,27.828,337.15,28.987,334.105,28.987z"/>
	<path fill="#A9D5D6" d="M343.602,43.416c-4.639-4.639-4.641-12.185-0.004-16.821c2.247-2.248,5.234-3.485,8.41-3.485
		c0,0,0.001,0,0.002,0c3.176,0,6.164,1.239,8.413,3.487l-0.356,0.356c-2.153-2.153-5.014-3.339-8.056-3.339c0,0-0.001,0-0.002,0
		c-3.042,0-5.901,1.185-8.054,3.337c-4.44,4.44-4.438,11.666,0.004,16.108L343.602,43.416z"/>
</g>
<g>
	<path fill="#A9D5D6" d="M211.403,25.281c-6.561,0-11.898-5.333-11.898-11.89h0.504c0,6.278,5.111,11.386,11.394,11.386
		c6.282,0,11.392-5.108,11.392-11.386h0.504C223.299,19.947,217.962,25.281,211.403,25.281z"/>
	<path fill="#A9D5D6" d="M223.299,38.714h-0.504c0-6.282-5.11-11.394-11.392-11.394c-6.283,0-11.394,5.111-11.394,11.394h-0.504
		c0-6.561,5.337-11.897,11.898-11.897C217.962,26.817,223.299,32.154,223.299,38.714z"/>
	<path fill="#A9D5D6" d="M198.739,37.945v-0.504c6.281,0,11.391-5.108,11.391-11.388c0-6.281-5.11-11.392-11.391-11.392v-0.504
		c6.559,0,11.895,5.336,11.895,11.896C210.634,32.61,205.298,37.945,198.739,37.945z"/>
	<path fill="#A9D5D6" d="M224.067,37.944c-6.561,0-11.899-5.334-11.899-11.892c0-6.559,5.338-11.896,11.899-11.896v0.504
		c-6.283,0-11.395,5.11-11.395,11.392c0,6.279,5.112,11.388,11.395,11.388V37.944z"/>
</g>
<g>
	<path fill="#A9D5D6" d="M387.49,33.793c-0.141,0-0.283-0.008-0.426-0.025c-1.559-0.191-2.798-1.409-3.032-2.938
		c-0.007,0-0.013,0-0.02,0c-1.404,0-2.669-0.836-3.221-2.13c-0.614-1.444-0.179-3.126,1.031-4.094
		c-0.711-1.209-0.632-2.736,0.223-3.872c0.667-0.885,1.686-1.393,2.795-1.393c0.432,0,0.864,0.082,1.266,0.237
		c0.688-1.203,2.05-1.911,3.462-1.741c1.557,0.189,2.796,1.407,3.032,2.939c0.008,0,0.016,0,0.023,0
		c1.403,0,2.666,0.836,3.216,2.129c0.613,1.443,0.18,3.125-1.028,4.093c0.711,1.211,0.631,2.737-0.225,3.871
		c-0.667,0.885-1.686,1.393-2.795,1.393l0,0c-0.438,0-0.863-0.08-1.267-0.237C389.909,33.106,388.743,33.793,387.49,33.793z
		 M384.485,30.299l0.021,0.25c0.115,1.403,1.217,2.546,2.619,2.719c1.285,0.151,2.511-0.535,3.059-1.675l0.108-0.226l0.227,0.107
		c0.4,0.189,0.829,0.285,1.273,0.285c0.949,0,1.821-0.435,2.393-1.192c0.773-1.025,0.807-2.427,0.081-3.487l-0.142-0.207
		l0.206-0.143c1.158-0.803,1.599-2.328,1.045-3.627c-0.499-1.176-1.702-1.914-2.978-1.813l-0.25,0.019l-0.021-0.25
		c-0.117-1.407-1.219-2.551-2.619-2.721c-1.281-0.162-2.511,0.533-3.06,1.673l-0.109,0.226l-0.226-0.107
		c-0.4-0.189-0.828-0.285-1.272-0.285c-0.949,0-1.821,0.434-2.393,1.192c-0.772,1.027-0.805,2.43-0.079,3.489l0.142,0.207
		l-0.206,0.143c-1.161,0.802-1.602,2.327-1.049,3.626c0.502,1.176,1.69,1.916,2.98,1.815L384.485,30.299z"/>
	<path fill="#A9D5D6" d="M388.316,28.87c-1.691,0-3.067-1.376-3.067-3.068s1.376-3.068,3.067-3.068s3.067,1.376,3.067,3.068
		S390.007,28.87,388.316,28.87z M388.316,23.238c-1.413,0-2.563,1.15-2.563,2.564s1.15,2.564,2.563,2.564s2.563-1.15,2.563-2.564
		S389.729,23.238,388.316,23.238z"/>
</g>
<g>
	<path fill="#A9D5D6" d="M160.961,27.767c-0.142,0-0.285-0.008-0.429-0.026c-1.555-0.189-2.795-1.407-3.031-2.937
		c-0.007,0-0.013,0-0.02,0c-1.406,0-2.671-0.835-3.222-2.128c-0.613-1.443-0.178-3.126,1.029-4.095
		c-0.711-1.21-0.631-2.738,0.225-3.874c0.668-0.884,1.687-1.39,2.794-1.39c0.438,0,0.863,0.08,1.267,0.238
		c0.687-1.204,2.047-1.917,3.462-1.742c1.557,0.189,2.795,1.407,3.029,2.938c0.006,0,0.013,0,0.02,0
		c1.408,0,2.672,0.835,3.221,2.128c0.613,1.444,0.179,3.127-1.027,4.095c0.711,1.21,0.631,2.737-0.225,3.871
		c-0.665,0.884-1.683,1.391-2.792,1.391l0,0c-0.432,0-0.866-0.082-1.269-0.238C163.38,27.08,162.215,27.767,160.961,27.767z
		 M157.955,24.272l0.021,0.249c0.117,1.405,1.218,2.548,2.618,2.719c1.293,0.163,2.513-0.534,3.058-1.675l0.108-0.226l0.227,0.107
		c0.401,0.189,0.831,0.285,1.276,0.285l0,0c0.95,0,1.821-0.434,2.39-1.19c0.774-1.026,0.807-2.428,0.082-3.487l-0.142-0.207
		l0.206-0.143c1.157-0.802,1.596-2.329,1.045-3.629c-0.499-1.175-1.698-1.912-2.981-1.813l-0.25,0.019l-0.021-0.25
		c-0.115-1.406-1.215-2.549-2.616-2.719c-1.283-0.162-2.51,0.534-3.06,1.674l-0.108,0.226l-0.227-0.107
		c-0.4-0.189-0.829-0.286-1.273-0.286c-0.948,0-1.82,0.434-2.392,1.19c-0.774,1.028-0.806,2.431-0.081,3.49l0.142,0.207
		l-0.206,0.143c-1.158,0.804-1.598,2.33-1.046,3.629c0.5,1.175,1.693,1.915,2.981,1.813L157.955,24.272z"/>
	<path fill="#A9D5D6" d="M161.784,22.845c-1.692,0-3.069-1.377-3.069-3.069c0-1.692,1.377-3.068,3.069-3.068
		s3.069,1.376,3.069,3.068C164.853,21.468,163.477,22.845,161.784,22.845z M161.784,17.211c-1.415,0-2.565,1.15-2.565,2.564
		c0,1.415,1.151,2.565,2.565,2.565c1.414,0,2.565-1.151,2.565-2.565C164.349,18.362,163.198,17.211,161.784,17.211z"/>
</g>
<g>
	<g>
		<path fill="#A9D5D6" d="M289.857,38.82c-1.428,0-2.718-0.787-3.366-2.054c-0.122-0.223-0.398-0.346-0.654-0.278
			c-0.309,0.08-0.625,0.12-0.941,0.12c-1.534,0-2.937-0.95-3.509-2.371c-0.009-0.014-0.017-0.029-0.023-0.046
			c-0.694-1.81,0.081-3.841,1.804-4.725c0.005-0.002,0.009-0.005,0.014-0.007c0.22-0.132,0.326-0.394,0.259-0.646
			c-0.004-0.015-0.006-0.03-0.008-0.045c-0.445-1.824,0.514-3.695,2.249-4.401c0.018-0.014,0.039-0.026,0.061-0.035
			c0.434-0.165,0.887-0.249,1.348-0.249c1.428,0,2.72,0.789,3.374,2.059c0.12,0.218,0.4,0.343,0.649,0.275
			c0.011-0.003,0.022-0.005,0.033-0.007c0.299-0.075,0.606-0.113,0.914-0.113c1.541,0,2.948,0.956,3.518,2.385
			c0.006,0.01,0.011,0.021,0.016,0.033c0.697,1.808-0.079,3.838-1.806,4.723c-0.223,0.122-0.34,0.396-0.271,0.648
			c0.005,0.018,0.008,0.036,0.009,0.054c0.449,1.829-0.521,3.709-2.275,4.411c-0.011,0.007-0.023,0.012-0.035,0.017
			C290.777,38.735,290.321,38.82,289.857,38.82z M285.983,35.964c0.397,0,0.762,0.217,0.954,0.565
			c0.565,1.104,1.683,1.786,2.92,1.786c0.385,0,0.765-0.068,1.129-0.201c0.01-0.005,0.02-0.01,0.031-0.014
			c1.561-0.6,2.424-2.268,2.006-3.88c-0.004-0.018-0.007-0.035-0.008-0.053c-0.1-0.46,0.119-0.947,0.535-1.174
			c1.489-0.763,2.163-2.498,1.586-4.054c-0.005-0.009-0.01-0.02-0.014-0.03c-0.483-1.26-1.715-2.106-3.064-2.106
			c-0.274,0-0.548,0.035-0.815,0.104c-0.01,0.002-0.02,0.004-0.03,0.006c-0.465,0.111-0.966-0.113-1.196-0.533
			c-0.57-1.107-1.691-1.791-2.929-1.791c-0.375,0-0.744,0.064-1.099,0.19c-0.017,0.012-0.035,0.022-0.055,0.03
			c-1.557,0.596-2.418,2.264-2.004,3.879c0.004,0.015,0.006,0.03,0.007,0.045c0.103,0.471-0.114,0.951-0.538,1.182
			c-0.01,0.005-0.02,0.01-0.03,0.013c-1.458,0.764-2.12,2.481-1.558,4.027c0.008,0.013,0.015,0.027,0.021,0.042
			c0.483,1.26,1.714,2.107,3.062,2.107c0.274,0,0.548-0.035,0.814-0.104C285.798,35.976,285.891,35.964,285.983,35.964z"/>
		<path fill="#A9D5D6" d="M287.455,36.325c-0.361,0-0.712-0.075-1.045-0.223c-0.012-0.006-0.024-0.012-0.035-0.019
			c-1.167-0.541-1.751-1.853-1.372-3.083c0.002-0.009,0.004-0.019,0.007-0.028c0.04-0.13-0.014-0.267-0.132-0.333
			c-0.011-0.006-0.022-0.014-0.032-0.022c-1.086-0.665-1.524-2.024-1.034-3.196c0.004-0.016,0.009-0.031,0.015-0.045
			c0.414-0.928,1.337-1.527,2.354-1.527c0.267,0,0.532,0.042,0.787,0.123c0.097,0.029,0.262-0.024,0.332-0.14
			c0.461-0.779,1.311-1.263,2.218-1.263c0.342,0,0.676,0.068,0.993,0.201c0.015,0.003,0.03,0.008,0.045,0.015
			c1.204,0.538,1.809,1.888,1.406,3.139c-0.036,0.126,0.018,0.261,0.136,0.329c0.017,0.01,0.033,0.021,0.047,0.035
			c1.08,0.667,1.51,2.024,1.013,3.196c-0.003,0.011-0.007,0.022-0.012,0.034c-0.414,0.928-1.338,1.528-2.355,1.528
			c-0.266,0-0.529-0.042-0.783-0.123c-0.108-0.034-0.266,0.02-0.331,0.134C289.21,35.84,288.361,36.325,287.455,36.325z
			 M286.652,35.657c0.933,0.394,2.073,0.011,2.586-0.855c0.177-0.309,0.567-0.467,0.917-0.362c0.992,0.317,2.081-0.175,2.512-1.093
			c0.003-0.009,0.006-0.019,0.01-0.028c0.43-0.964,0.069-2.093-0.837-2.626c-0.017-0.01-0.033-0.022-0.047-0.036
			c-0.283-0.192-0.412-0.545-0.314-0.88c0.321-0.998-0.146-2.064-1.083-2.511c-0.013-0.003-0.026-0.008-0.039-0.014
			c-0.938-0.42-2.105-0.039-2.624,0.836c-0.186,0.31-0.571,0.465-0.913,0.364c-0.998-0.318-2.076,0.168-2.51,1.082
			c-0.003,0.013-0.008,0.025-0.013,0.038c-0.427,0.96-0.067,2.09,0.836,2.628c0.009,0.005,0.017,0.011,0.025,0.017
			c0.292,0.182,0.431,0.526,0.347,0.861c-0.002,0.014-0.005,0.028-0.01,0.042c-0.326,1.009,0.159,2.093,1.127,2.521
			C286.632,35.646,286.643,35.651,286.652,35.657z"/>
	</g>
	<g>
		<path fill="#A9D5D6" d="M286.91,38.739c-0.514,0-1.015-0.104-1.49-0.308c-0.013-0.003-0.025-0.007-0.037-0.013
			c-1.774-0.787-2.663-2.771-2.065-4.615c0.001-0.003,0.002-0.006,0.003-0.01c0.065-0.25-0.046-0.514-0.274-0.647
			c-0.012-0.007-0.022-0.015-0.033-0.023c-1.605-0.971-2.252-2.972-1.525-4.701c0.002-0.023,0.009-0.047,0.019-0.07
			c0.612-1.362,1.971-2.242,3.461-2.242c0.394,0,0.784,0.062,1.159,0.183c0.21,0.059,0.524-0.044,0.651-0.266
			c0.006-0.011,0.013-0.021,0.021-0.03c0.681-1.131,1.921-1.833,3.245-1.833c0.513,0,1.013,0.104,1.487,0.307
			c0.014,0.003,0.027,0.008,0.041,0.014c1.769,0.789,2.656,2.772,2.064,4.615c-0.075,0.25,0.034,0.521,0.266,0.653
			c0.012,0.006,0.022,0.014,0.032,0.021c1.621,0.978,2.269,3.004,1.517,4.746c-0.002,0.008-0.006,0.017-0.009,0.025
			c-0.606,1.366-1.964,2.249-3.459,2.249c-0.392,0-0.78-0.061-1.154-0.182c-0.224-0.062-0.529,0.042-0.661,0.268
			C289.491,38.027,288.242,38.739,286.91,38.739z M285.628,37.972c0.409,0.174,0.84,0.263,1.282,0.263
			c1.155,0,2.237-0.617,2.826-1.61c0.246-0.419,0.773-0.631,1.244-0.493c0.33,0.106,0.666,0.159,1.005,0.159
			c1.283,0,2.449-0.75,2.982-1.914c0.002-0.007,0.005-0.014,0.008-0.021c0.679-1.526,0.11-3.316-1.325-4.164
			c-0.01-0.006-0.019-0.012-0.028-0.019c-0.415-0.255-0.606-0.752-0.466-1.222c0.51-1.585-0.238-3.286-1.739-3.983
			c-0.013-0.003-0.025-0.007-0.037-0.013c-0.424-0.189-0.873-0.286-1.334-0.286c-1.156,0-2.24,0.617-2.827,1.611
			c-0.005,0.009-0.011,0.018-0.018,0.027c-0.246,0.401-0.757,0.601-1.219,0.469c-1.571-0.506-3.289,0.266-3.981,1.714
			c-0.003,0.021-0.009,0.042-0.018,0.062c-0.68,1.525-0.111,3.312,1.323,4.159c0.013,0.007,0.024,0.016,0.035,0.025
			c0.408,0.262,0.596,0.757,0.458,1.22c-0.002,0.009-0.005,0.017-0.009,0.025c-0.499,1.576,0.252,3.265,1.753,3.957
			c0.007,0.002,0.015,0.004,0.021,0.007C285.587,37.951,285.608,37.96,285.628,37.972z"/>
		<path fill="#A9D5D6" d="M289.387,36.369c-0.971,0-1.848-0.536-2.29-1.397c-0.002-0.004-0.004-0.008-0.006-0.011
			c-0.065-0.105-0.197-0.158-0.318-0.124c-0.015,0.004-0.03,0.007-0.046,0.008c-1.21,0.29-2.512-0.383-2.981-1.526
			c-0.01-0.015-0.018-0.03-0.024-0.047c-0.47-1.231,0.058-2.612,1.228-3.211c0.112-0.061,0.169-0.2,0.134-0.334
			c-0.002-0.011-0.005-0.021-0.006-0.033c-0.304-1.243,0.352-2.518,1.538-2.996c0.01-0.005,0.02-0.01,0.031-0.014
			c0.297-0.114,0.607-0.171,0.923-0.171c0.974,0,1.851,0.535,2.289,1.396c0.062,0.113,0.2,0.174,0.328,0.138
			c0.018-0.005,0.035-0.007,0.052-0.008c1.22-0.295,2.536,0.399,2.994,1.566c0.001,0.002,0.002,0.005,0.003,0.007
			c0.473,1.229-0.053,2.609-1.224,3.212c-0.115,0.062-0.174,0.199-0.139,0.332c0.326,1.267-0.349,2.575-1.57,3.045
			c-0.008,0.003-0.016,0.006-0.025,0.008C289.991,36.315,289.691,36.369,289.387,36.369z M287.558,34.767
			c0.472,0.89,1.618,1.328,2.569,0.959c0.007-0.003,0.015-0.005,0.022-0.007c0.965-0.387,1.495-1.429,1.235-2.436
			c-0.095-0.359,0.066-0.732,0.393-0.906c0.941-0.484,1.364-1.587,0.992-2.572c-0.001-0.001-0.001-0.003-0.002-0.004
			c-0.368-0.958-1.451-1.52-2.449-1.264c-0.017,0.004-0.034,0.007-0.051,0.008c-0.336,0.064-0.688-0.097-0.854-0.402
			c-0.355-0.697-1.061-1.126-1.843-1.126c-0.242,0-0.479,0.042-0.708,0.125c-0.008,0.004-0.016,0.008-0.025,0.011
			c-0.982,0.376-1.525,1.429-1.263,2.447c0.003,0.012,0.005,0.024,0.006,0.036c0.074,0.348-0.085,0.702-0.395,0.871
			c-0.931,0.477-1.356,1.559-1.011,2.536c0.008,0.013,0.015,0.026,0.02,0.041c0.367,0.956,1.454,1.517,2.447,1.264
			c0.013-0.003,0.026-0.006,0.039-0.007c0.342-0.074,0.703,0.093,0.867,0.403C287.551,34.751,287.555,34.759,287.558,34.767z"/>
	</g>
</g>
<g>
	<path fill="#A9D5D6" d="M245.06,37.346c-1.356,0-2.584-0.809-3.127-2.035c-0.294,0.081-0.597,0.122-0.905,0.122
		c-1.06,0-2.041-0.477-2.692-1.309c-0.947-1.202-0.967-2.899-0.075-4.123c-0.978-0.962-1.291-2.422-0.772-3.708
		c0.567-1.417,2.008-2.291,3.536-2.128c0.346-1.327,1.455-2.327,2.826-2.521c1.536-0.22,3.002,0.627,3.609,1.998
		c0.295-0.081,0.599-0.122,0.907-0.122c1.06,0,2.041,0.477,2.692,1.308c0.945,1.207,0.964,2.904,0.074,4.125
		c0.977,0.962,1.29,2.422,0.773,3.709c-0.525,1.304-1.771,2.146-3.176,2.146l0,0c-0.121,0-0.241-0.006-0.361-0.02
		c-0.347,1.329-1.455,2.33-2.826,2.525C245.38,37.335,245.219,37.346,245.06,37.346z M242.231,34.68l0.085,0.235
		c0.461,1.281,1.768,2.092,3.155,1.897c1.237-0.176,2.223-1.122,2.455-2.354l0.046-0.246l0.246,0.044
		c0.168,0.03,0.341,0.045,0.512,0.045c1.197,0,2.26-0.718,2.708-1.829c0.466-1.162,0.14-2.489-0.812-3.302l-0.19-0.163l0.162-0.191
		c0.886-1.048,0.913-2.596,0.064-3.679c-0.556-0.708-1.393-1.114-2.296-1.114c-0.332,0-0.658,0.056-0.97,0.166l-0.236,0.083
		l-0.085-0.236c-0.46-1.28-1.769-2.093-3.154-1.895c-1.237,0.175-2.223,1.12-2.454,2.352l-0.046,0.246l-0.247-0.044
		c-0.168-0.03-0.341-0.046-0.512-0.046c-1.198,0-2.26,0.719-2.706,1.831c-0.467,1.161-0.142,2.487,0.811,3.3l0.191,0.163
		l-0.162,0.191c-0.888,1.052-0.914,2.598-0.063,3.677c0.555,0.709,1.391,1.116,2.295,1.116c0.332,0,0.657-0.056,0.968-0.165
		L242.231,34.68z"/>
	<path fill="#A9D5D6" d="M243.432,34.493c-0.3,0-0.594-0.057-0.875-0.17c-0.948-0.382-1.537-1.347-1.465-2.354
		c-0.875-0.254-1.529-1-1.66-1.92c-0.145-1.018,0.395-2.009,1.302-2.446c-0.214-0.886,0.104-1.826,0.833-2.398
		c0.792-0.62,1.954-0.649,2.773-0.091c0.649-0.62,1.648-0.822,2.496-0.479c0.95,0.382,1.538,1.347,1.463,2.353
		c0.88,0.257,1.535,1.003,1.661,1.922c0.146,1.016-0.396,2.007-1.305,2.444c0.215,0.886-0.103,1.826-0.831,2.399
		c-0.791,0.622-1.952,0.653-2.773,0.093C244.618,34.259,244.04,34.493,243.432,34.493z M243.015,25.21
		c-0.416,0-0.809,0.135-1.136,0.392c-0.622,0.488-0.863,1.317-0.601,2.062l0.083,0.236l-0.235,0.085
		c-0.814,0.293-1.316,1.131-1.194,1.993c0.112,0.785,0.708,1.408,1.484,1.55l0.246,0.045l-0.043,0.246
		c-0.15,0.856,0.324,1.713,1.127,2.036c0.726,0.293,1.583,0.077,2.086-0.512l0.163-0.191l0.191,0.162
		c0.647,0.546,1.656,0.569,2.327,0.041c0.621-0.489,0.862-1.318,0.599-2.063l-0.083-0.237l0.236-0.084
		c0.816-0.293,1.319-1.13,1.196-1.992c-0.108-0.783-0.705-1.406-1.486-1.551l-0.246-0.046l0.044-0.247
		c0.153-0.854-0.321-1.709-1.126-2.033c-0.725-0.293-1.584-0.076-2.087,0.513l-0.163,0.191l-0.191-0.162
		C243.875,25.364,243.452,25.21,243.015,25.21z"/>
	<path fill="#A9D5D6" d="M244.696,31.549c-1.142,0-2.071-0.929-2.071-2.071c0-1.142,0.929-2.07,2.071-2.07s2.071,0.929,2.071,2.07
		C246.767,30.62,245.838,31.549,244.696,31.549z M244.696,27.911c-0.864,0-1.567,0.703-1.567,1.566c0,0.864,0.703,1.567,1.567,1.567
		c0.864,0,1.567-0.703,1.567-1.567C246.263,28.614,245.56,27.911,244.696,27.911z"/>
</g>
<g>
	<path fill="#A9D5D6" d="M303.534,25.607c-0.102,0-0.205-0.006-0.309-0.019c-1.089-0.132-1.96-0.971-2.152-2.036
		c-0.984-0.019-1.864-0.611-2.25-1.52c-0.43-1.012-0.141-2.187,0.684-2.883c-0.472-0.857-0.405-1.918,0.19-2.708
		c0.48-0.634,1.209-0.998,2-0.998c0.291,0,0.573,0.049,0.843,0.146c0.498-0.826,1.449-1.31,2.441-1.188
		c1.089,0.135,1.962,0.974,2.157,2.034c0.982,0.02,1.86,0.612,2.247,1.52c0.431,1.011,0.141,2.187-0.683,2.884
		c0.473,0.858,0.405,1.92-0.191,2.71c-0.475,0.633-1.203,0.996-1.997,0.996c0,0,0,0,0,0c-0.287,0-0.574-0.05-0.844-0.147
		C305.222,25.14,304.408,25.607,303.534,25.607z M301.524,23.024l0.021,0.25c0.077,0.938,0.809,1.701,1.742,1.814
		c0.861,0.113,1.678-0.355,2.042-1.117l0.108-0.226l0.227,0.107c0.839,0.396,1.887,0.137,2.445-0.605
		c0.515-0.683,0.536-1.617,0.052-2.327l-0.141-0.207l0.206-0.143c0.772-0.534,1.065-1.551,0.696-2.417
		c-0.333-0.782-1.125-1.269-1.984-1.208l-0.249,0.019l-0.021-0.249c-0.08-0.935-0.814-1.697-1.748-1.813
		c-0.852-0.103-1.675,0.355-2.037,1.116l-0.108,0.227l-0.227-0.107c-0.839-0.395-1.885-0.137-2.448,0.607
		c-0.513,0.681-0.534,1.616-0.051,2.325l0.141,0.208l-0.206,0.142c-0.772,0.533-1.065,1.549-0.697,2.417
		c0.333,0.784,1.138,1.276,1.987,1.208L301.524,23.024z"/>
	<path fill="#A9D5D6" d="M304.104,22.197c-0.885,0-1.682-0.526-2.03-1.341c-0.473-1.119,0.05-2.415,1.166-2.889
		c0.275-0.117,0.565-0.177,0.862-0.177c0.887,0,1.683,0.526,2.027,1.341c0.23,0.541,0.236,1.14,0.016,1.686s-0.639,0.973-1.18,1.203
		C304.691,22.137,304.401,22.197,304.104,22.197z M304.102,18.295c-0.229,0-0.452,0.046-0.665,0.136
		c-0.86,0.366-1.264,1.365-0.899,2.228c0.357,0.837,1.383,1.259,2.23,0.897c0.417-0.177,0.739-0.506,0.909-0.927
		s0.165-0.883-0.013-1.301C305.399,18.7,304.786,18.295,304.102,18.295z"/>
</g>
<g>
	<path fill="#A9D5D6" d="M336.431,155.937c-0.102,0-0.205-0.007-0.308-0.02c-1.09-0.133-1.962-0.972-2.155-2.036
		c-0.984-0.02-1.862-0.611-2.247-1.52c-0.433-1.011-0.144-2.186,0.683-2.884c-0.473-0.854-0.406-1.915,0.19-2.708
		c0.475-0.633,1.202-0.996,1.995-0.996c0.287,0,0.575,0.051,0.845,0.147c0.502-0.828,1.45-1.314,2.445-1.19
		c1.088,0.133,1.96,0.972,2.154,2.036c0.983,0.019,1.863,0.61,2.251,1.52c0.428,1.013,0.137,2.188-0.687,2.884
		c0.475,0.855,0.407,1.916-0.192,2.709c-0.476,0.633-1.204,0.997-1.997,0.997c-0.286,0-0.574-0.051-0.843-0.147
		C338.117,155.469,337.303,155.937,336.431,155.937z M334.418,153.353l0.021,0.25c0.077,0.938,0.811,1.7,1.745,1.814
		c0.856,0.103,1.675-0.355,2.039-1.117l0.108-0.226l0.227,0.107c0.264,0.124,0.558,0.189,0.85,0.189c0.633,0,1.214-0.29,1.594-0.796
		c0.517-0.684,0.538-1.617,0.053-2.324l-0.142-0.207l0.207-0.143c0.772-0.533,1.066-1.551,0.7-2.419
		c-0.334-0.783-1.13-1.276-1.987-1.207l-0.25,0.02l-0.021-0.249c-0.079-0.938-0.812-1.701-1.745-1.815
		c-0.855-0.102-1.676,0.357-2.043,1.119l-0.108,0.226l-0.227-0.107c-0.263-0.124-0.557-0.19-0.85-0.19
		c-0.632,0-1.212,0.29-1.591,0.795c-0.515,0.685-0.536,1.618-0.052,2.324l0.142,0.207l-0.207,0.143
		c-0.773,0.535-1.066,1.552-0.696,2.417c0.332,0.785,1.123,1.27,1.984,1.209L334.418,153.353z"/>
	<path fill="#A9D5D6" d="M337.001,152.527c-1.214,0-2.202-0.987-2.202-2.201s0.988-2.202,2.202-2.202s2.202,0.988,2.202,2.202
		S338.215,152.527,337.001,152.527z M337.001,148.627c-0.937,0-1.698,0.762-1.698,1.698c0,0.936,0.762,1.697,1.698,1.697
		s1.698-0.762,1.698-1.697C338.699,149.389,337.938,148.627,337.001,148.627z"/>
</g>
<g>
	<path fill="#A9D5D6" d="M486.745,151.543c-0.102,0-0.205-0.007-0.309-0.02c-1.089-0.134-1.963-0.972-2.157-2.035
		c-0.98-0.019-1.86-0.61-2.248-1.518c-0.43-1.016-0.139-2.19,0.687-2.886c-0.475-0.855-0.407-1.917,0.191-2.71
		c0.475-0.633,1.201-0.995,1.994-0.995c0.287,0,0.574,0.051,0.844,0.147c0.503-0.828,1.452-1.309,2.445-1.188
		c1.087,0.13,1.959,0.968,2.151,2.033c0.984,0.019,1.864,0.611,2.252,1.521c0.43,1.012,0.139,2.186-0.687,2.882
		c0.475,0.856,0.408,1.917-0.189,2.709c-0.478,0.635-1.206,0.998-1.999,0.998c-0.291,0-0.574-0.049-0.844-0.146
		C488.431,151.076,487.619,151.543,486.745,151.543z M484.729,148.96l0.021,0.249c0.079,0.937,0.814,1.699,1.748,1.814
		c0.864,0.104,1.676-0.355,2.037-1.115l0.107-0.227l0.228,0.106c0.837,0.394,1.886,0.137,2.447-0.606
		c0.516-0.684,0.535-1.618,0.05-2.325l-0.143-0.207l0.208-0.144c0.773-0.532,1.067-1.548,0.699-2.415
		c-0.335-0.785-1.139-1.279-1.988-1.21l-0.25,0.02l-0.021-0.25c-0.078-0.938-0.811-1.699-1.742-1.812
		c-0.858-0.097-1.676,0.355-2.043,1.117l-0.109,0.226l-0.227-0.107c-0.263-0.124-0.556-0.19-0.849-0.19
		c-0.633,0-1.213,0.289-1.592,0.794c-0.517,0.686-0.537,1.62-0.052,2.326l0.143,0.208l-0.208,0.143
		c-0.772,0.531-1.067,1.549-0.699,2.418c0.334,0.782,1.123,1.277,1.984,1.207L484.729,148.96z"/>
	<path fill="#A9D5D6" d="M487.312,148.134c-0.885,0-1.681-0.526-2.026-1.341c-0.475-1.118,0.049-2.414,1.167-2.89
		c0.274-0.116,0.563-0.176,0.859-0.176c0.884,0,1.681,0.526,2.029,1.34c0.23,0.544,0.235,1.144,0.015,1.69
		c-0.221,0.545-0.642,0.971-1.184,1.2C487.898,148.074,487.609,148.134,487.312,148.134z M487.312,144.232
		c-0.228,0-0.45,0.046-0.662,0.136c-0.862,0.367-1.266,1.366-0.899,2.229c0.266,0.628,0.879,1.034,1.562,1.034
		c0.229,0,0.452-0.046,0.664-0.137c0.418-0.177,0.742-0.505,0.912-0.925c0.171-0.422,0.167-0.884-0.011-1.303
		C488.609,144.638,487.995,144.232,487.312,144.232z"/>
</g>
<g>
	<path fill="#A9D5D6" d="M409.927,159.071l-0.357-0.357c4.439-4.438,4.437-11.665-0.006-16.107c-2.15-2.151-5.01-3.336-8.053-3.337
		c-0.001,0-0.003,0-0.004,0c-3.041,0-5.898,1.183-8.047,3.332l-0.357-0.357c2.244-2.243,5.229-3.479,8.404-3.479
		c0.001,0,0.003,0,0.004,0c3.178,0.001,6.164,1.239,8.41,3.484C414.56,146.889,414.562,154.435,409.927,159.071z"/>
	<path fill="#A9D5D6" d="M419.422,144.641c-3.047,0-6.094-1.159-8.414-3.478c-4.639-4.64-4.64-12.186-0.003-16.823l0.357,0.357
		c-4.44,4.439-4.439,11.666,0.002,16.108c4.443,4.441,11.674,4.441,16.113,0l0.357,0.357
		C425.516,143.482,422.469,144.641,419.422,144.641z"/>
	<path fill="#A9D5D6" d="M411.009,159.07c-4.638-4.638-4.638-12.186,0-16.824c4.639-4.634,12.186-4.632,16.822,0.003l-0.357,0.357
		c-4.44-4.44-11.666-4.443-16.108-0.003c-4.44,4.441-4.44,11.669,0.001,16.109L411.009,159.07z"/>
	<path fill="#A9D5D6" d="M401.516,144.64c-3.047,0-6.095-1.159-8.415-3.479l0.356-0.357c4.444,4.44,11.672,4.443,16.112,0.001
		c2.151-2.15,3.336-5.011,3.335-8.054c-0.002-3.042-1.188-5.902-3.341-8.054l0.356-0.357c2.248,2.247,3.487,5.234,3.488,8.411
		s-1.235,6.164-3.481,8.411C407.608,143.481,404.562,144.64,401.516,144.64z"/>
</g>
<g>
	<path fill="#A9D5D6" d="M554.018,154.366h-0.504c0-6.279-5.11-11.388-11.393-11.388s-11.393,5.108-11.393,11.388h-0.504
		c0-6.558,5.337-11.892,11.896-11.892S554.018,147.809,554.018,154.366z"/>
	<path fill="#A9D5D6" d="M542.122,140.938c-6.561,0-11.898-5.336-11.898-11.896h0.504c0,6.281,5.111,11.392,11.395,11.392
		c6.282,0,11.393-5.11,11.393-11.392h0.504C554.018,135.602,548.681,140.938,542.122,140.938z"/>
	<path fill="#A9D5D6" d="M554.784,153.599c-6.56,0-11.896-5.336-11.896-11.896c0-6.559,5.337-11.894,11.896-11.894v0.504
		c-6.282,0-11.393,5.109-11.393,11.39c0,6.281,5.11,11.392,11.393,11.392V153.599z"/>
	<path fill="#A9D5D6" d="M529.458,153.6v-0.504c6.282,0,11.393-5.11,11.393-11.392c0-6.28-5.11-11.39-11.393-11.39v-0.504
		c6.56,0,11.896,5.335,11.896,11.894C541.354,148.264,536.017,153.6,529.458,153.6z"/>
</g>
<g>
	<path fill="#A9D5D6" d="M163.601,154.366h-0.504c0-6.279-5.111-11.388-11.394-11.388c-6.282,0-11.392,5.108-11.392,11.388h-0.504
		c0-6.558,5.336-11.892,11.896-11.892C158.264,142.475,163.601,147.809,163.601,154.366z"/>
	<path fill="#A9D5D6" d="M151.702,140.938c-6.56,0-11.896-5.336-11.896-11.896h0.504c0,6.281,5.11,11.392,11.392,11.392
		c6.283,0,11.394-5.11,11.394-11.392h0.504C163.6,135.602,158.263,140.938,151.702,140.938z"/>
	<path fill="#A9D5D6" d="M164.365,153.599c-6.559,0-11.894-5.336-11.894-11.896c0-6.559,5.335-11.894,11.894-11.894v0.504
		c-6.28,0-11.39,5.109-11.39,11.39c0,6.281,5.11,11.392,11.39,11.392V153.599z"/>
	<path fill="#A9D5D6" d="M139.038,153.6v-0.504c6.283,0,11.394-5.11,11.394-11.392c0-6.28-5.111-11.39-11.394-11.39v-0.504
		c6.561,0,11.898,5.335,11.898,11.894C150.936,148.264,145.599,153.6,139.038,153.6z"/>
</g>
<g>
	<path fill="#A9D5D6" d="M364.382,149.947c-0.141,0-0.283-0.009-0.426-0.026c-1.557-0.19-2.796-1.408-3.031-2.939
		c-0.006,0-0.013,0-0.02,0c-1.407,0-2.671-0.835-3.221-2.128c-0.613-1.443-0.178-3.126,1.029-4.095
		c-0.712-1.209-0.633-2.735,0.221-3.871c0.667-0.885,1.687-1.393,2.797-1.393c0.438,0,0.863,0.079,1.266,0.236
		c0.685-1.204,2.042-1.914,3.463-1.741c1.558,0.19,2.797,1.408,3.029,2.938c0.006,0,0.012,0,0.018,0
		c1.408,0,2.673,0.835,3.223,2.128c0.611,1.444,0.177,3.127-1.029,4.096c0.71,1.207,0.63,2.734-0.222,3.873
		c-0.668,0.885-1.687,1.392-2.795,1.392c-0.438,0-0.864-0.08-1.267-0.237C366.8,149.26,365.633,149.947,364.382,149.947z
		 M361.379,146.449l0.021,0.25c0.115,1.404,1.216,2.549,2.617,2.721c1.285,0.156,2.51-0.534,3.059-1.675l0.108-0.226l0.227,0.107
		c0.4,0.188,0.829,0.285,1.273,0.285c0.949,0,1.821-0.435,2.393-1.191c0.771-1.029,0.803-2.432,0.079-3.488l-0.142-0.207
		l0.206-0.143c1.157-0.803,1.597-2.33,1.047-3.63c-0.5-1.174-1.699-1.898-2.981-1.813l-0.25,0.019l-0.021-0.249
		c-0.113-1.404-1.213-2.548-2.616-2.72c-1.287-0.151-2.513,0.534-3.059,1.674l-0.108,0.227l-0.227-0.107
		c-0.4-0.188-0.829-0.284-1.273-0.284c-0.951,0-1.823,0.435-2.395,1.191c-0.772,1.028-0.804,2.43-0.078,3.487l0.142,0.207
		l-0.207,0.143c-1.159,0.803-1.599,2.329-1.047,3.629c0.5,1.175,1.695,1.894,2.981,1.813L361.379,146.449z"/>
	<path fill="#A9D5D6" d="M365.208,145.023c-1.692,0-3.069-1.376-3.069-3.068s1.376-3.069,3.069-3.069s3.069,1.377,3.069,3.069
		S366.9,145.023,365.208,145.023z M365.208,139.389c-1.414,0-2.565,1.151-2.565,2.565s1.151,2.564,2.565,2.564
		s2.565-1.15,2.565-2.564S366.622,139.389,365.208,139.389z"/>
</g>
<g>
	<path fill="#A9D5D6" d="M590.917,155.972c-0.143,0-0.287-0.009-0.433-0.027c-1.554-0.187-2.794-1.403-3.029-2.937
		c-0.006,0-0.012,0-0.017,0h-0.001c-1.407,0-2.672-0.836-3.223-2.13c-0.612-1.445-0.178-3.127,1.029-4.093
		c-0.708-1.212-0.628-2.738,0.225-3.872c0.665-0.886,1.683-1.394,2.793-1.394c0.438,0,0.865,0.08,1.27,0.237
		c0.682-1.202,2.035-1.913,3.46-1.741c1.558,0.19,2.797,1.408,3.03,2.938c0.006,0,0.011,0,0.016,0c1.41,0,2.676,0.835,3.227,2.128
		c0.612,1.445,0.178,3.128-1.029,4.096c0.71,1.208,0.63,2.735-0.225,3.871c-0.667,0.886-1.686,1.394-2.795,1.394
		c-0.432,0-0.864-0.082-1.265-0.238C593.333,155.285,592.167,155.972,590.917,155.972z M587.909,152.478l0.021,0.249
		c0.117,1.406,1.218,2.55,2.617,2.718c1.286,0.16,2.512-0.532,3.063-1.673l0.108-0.226l0.226,0.107
		c0.399,0.188,0.827,0.284,1.271,0.284c0.949,0,1.821-0.435,2.393-1.191c0.773-1.028,0.806-2.43,0.081-3.488l-0.142-0.207
		l0.206-0.143c1.158-0.802,1.598-2.328,1.046-3.629c-0.499-1.174-1.699-1.897-2.981-1.813l-0.249,0.019l-0.021-0.249
		c-0.115-1.404-1.216-2.548-2.617-2.72c-1.285-0.158-2.514,0.534-3.057,1.674l-0.108,0.227l-0.227-0.106
		c-0.402-0.189-0.832-0.286-1.277-0.286c-0.95,0-1.821,0.435-2.391,1.192c-0.771,1.026-0.804,2.429-0.081,3.49l0.142,0.207
		l-0.206,0.142c-1.158,0.801-1.598,2.325-1.046,3.626c0.5,1.176,1.707,1.898,2.979,1.815L587.909,152.478z"/>
	<path fill="#A9D5D6" d="M591.74,151.05c-1.232,0-2.341-0.733-2.825-1.869c-0.659-1.557,0.068-3.361,1.624-4.023
		c0.383-0.163,0.787-0.246,1.2-0.246c1.231,0,2.34,0.733,2.824,1.869c0.321,0.756,0.329,1.591,0.021,2.353
		c-0.308,0.759-0.891,1.352-1.645,1.67C592.558,150.966,592.154,151.05,591.74,151.05z M591.739,145.416
		c-0.345,0-0.683,0.069-1.003,0.205c-1.3,0.554-1.908,2.062-1.356,3.362c0.403,0.948,1.33,1.562,2.36,1.562
		c0.345,0,0.683-0.069,1.003-0.206c0.63-0.267,1.117-0.762,1.374-1.396c0.257-0.636,0.251-1.334-0.019-1.966
		C593.695,146.03,592.768,145.416,591.739,145.416z"/>
</g>
<g>
	<path fill="#A9D5D6" d="M184.984,153.322c-0.729,0-1.42-0.318-1.892-0.863c-0.375,0.213-0.796,0.323-1.232,0.323l0,0
		c-0.534,0-1.046-0.168-1.479-0.485c-0.886-0.651-1.234-1.811-0.878-2.833c-0.843-0.493-1.325-1.44-1.213-2.428
		c0.121-1.091,0.949-1.972,2.01-2.176c0.01-0.979,0.59-1.871,1.498-2.268c0.991-0.434,2.196-0.146,2.892,0.655
		c0.832-0.474,1.923-0.417,2.711,0.162c0.885,0.653,1.233,1.812,0.877,2.831c0.842,0.494,1.325,1.441,1.215,2.428
		c-0.122,1.092-0.952,1.975-2.014,2.179c-0.008,0.977-0.586,1.867-1.495,2.265C185.666,153.251,185.33,153.322,184.984,153.322z
		 M183.21,151.775l0.145,0.203c0.533,0.75,1.575,1.046,2.426,0.672c0.784-0.343,1.26-1.146,1.185-1.997l-0.022-0.25l0.25-0.023
		c0.938-0.088,1.693-0.831,1.797-1.767c0.095-0.852-0.363-1.666-1.139-2.026l-0.228-0.105l0.105-0.229
		c0.394-0.853,0.13-1.877-0.628-2.437c-0.681-0.499-1.642-0.507-2.325-0.028l-0.205,0.145l-0.145-0.205
		c-0.532-0.749-1.577-1.048-2.426-0.673c-0.783,0.343-1.261,1.147-1.189,2.002l0.021,0.249l-0.249,0.023
		c-0.936,0.087-1.69,0.828-1.793,1.763c-0.096,0.853,0.361,1.667,1.137,2.026l0.229,0.105l-0.105,0.229
		c-0.395,0.855-0.13,1.881,0.628,2.438c0.346,0.254,0.755,0.388,1.181,0.388l0,0c0.413,0,0.808-0.124,1.145-0.36L183.21,151.775z"/>
	<path fill="#A9D5D6" d="M183.889,150.055c-0.473,0-0.924-0.149-1.306-0.43c-0.977-0.721-1.186-2.103-0.468-3.081
		c0.414-0.561,1.077-0.896,1.775-0.896c0.473,0,0.924,0.148,1.306,0.43c0.474,0.348,0.784,0.859,0.873,1.441
		s-0.056,1.164-0.407,1.639C185.251,149.719,184.588,150.055,183.889,150.055z M183.891,146.154c-0.539,0-1.05,0.258-1.369,0.689
		c-0.554,0.755-0.392,1.82,0.361,2.376c0.729,0.537,1.842,0.366,2.373-0.359c0.271-0.367,0.382-0.815,0.314-1.265
		c-0.068-0.447-0.307-0.842-0.672-1.11C184.603,146.268,184.255,146.154,183.891,146.154z"/>
</g>
<g>
	<g>
		<path fill="#A9D5D6" d="M302.511,155.235c-0.841,0-1.636-0.271-2.302-0.783c-0.014-0.007-0.028-0.016-0.041-0.026
			c-1.517-1.202-1.881-3.345-0.849-4.982c0.133-0.222,0.095-0.512-0.095-0.698c-0.01-0.009-0.019-0.02-0.027-0.03
			c-1.326-1.349-1.451-3.471-0.293-4.969c0.005-0.01,0.012-0.019,0.018-0.026c0.723-0.912,1.806-1.436,2.969-1.436
			c0.715,0,1.412,0.201,2.014,0.583c0.205,0.123,0.523,0.088,0.705-0.097c0.714-0.715,1.666-1.109,2.679-1.109
			c0.842,0,1.637,0.271,2.305,0.785c0.012,0.007,0.024,0.015,0.035,0.023c1.521,1.205,1.888,3.348,0.853,4.984
			c-0.002,0.004-0.004,0.007-0.007,0.011c-0.124,0.226-0.082,0.507,0.105,0.691c0.012,0.012,0.022,0.024,0.032,0.038
			c1.312,1.342,1.438,3.44,0.299,4.933c-0.008,0.019-0.019,0.036-0.032,0.054c-0.723,0.909-1.805,1.432-2.968,1.432
			c-0.716,0-1.414-0.201-2.018-0.583c-0.209-0.123-0.521-0.09-0.697,0.095c-0.007,0.007-0.015,0.014-0.023,0.021
			C304.462,154.848,303.518,155.235,302.511,155.235z M300.438,153.995c0.013,0.007,0.025,0.015,0.037,0.024
			c0.585,0.465,1.29,0.711,2.036,0.711c0.88,0,1.706-0.342,2.325-0.961c0.006-0.007,0.013-0.013,0.02-0.019
			c0.335-0.326,0.893-0.394,1.302-0.152c0.53,0.334,1.135,0.509,1.755,0.509c0.985,0,1.903-0.433,2.529-1.188
			c0.008-0.017,0.018-0.033,0.03-0.049c1.039-1.307,0.931-3.18-0.25-4.356c-0.013-0.013-0.023-0.025-0.033-0.04
			c-0.325-0.354-0.382-0.876-0.135-1.289c0.005-0.009,0.011-0.018,0.017-0.025c0.869-1.4,0.562-3.22-0.715-4.265
			c-0.011-0.006-0.021-0.013-0.031-0.021c-0.586-0.465-1.291-0.71-2.036-0.71c-0.878,0-1.703,0.341-2.322,0.96
			c-0.338,0.342-0.914,0.417-1.326,0.171c-0.528-0.334-1.131-0.509-1.75-0.509c-0.995,0-1.921,0.441-2.547,1.212
			c-0.005,0.007-0.01,0.015-0.016,0.021c-1.037,1.31-0.929,3.185,0.25,4.361c0.009,0.01,0.018,0.02,0.025,0.03
			c0.333,0.351,0.394,0.877,0.145,1.294C298.861,151.115,299.16,152.947,300.438,153.995z"/>
		<path fill="#A9D5D6" d="M305.189,153.539c-1.19,0-2.246-0.842-2.51-2.003c-0.033-0.136-0.168-0.206-0.314-0.219
			c-1.281-0.014-2.353-0.964-2.524-2.23c-0.004-0.013-0.007-0.026-0.008-0.04c-0.152-1.308,0.702-2.516,1.986-2.81
			c0.128-0.031,0.219-0.147,0.217-0.281c-0.002-1.311,0.978-2.411,2.28-2.563c0.012-0.002,0.024-0.003,0.035-0.002
			c1.292-0.134,2.481,0.745,2.762,1.989c0,0.002,0.001,0.005,0.001,0.007c0.038,0.129,0.171,0.189,0.301,0.207
			c1.279,0.009,2.354,0.953,2.533,2.215c0.007,0.019,0.011,0.037,0.014,0.058c0.147,1.31-0.708,2.517-1.991,2.808
			c-0.124,0.031-0.214,0.15-0.213,0.286c0,1.293-0.953,2.38-2.225,2.552c-0.015,0.005-0.03,0.009-0.046,0.01
			C305.387,153.533,305.288,153.539,305.189,153.539z M302.425,150.817c0.36,0.014,0.662,0.259,0.745,0.604
			c0.228,0.999,1.174,1.701,2.211,1.605c0.013-0.004,0.026-0.007,0.04-0.008c1.045-0.119,1.833-1.004,1.833-2.057
			c-0.003-0.366,0.243-0.687,0.598-0.778c1.018-0.231,1.7-1.169,1.614-2.198c-0.005-0.016-0.009-0.032-0.011-0.05
			c-0.12-1.047-1.004-1.837-2.057-1.838c-0.01,0-0.02,0-0.029-0.002c-0.365-0.015-0.666-0.258-0.75-0.603
			c-0.001-0.007-0.003-0.013-0.004-0.02c-0.234-1.002-1.199-1.688-2.249-1.578c-0.01,0.002-0.02,0.002-0.029,0.002
			c-1.029,0.14-1.799,1.016-1.798,2.055c0.006,0.366-0.243,0.688-0.605,0.776c-1.023,0.233-1.705,1.182-1.606,2.217
			c0.003,0.011,0.005,0.022,0.007,0.034c0.121,1.046,1.003,1.834,2.053,1.834C302.4,150.814,302.413,150.815,302.425,150.817z"/>
	</g>
	<g>
		<path fill="#A9D5D6" d="M305.342,156.047c-1.751,0-3.3-1.24-3.685-2.948c-0.063-0.248-0.292-0.427-0.552-0.427
			c-0.015,0-0.03-0.001-0.045-0.004c-1.896-0.016-3.483-1.428-3.726-3.305c-0.002-0.011-0.004-0.021-0.006-0.033
			c-0.221-1.926,1.034-3.701,2.921-4.128c0.253-0.064,0.433-0.298,0.431-0.563c0.002-1.907,1.416-3.511,3.297-3.756
			c0.013-0.004,0.026-0.007,0.04-0.008c1.933-0.229,3.713,1.072,4.128,2.921c0.001,0.006,0.002,0.012,0.003,0.018
			c0.073,0.244,0.3,0.412,0.562,0.412c0.007,0,0.015,0,0.022,0.001c1.886,0.009,3.473,1.407,3.726,3.272
			c0.009,0.021,0.015,0.043,0.018,0.067c0.218,1.925-1.04,3.698-2.926,4.125c-0.248,0.062-0.43,0.299-0.428,0.562
			c0,0.012,0,0.023-0.002,0.035c-0.013,1.89-1.417,3.476-3.288,3.722c-0.017,0.006-0.034,0.01-0.052,0.012
			C305.634,156.039,305.487,156.047,305.342,156.047z M301.133,152.169c0.488,0.019,0.896,0.347,1.015,0.812
			c0.358,1.592,1.867,2.707,3.515,2.547c0.015-0.005,0.031-0.009,0.047-0.01c1.659-0.19,2.909-1.591,2.907-3.26
			c0-0.011,0-0.021,0.002-0.033c0.01-0.479,0.348-0.906,0.814-1.023c1.617-0.366,2.699-1.864,2.549-3.504
			c-0.008-0.02-0.013-0.04-0.016-0.062c-0.19-1.655-1.589-2.904-3.253-2.904c-0.008,0-0.016,0-0.024-0.001
			c-0.494-0.009-0.918-0.343-1.038-0.817c-0.003-0.012-0.005-0.022-0.006-0.034c-0.368-1.57-1.868-2.676-3.52-2.508
			c-0.011,0.003-0.022,0.005-0.035,0.006c-1.656,0.191-2.906,1.593-2.908,3.26c0.005,0.497-0.331,0.933-0.816,1.057
			c-1.628,0.368-2.711,1.884-2.543,3.538c0.002,0.009,0.004,0.018,0.005,0.026c0.193,1.657,1.593,2.907,3.254,2.907
			C301.101,152.164,301.117,152.166,301.133,152.169z"/>
		<path fill="#A9D5D6" d="M303.333,153.005c-0.577,0-1.122-0.188-1.579-0.542c-0.004-0.003-0.008-0.006-0.013-0.01
			c-1.033-0.819-1.283-2.276-0.582-3.389c0.067-0.111,0.048-0.26-0.049-0.355c-0.925-0.926-1.01-2.396-0.198-3.421
			c0.005-0.007,0.011-0.014,0.017-0.02c0.488-0.604,1.214-0.949,1.997-0.949c0.48,0,0.948,0.133,1.354,0.385
			c0.003,0.001,0.006,0.003,0.009,0.005c0.115,0.07,0.267,0.051,0.356-0.045c0.011-0.011,0.022-0.021,0.034-0.029
			c0.891-0.861,2.36-0.951,3.349-0.201c0.013,0.007,0.026,0.016,0.039,0.025c1.032,0.818,1.28,2.277,0.577,3.393
			c-0.063,0.107-0.042,0.257,0.054,0.35c0.01,0.011,0.02,0.021,0.028,0.033c0.892,0.917,0.971,2.353,0.186,3.368
			c-0.004,0.007-0.008,0.013-0.013,0.018c-0.491,0.62-1.227,0.976-2.019,0.976c-0.485,0-0.958-0.137-1.368-0.396
			c-0.102-0.062-0.259-0.044-0.352,0.051c-0.016,0.016-0.033,0.029-0.051,0.04C304.631,152.752,304.002,153.005,303.333,153.005z
			 M302.039,152.046c0.003,0.002,0.006,0.004,0.008,0.007c0.808,0.639,2.029,0.565,2.749-0.16c0.016-0.016,0.034-0.03,0.053-0.041
			c0.252-0.22,0.636-0.255,0.928-0.081c0.872,0.551,2.071,0.345,2.711-0.442c0.003-0.005,0.006-0.01,0.01-0.014
			c0.655-0.827,0.588-2.01-0.155-2.751c-0.01-0.01-0.019-0.021-0.026-0.031c-0.239-0.258-0.282-0.64-0.102-0.943
			c0.561-0.89,0.376-2.042-0.423-2.705c-0.011-0.007-0.022-0.014-0.032-0.022c-0.806-0.636-2.027-0.563-2.753,0.16
			c-0.01,0.01-0.02,0.019-0.031,0.026c-0.246,0.225-0.632,0.269-0.923,0.106c-0.008-0.004-0.016-0.009-0.023-0.014
			c-0.329-0.208-0.71-0.317-1.102-0.317c-0.639,0-1.23,0.285-1.622,0.784c-0.005,0.006-0.01,0.012-0.015,0.018
			c-0.633,0.822-0.56,1.989,0.176,2.727c0.263,0.258,0.314,0.661,0.124,0.978C301.026,150.223,301.221,151.385,302.039,152.046z"/>
	</g>
</g>
<g>
	<path fill="#A9D5D6" d="M208.823,144.826c-1.05,0-2.044-0.475-2.704-1.28c-0.544,0.327-1.164,0.498-1.805,0.498c0,0,0,0,0,0
		c-0.749,0-1.464-0.235-2.068-0.681c-1.262-0.933-1.744-2.602-1.197-4.049c-1.228-0.678-1.937-2.033-1.781-3.445
		c0.176-1.557,1.381-2.809,2.909-3.062c-0.025-1.402,0.794-2.693,2.094-3.263c1.416-0.618,3.142-0.188,4.104,0.986
		c1.18-0.707,2.753-0.643,3.874,0.184c1.261,0.931,1.743,2.601,1.198,4.049c1.228,0.68,1.937,2.035,1.779,3.446
		c-0.175,1.559-1.379,2.812-2.907,3.062c0.023,1.404-0.796,2.695-2.095,3.262C209.777,144.728,209.306,144.826,208.823,144.826z
		 M206.239,142.859l0.145,0.204c0.798,1.126,2.36,1.566,3.637,1.008c1.175-0.513,1.891-1.718,1.782-2.999l-0.021-0.249l0.249-0.023
		c1.403-0.13,2.536-1.242,2.693-2.646c0.143-1.276-0.543-2.5-1.708-3.043l-0.227-0.106l0.104-0.228
		c0.587-1.28,0.19-2.817-0.946-3.655c-1.017-0.75-2.46-0.762-3.489-0.044l-0.205,0.143l-0.145-0.204
		c-0.795-1.123-2.358-1.568-3.637-1.008c-1.176,0.514-1.892,1.719-1.781,2.998l0.022,0.249l-0.249,0.023
		c-1.403,0.133-2.537,1.247-2.695,2.647c-0.141,1.278,0.545,2.501,1.709,3.043l0.228,0.105l-0.105,0.229
		c-0.589,1.279-0.191,2.816,0.945,3.655c1.016,0.75,2.459,0.761,3.489,0.044L206.239,142.859z"/>
	<path fill="#A9D5D6" d="M207.246,140.107c-1.692,0-3.069-1.376-3.069-3.068s1.376-3.069,3.069-3.069s3.069,1.377,3.069,3.069
		S208.938,140.107,207.246,140.107z M207.246,134.473c-1.414,0-2.565,1.151-2.565,2.565s1.151,2.564,2.565,2.564
		s2.565-1.15,2.565-2.564S208.66,134.473,207.246,134.473z"/>
</g>
<g>
	<path fill="#A9D5D6" d="M275.547,142.615C275.547,142.615,275.547,142.615,275.547,142.615c-0.424,0-0.842-0.078-1.24-0.233
		c-1.427-0.557-2.309-2.008-2.165-3.514c-1.332-0.33-2.344-1.429-2.553-2.801c-0.233-1.514,0.584-3.001,1.961-3.629
		c-0.379-1.318,0.065-2.745,1.146-3.612c1.163-0.933,2.923-0.971,4.125-0.116c0.937-0.97,2.424-1.31,3.702-0.81
		c1.425,0.555,2.306,2.006,2.162,3.512c1.332,0.333,2.343,1.431,2.552,2.799c0.234,1.513-0.582,3.002-1.959,3.633
		c0.38,1.316-0.064,2.741-1.147,3.609c-1.164,0.933-2.924,0.973-4.125,0.117C277.364,142.237,276.48,142.615,275.547,142.615z
		 M274.833,128.579c-0.668,0-1.298,0.221-1.82,0.64c-0.976,0.782-1.343,2.1-0.913,3.275l0.086,0.235l-0.235,0.088
		c-1.288,0.479-2.071,1.814-1.863,3.173c0.188,1.238,1.144,2.215,2.378,2.431l0.247,0.043l-0.042,0.247
		c-0.228,1.354,0.537,2.7,1.819,3.199c0.34,0.133,0.695,0.2,1.057,0.2l0,0c0.865,0,1.68-0.381,2.236-1.045l0.161-0.192l0.193,0.16
		c1.03,0.854,2.625,0.87,3.68,0.025c0.978-0.783,1.345-2.098,0.914-3.272l-0.086-0.235l0.234-0.088
		c1.289-0.482,2.072-1.818,1.861-3.176c-0.188-1.235-1.144-2.211-2.378-2.43l-0.246-0.043l0.042-0.247
		c0.227-1.354-0.537-2.7-1.816-3.198c-1.156-0.453-2.504-0.098-3.295,0.844l-0.161,0.191l-0.193-0.159
		C276.172,128.816,275.512,128.579,274.833,128.579z"/>
	<path fill="#A9D5D6" d="M277.687,140.427c-0.896,0-1.714-0.518-2.105-1.309c-0.188,0.047-0.381,0.071-0.577,0.071l0,0
		c-0.716,0-1.384-0.32-1.831-0.88c-0.642-0.799-0.681-1.928-0.122-2.769c-0.636-0.653-0.84-1.624-0.503-2.488
		c0.369-0.954,1.313-1.552,2.338-1.49c0.247-0.879,0.985-1.542,1.903-1.682c1.031-0.158,2.017,0.386,2.46,1.279
		c0.874-0.222,1.839,0.095,2.408,0.81c0.642,0.803,0.681,1.931,0.12,2.769c0.637,0.653,0.841,1.624,0.503,2.488
		c-0.365,0.94-1.328,1.546-2.337,1.49c-0.247,0.878-0.986,1.541-1.902,1.683C277.922,140.418,277.804,140.427,277.687,140.427z
		 M275.872,138.488l0.087,0.235c0.299,0.805,1.137,1.31,2.007,1.179c0.781-0.121,1.398-0.726,1.534-1.504l0.043-0.247l0.247,0.041
		c0.86,0.149,1.712-0.351,2.021-1.147c0.288-0.738,0.074-1.574-0.533-2.082l-0.193-0.161l0.161-0.193
		c0.554-0.666,0.561-1.644,0.017-2.323c-0.486-0.609-1.341-0.847-2.068-0.58l-0.235,0.087l-0.088-0.235
		c-0.299-0.804-1.139-1.312-2.006-1.177c-0.783,0.119-1.399,0.723-1.535,1.503l-0.043,0.247l-0.247-0.041
		c-0.872-0.151-1.71,0.341-2.022,1.147c-0.287,0.737-0.073,1.573,0.532,2.081l0.191,0.161l-0.159,0.192
		c-0.552,0.671-0.559,1.648-0.016,2.324c0.351,0.439,0.875,0.691,1.437,0.691l0,0c0.217,0,0.429-0.038,0.632-0.111L275.872,138.488z
		"/>
	<path fill="#A9D5D6" d="M277.418,137.211c-0.633,0-1.223-0.283-1.618-0.777c-0.713-0.889-0.57-2.195,0.318-2.912
		c0.368-0.293,0.827-0.453,1.295-0.453c0.633,0,1.223,0.282,1.619,0.774c0.711,0.893,0.568,2.198-0.319,2.913
		C278.346,137.05,277.886,137.211,277.418,137.211z M277.414,133.573c-0.359,0-0.698,0.119-0.98,0.343
		c-0.671,0.541-0.78,1.53-0.24,2.204c0.523,0.652,1.547,0.77,2.204,0.243c0.67-0.54,0.779-1.529,0.241-2.204
		C278.34,133.786,277.893,133.573,277.414,133.573z"/>
</g>
<g>
	<path fill="#A9D5D6" d="M235.327,154.488C235.326,154.488,235.326,154.488,235.327,154.488c-0.64,0-1.269-0.118-1.869-0.352
		c-2.192-0.853-3.53-3.104-3.254-5.419c-2.063-0.462-3.643-2.142-3.966-4.25c-0.358-2.324,0.924-4.607,3.067-5.523
		c-0.631-2.02,0.034-4.228,1.697-5.562c0.912-0.73,2.056-1.132,3.223-1.132c1.119,0,2.209,0.363,3.097,1.027
		c0.975-1.062,2.345-1.665,3.795-1.665c0.639,0,1.267,0.118,1.867,0.352c2.191,0.855,3.527,3.107,3.25,5.42
		c2.065,0.462,3.646,2.142,3.966,4.25c0.357,2.325-0.923,4.608-3.065,5.525c0.631,2.019-0.034,4.227-1.7,5.561
		c-0.926,0.74-2.04,1.132-3.222,1.132c-1.117,0-2.206-0.362-3.093-1.026C238.146,153.885,236.776,154.488,235.327,154.488z
		 M234.224,132.754c-1.068,0-2.073,0.354-2.907,1.021c-1.558,1.249-2.145,3.351-1.46,5.227l0.086,0.236l-0.235,0.087
		c-2.056,0.765-3.306,2.895-2.972,5.065c0.303,1.976,1.828,3.533,3.794,3.878l0.247,0.043l-0.042,0.247
		c-0.363,2.163,0.858,4.312,2.905,5.106c0.542,0.212,1.109,0.318,1.686,0.318c1.382,0,2.683-0.607,3.569-1.666l0.161-0.191
		l0.193,0.159c0.83,0.686,1.882,1.062,2.964,1.062c1.066,0,2.071-0.354,2.906-1.022c1.561-1.249,2.148-3.349,1.463-5.225
		l-0.086-0.235l0.235-0.088c2.055-0.765,3.304-2.896,2.97-5.067c-0.301-1.976-1.826-3.533-3.795-3.878l-0.247-0.043l0.042-0.247
		c0.364-2.161-0.856-4.31-2.901-5.108c-0.541-0.21-1.108-0.317-1.684-0.317c-1.383,0-2.684,0.608-3.57,1.669l-0.161,0.192
		l-0.193-0.16C236.362,133.132,235.308,132.754,234.224,132.754z"/>
	<path fill="#A9D5D6" d="M238.638,151.1c-1.37,0-2.619-0.815-3.181-2.053c-0.315,0.091-0.641,0.137-0.971,0.137c0,0,0,0,0,0
		c-1.066,0-2.06-0.477-2.725-1.309c-0.979-1.223-1.016-2.96-0.116-4.218c-1.013-0.975-1.349-2.467-0.833-3.789
		c0.57-1.458,2.04-2.375,3.596-2.21c0.338-1.361,1.461-2.398,2.864-2.614c1.581-0.241,3.08,0.615,3.713,2.01
		c0.313-0.091,0.638-0.136,0.967-0.136c1.067,0,2.062,0.477,2.73,1.309c0.983,1.224,1.019,2.96,0.116,4.218
		c1.013,0.973,1.35,2.465,0.834,3.789c-0.572,1.458-2.04,2.377-3.598,2.21c-0.338,1.363-1.462,2.4-2.864,2.615
		C238.99,151.086,238.813,151.1,238.638,151.1z M235.749,148.411l0.087,0.235c0.487,1.307,1.842,2.133,3.256,1.914
		c1.269-0.194,2.271-1.176,2.494-2.441l0.043-0.246l0.247,0.041c0.163,0.028,0.329,0.042,0.495,0.042c1.24,0,2.335-0.748,2.79-1.906
		c0.467-1.198,0.118-2.557-0.869-3.381l-0.193-0.161l0.161-0.193c0.9-1.084,0.912-2.671,0.027-3.771
		c-0.791-0.986-2.174-1.373-3.361-0.94l-0.235,0.085l-0.087-0.234c-0.485-1.306-1.841-2.129-3.256-1.911
		c-1.269,0.196-2.271,1.177-2.494,2.44l-0.043,0.246l-0.247-0.041c-0.163-0.028-0.33-0.042-0.495-0.042
		c-1.241,0-2.335,0.748-2.788,1.906c-0.467,1.196-0.119,2.555,0.867,3.381l0.192,0.161l-0.16,0.192
		c-0.897,1.086-0.908,2.673-0.026,3.774c0.569,0.711,1.419,1.119,2.332,1.119c0,0,0,0,0,0c0.352,0,0.698-0.062,1.027-0.182
		L235.749,148.411z"/>
	<path fill="#A9D5D6" d="M238.224,146.119c-0.938,0-1.812-0.419-2.399-1.148c-1.056-1.321-0.842-3.257,0.476-4.315
		c0.542-0.435,1.223-0.674,1.916-0.674c0.938,0,1.812,0.419,2.397,1.15c1.058,1.318,0.846,3.254-0.472,4.314
		C239.599,145.881,238.918,146.119,238.224,146.119z M238.216,140.486c-0.587,0-1.141,0.194-1.601,0.562
		c-1.102,0.886-1.28,2.504-0.398,3.607c0.49,0.609,1.222,0.96,2.006,0.96c0.588,0,1.142-0.194,1.603-0.562
		c1.101-0.886,1.278-2.504,0.394-3.605C239.73,140.836,239,140.486,238.216,140.486z"/>
</g>
<g>
	<path fill="#A9D5D6" d="M629.068,159.071l-0.357-0.357c2.151-2.15,3.336-5.011,3.335-8.053c-0.002-3.042-1.188-5.902-3.341-8.054
		c-2.149-2.151-5.009-3.337-8.051-3.338c-0.002,0-0.003,0-0.005,0c-3.041,0-5.898,1.184-8.048,3.333l-0.357-0.357
		c2.245-2.244,5.229-3.48,8.405-3.48c0.002,0,0.003,0,0.005,0c3.177,0.002,6.163,1.239,8.408,3.486
		c2.247,2.247,3.486,5.233,3.487,8.41S631.314,156.824,629.068,159.071z"/>
	<path fill="#A9D5D6" d="M638.564,144.643c-3.048,0-6.094-1.16-8.414-3.479c-2.246-2.246-3.484-5.233-3.484-8.411
		c-0.001-3.179,1.236-6.166,3.482-8.412l0.357,0.357c-2.151,2.15-3.336,5.011-3.336,8.054c0.001,3.044,1.186,5.904,3.337,8.055
		c4.442,4.442,11.669,4.444,16.113,0.002l0.355,0.357C644.657,143.483,641.61,144.643,638.564,144.643z"/>
	<path fill="#A9D5D6" d="M630.15,159.069c-4.636-4.637-4.637-12.184,0-16.822c4.639-4.636,12.182-4.635,16.82,0.002l-0.357,0.357
		c-4.44-4.442-11.665-4.442-16.105-0.002c-4.44,4.441-4.44,11.668,0,16.107L630.15,159.069z"/>
	<path fill="#A9D5D6" d="M620.657,144.64c-3.047,0-6.094-1.159-8.415-3.479l0.356-0.357c4.444,4.442,11.672,4.444,16.112,0.002
		c2.152-2.151,3.336-5.012,3.335-8.054s-1.188-5.902-3.341-8.055l0.356-0.357c2.249,2.248,3.488,5.235,3.489,8.412
		s-1.236,6.163-3.482,8.411C626.75,143.481,623.703,144.64,620.657,144.64z"/>
</g>
<g>
	<path fill="#A9D5D6" d="M662.889,153.322c-0.729,0-1.42-0.318-1.892-0.863c-0.374,0.213-0.795,0.323-1.23,0.323l0,0
		c-0.535,0-1.046-0.168-1.479-0.485c-0.886-0.649-1.235-1.81-0.88-2.833c-0.842-0.493-1.323-1.439-1.214-2.428
		c0.121-1.091,0.95-1.972,2.012-2.176c0.008-0.977,0.588-1.869,1.497-2.268c0.991-0.434,2.198-0.147,2.892,0.655
		c0.833-0.474,1.928-0.415,2.711,0.162c0.884,0.652,1.232,1.811,0.878,2.831c0.839,0.493,1.321,1.44,1.216,2.428
		c-0.123,1.093-0.953,1.975-2.016,2.179c-0.008,0.978-0.587,1.868-1.496,2.266C663.571,153.251,663.235,153.322,662.889,153.322z
		 M661.116,151.774l0.145,0.205c0.533,0.75,1.577,1.043,2.427,0.671c0.784-0.342,1.261-1.145,1.186-1.997l-0.022-0.25l0.25-0.023
		c0.938-0.088,1.693-0.831,1.798-1.767c0.092-0.852-0.365-1.666-1.139-2.026l-0.228-0.105l0.104-0.229
		c0.393-0.854,0.128-1.878-0.629-2.437c-0.679-0.5-1.643-0.507-2.325-0.028l-0.205,0.145l-0.146-0.205
		c-0.53-0.748-1.571-1.047-2.426-0.673c-0.785,0.344-1.262,1.148-1.188,2.001l0.022,0.25l-0.25,0.023
		c-0.937,0.087-1.691,0.829-1.794,1.763c-0.096,0.854,0.361,1.667,1.137,2.026l0.228,0.105l-0.104,0.229
		c-0.395,0.856-0.129,1.882,0.631,2.438c0.345,0.254,0.753,0.388,1.18,0.388l0,0c0.412,0,0.808-0.124,1.144-0.359L661.116,151.774z"
		/>
	<path fill="#A9D5D6" d="M661.795,150.054c-1.214,0-2.201-0.988-2.201-2.202s0.987-2.202,2.201-2.202
		c1.215,0,2.203,0.988,2.203,2.202S663.01,150.054,661.795,150.054z M661.795,146.154c-0.936,0-1.697,0.762-1.697,1.698
		s0.762,1.698,1.697,1.698c0.937,0,1.699-0.762,1.699-1.698S662.732,146.154,661.795,146.154z"/>
</g>
<g>
	<path fill="#A9D5D6" d="M686.73,144.826c-1.051,0-2.046-0.475-2.706-1.28c-0.544,0.327-1.163,0.498-1.804,0.498l0,0
		c-0.75,0-1.466-0.235-2.07-0.681c-1.261-0.932-1.742-2.602-1.196-4.049c-1.229-0.678-1.938-2.033-1.78-3.446
		c0.177-1.556,1.382-2.808,2.909-3.062c-0.025-1.402,0.793-2.693,2.095-3.263c1.416-0.619,3.143-0.188,4.104,0.986
		c1.179-0.706,2.753-0.643,3.873,0.184c1.26,0.933,1.742,2.602,1.198,4.049c1.229,0.68,1.937,2.035,1.778,3.446
		c-0.175,1.559-1.379,2.812-2.905,3.062c0.021,1.405-0.798,2.695-2.097,3.262C687.683,144.728,687.212,144.826,686.73,144.826z
		 M684.143,142.859l0.146,0.204c0.797,1.123,2.361,1.567,3.638,1.008c1.175-0.513,1.892-1.718,1.784-2.999l-0.021-0.249l0.249-0.023
		c1.402-0.13,2.534-1.243,2.69-2.646c0.145-1.276-0.541-2.499-1.705-3.043l-0.227-0.106l0.104-0.228
		c0.587-1.278,0.188-2.816-0.946-3.655c-1.015-0.752-2.46-0.762-3.488-0.044l-0.206,0.144l-0.145-0.205
		c-0.794-1.123-2.356-1.567-3.637-1.008c-1.177,0.515-1.893,1.719-1.781,2.998l0.021,0.249l-0.249,0.023
		c-1.402,0.133-2.536,1.247-2.694,2.647c-0.143,1.278,0.544,2.501,1.707,3.043l0.228,0.105l-0.104,0.229
		c-0.589,1.279-0.191,2.816,0.943,3.655c1.016,0.75,2.46,0.762,3.489,0.044L684.143,142.859z"/>
	<path fill="#A9D5D6" d="M685.153,140.107c-1.693,0-3.07-1.376-3.07-3.068s1.377-3.069,3.07-3.069c1.692,0,3.068,1.377,3.068,3.069
		S686.845,140.107,685.153,140.107z M685.153,134.473c-1.415,0-2.566,1.151-2.566,2.565s1.151,2.564,2.566,2.564
		c1.414,0,2.564-1.15,2.564-2.564S686.567,134.473,685.153,134.473z"/>
</g>
<g>
	<path fill="#A9D5D6" d="M713.231,154.488L713.231,154.488c-0.64,0-1.269-0.118-1.869-0.352c-2.191-0.854-3.527-3.105-3.25-5.419
		c-2.064-0.462-3.644-2.142-3.966-4.25c-0.357-2.324,0.925-4.606,3.066-5.523c-0.633-2.021,0.033-4.229,1.699-5.562
		c0.909-0.729,2.053-1.131,3.219-1.131c1.118,0,2.208,0.363,3.096,1.027c0.976-1.062,2.346-1.665,3.797-1.665
		c0.64,0,1.268,0.118,1.868,0.352c2.193,0.856,3.529,3.108,3.249,5.42c2.066,0.462,3.646,2.142,3.969,4.25
		c0.354,2.326-0.928,4.609-3.064,5.525c0.629,2.02-0.038,4.228-1.703,5.561c-0.911,0.729-2.056,1.132-3.222,1.132
		c-1.117,0-2.206-0.362-3.092-1.026C716.052,153.885,714.682,154.488,713.231,154.488z M712.13,132.754
		c-1.067,0-2.071,0.354-2.903,1.021c-1.562,1.249-2.148,3.35-1.463,5.228l0.087,0.235l-0.235,0.088
		c-2.055,0.765-3.305,2.896-2.972,5.065c0.302,1.976,1.827,3.534,3.794,3.878l0.247,0.043l-0.041,0.247
		c-0.365,2.162,0.854,4.311,2.901,5.106c0.542,0.212,1.109,0.318,1.686,0.318c1.383,0,2.685-0.607,3.572-1.666l0.161-0.191
		l0.193,0.159c0.827,0.686,1.879,1.062,2.962,1.062c1.067,0,2.072-0.354,2.907-1.021c1.56-1.249,2.148-3.349,1.465-5.227
		l-0.085-0.234l0.234-0.088c2.051-0.765,3.3-2.896,2.97-5.067c-0.302-1.976-1.828-3.534-3.798-3.878l-0.248-0.043l0.043-0.247
		c0.367-2.161-0.852-4.309-2.9-5.108c-0.541-0.21-1.108-0.317-1.685-0.317c-1.383,0-2.685,0.608-3.571,1.669l-0.161,0.192
		l-0.192-0.16C714.268,133.132,713.214,132.754,712.13,132.754z"/>
	<path fill="#A9D5D6" d="M716.544,151.1c-1.372,0-2.622-0.815-3.184-2.053c-0.314,0.091-0.64,0.137-0.971,0.137l0,0
		c-1.066,0-2.061-0.477-2.726-1.309c-0.977-1.225-1.012-2.961-0.113-4.218c-1.013-0.975-1.349-2.467-0.83-3.789
		c0.557-1.437,2.049-2.37,3.593-2.21c0.337-1.361,1.46-2.398,2.863-2.614c1.575-0.24,3.08,0.615,3.712,2.01
		c0.314-0.091,0.639-0.136,0.968-0.136c1.068,0,2.062,0.478,2.728,1.31c0.984,1.224,1.021,2.96,0.116,4.217
		c1.015,0.974,1.353,2.466,0.835,3.789c-0.569,1.457-2.031,2.37-3.597,2.21c-0.338,1.363-1.461,2.4-2.863,2.615
		C716.897,151.086,716.719,151.1,716.544,151.1z M713.653,148.411l0.088,0.235c0.486,1.306,1.835,2.127,3.259,1.914
		c1.269-0.195,2.271-1.176,2.493-2.441l0.043-0.246l0.247,0.041c0.163,0.028,0.329,0.042,0.494,0.042
		c1.241,0,2.337-0.748,2.79-1.906c0.467-1.197,0.117-2.556-0.87-3.381l-0.193-0.161l0.161-0.193
		c0.902-1.083,0.913-2.669,0.026-3.771c-0.788-0.986-2.171-1.373-3.36-0.94l-0.235,0.085l-0.087-0.234
		c-0.483-1.305-1.836-2.126-3.255-1.911c-1.269,0.196-2.271,1.177-2.493,2.44l-0.043,0.246l-0.247-0.041
		c-1.372-0.237-2.777,0.57-3.279,1.863c-0.469,1.197-0.121,2.556,0.864,3.382l0.191,0.161l-0.159,0.192
		c-0.896,1.085-0.908,2.672-0.028,3.774c0.568,0.711,1.418,1.119,2.331,1.119l0,0c0.353,0,0.698-0.062,1.027-0.182L713.653,148.411z
		"/>
	<path fill="#A9D5D6" d="M716.125,146.12c-1.693,0-3.07-1.377-3.07-3.069s1.377-3.069,3.07-3.069c1.692,0,3.068,1.377,3.068,3.069
		S717.818,146.12,716.125,146.12z M716.125,140.486c-1.415,0-2.566,1.151-2.566,2.565s1.151,2.565,2.566,2.565
		c1.414,0,2.564-1.151,2.564-2.565S717.54,140.486,716.125,140.486z"/>
</g>
<g>
	<g>
		<path fill="#A9D5D6" d="M466.434,143.674c-1.429,0-2.722-0.788-3.375-2.058c-0.121-0.223-0.4-0.343-0.648-0.275
			c-0.01,0.003-0.021,0.005-0.03,0.007c-0.299,0.074-0.606,0.112-0.914,0.112c-1.539,0-2.945-0.954-3.516-2.38
			c-0.007-0.012-0.013-0.024-0.018-0.037c-0.698-1.808,0.078-3.838,1.806-4.724c0.221-0.121,0.337-0.396,0.271-0.649
			c-0.004-0.013-0.007-0.026-0.008-0.04c-0.455-1.831,0.515-3.718,2.271-4.423c0.012-0.007,0.023-0.013,0.037-0.018
			c0.437-0.167,0.894-0.252,1.356-0.252c1.429,0,2.718,0.787,3.364,2.055c0.122,0.222,0.398,0.346,0.657,0.278
			c0.309-0.079,0.624-0.119,0.94-0.119c1.561,0,2.934,0.932,3.513,2.378c0.007,0.012,0.013,0.024,0.018,0.037
			c0.696,1.811-0.077,3.842-1.8,4.725c-0.008,0.004-0.017,0.008-0.024,0.011c-0.213,0.136-0.315,0.394-0.25,0.641
			c0.005,0.016,0.007,0.031,0.008,0.047c0.447,1.822-0.511,3.693-2.247,4.401c-0.019,0.014-0.038,0.025-0.061,0.033
			C467.349,143.59,466.895,143.674,466.434,143.674z M462.558,140.817c0.395,0,0.758,0.217,0.947,0.563
			c0.568,1.106,1.689,1.79,2.928,1.79c0.375,0,0.745-0.064,1.101-0.191c0.016-0.012,0.034-0.021,0.055-0.029
			c1.559-0.598,2.42-2.265,2.004-3.879c-0.004-0.015-0.007-0.031-0.008-0.047c-0.102-0.468,0.113-0.948,0.536-1.182
			c0.015-0.008,0.029-0.015,0.044-0.02c1.452-0.767,2.108-2.483,1.54-4.027c-0.006-0.011-0.011-0.021-0.016-0.033
			c-0.491-1.279-1.693-2.106-3.062-2.106c-0.273,0-0.548,0.035-0.814,0.104c-0.474,0.125-0.992-0.101-1.229-0.53
			c-0.563-1.105-1.681-1.787-2.919-1.787c-0.385,0-0.765,0.068-1.129,0.201c-0.01,0.006-0.021,0.011-0.031,0.015
			c-1.561,0.601-2.424,2.269-2.007,3.881c0.003,0.014,0.006,0.027,0.007,0.04c0.107,0.471-0.106,0.954-0.53,1.187
			c-1.488,0.763-2.163,2.495-1.589,4.05c0.006,0.011,0.011,0.021,0.016,0.034c0.482,1.26,1.715,2.107,3.064,2.107
			c0.274,0,0.548-0.035,0.813-0.104c0.009-0.002,0.018-0.004,0.026-0.005C462.388,140.827,462.473,140.817,462.558,140.817z"/>
		<path fill="#A9D5D6" d="M464.006,141.188c-0.343,0-0.677-0.067-0.994-0.201c-0.015-0.003-0.029-0.009-0.044-0.015
			c-1.203-0.536-1.807-1.886-1.405-3.139c0.038-0.125-0.018-0.262-0.135-0.328c-0.015-0.008-0.029-0.018-0.041-0.028
			c-1.085-0.668-1.519-2.029-1.02-3.201c0.003-0.011,0.007-0.022,0.012-0.033c0.413-0.929,1.338-1.529,2.355-1.529
			c0.267,0,0.53,0.042,0.784,0.123c0.106,0.032,0.265-0.02,0.328-0.133c0.465-0.785,1.314-1.271,2.221-1.271
			c0.348,0,0.687,0.07,1.008,0.207c0.037,0.009,0.07,0.024,0.1,0.046c1.146,0.548,1.719,1.845,1.348,3.063
			c-0.002,0.013-0.005,0.025-0.009,0.038c-0.04,0.129,0.015,0.264,0.133,0.329c0.015,0.009,0.029,0.019,0.042,0.03
			c1.082,0.666,1.516,2.02,1.024,3.188c-0.004,0.017-0.009,0.032-0.016,0.048c-0.415,0.927-1.34,1.525-2.355,1.525
			c-0.267,0-0.531-0.042-0.786-0.123c-0.09-0.023-0.264,0.024-0.33,0.139C465.763,140.704,464.913,141.188,464.006,141.188z
			 M463.127,140.49c0.013,0.004,0.025,0.009,0.039,0.014c0.938,0.424,2.105,0.041,2.625-0.836c0.18-0.307,0.568-0.466,0.911-0.365
			c1.009,0.32,2.077-0.168,2.513-1.079c0.004-0.014,0.008-0.027,0.014-0.04c0.431-0.961,0.07-2.09-0.837-2.627
			c-0.014-0.008-0.026-0.017-0.037-0.026c-0.283-0.184-0.416-0.518-0.335-0.844c0.001-0.017,0.005-0.033,0.01-0.049
			c0.326-1.009-0.159-2.093-1.128-2.521c-0.005-0.002-0.01-0.005-0.015-0.007c-0.936-0.409-2.088-0.024-2.604,0.848
			c-0.174,0.308-0.564,0.467-0.914,0.361c-0.994-0.314-2.082,0.175-2.513,1.094c-0.003,0.01-0.007,0.02-0.011,0.028
			c-0.429,0.961-0.069,2.09,0.836,2.626c0.013,0.008,0.024,0.017,0.036,0.026c0.295,0.19,0.429,0.55,0.326,0.891
			C461.725,138.979,462.191,140.045,463.127,140.49z"/>
	</g>
	<g>
		<path fill="#A9D5D6" d="M463.481,143.592c-0.513,0-1.014-0.104-1.488-0.307c-0.014-0.003-0.026-0.008-0.04-0.014
			c-1.771-0.788-2.659-2.771-2.067-4.615c0.075-0.251-0.032-0.521-0.264-0.653c-0.014-0.008-0.026-0.017-0.038-0.026
			c-1.613-0.974-2.259-2.987-1.518-4.723c0.004-0.015,0.009-0.028,0.015-0.043c0.605-1.366,1.963-2.249,3.458-2.249
			c0.393,0,0.781,0.062,1.156,0.182c0.223,0.066,0.53-0.042,0.66-0.266c0.676-1.147,1.925-1.859,3.26-1.859
			c0.513,0,1.013,0.103,1.487,0.306c0.014,0.003,0.026,0.008,0.04,0.014c1.772,0.789,2.659,2.773,2.063,4.615
			c-0.001,0.003-0.002,0.006-0.003,0.009c-0.065,0.252,0.045,0.516,0.271,0.647c0.013,0.007,0.023,0.015,0.034,0.023
			c1.608,0.973,2.255,2.978,1.523,4.708c-0.003,0.021-0.009,0.042-0.018,0.063c-0.61,1.36-1.97,2.24-3.464,2.24
			c-0.393,0-0.781-0.061-1.156-0.181c-0.218-0.066-0.522,0.043-0.646,0.264c-0.008,0.014-0.018,0.026-0.027,0.039
			C466.039,142.894,464.801,143.592,463.481,143.592z M462.111,142.789c0.012,0.004,0.023,0.008,0.035,0.013
			c0.425,0.189,0.874,0.286,1.335,0.286c1.156,0,2.238-0.618,2.826-1.612c0.007-0.013,0.015-0.023,0.023-0.034
			c0.247-0.396,0.759-0.593,1.212-0.46c0.331,0.106,0.668,0.159,1.008,0.159c1.272,0,2.433-0.735,2.975-1.88
			c0.003-0.02,0.009-0.038,0.017-0.057c0.68-1.524,0.109-3.312-1.325-4.159c-0.013-0.007-0.023-0.015-0.034-0.023
			c-0.407-0.259-0.596-0.754-0.459-1.22c0.003-0.009,0.006-0.018,0.01-0.025c0.497-1.573-0.251-3.262-1.749-3.956
			c-0.012-0.004-0.023-0.008-0.035-0.013c-0.425-0.189-0.873-0.285-1.334-0.285c-1.157,0-2.24,0.617-2.825,1.61
			c-0.243,0.419-0.772,0.629-1.243,0.493c-0.331-0.106-0.668-0.16-1.008-0.16c-1.277,0-2.438,0.744-2.974,1.899
			c-0.004,0.013-0.008,0.025-0.014,0.038c-0.682,1.527-0.111,3.315,1.325,4.16c0.013,0.008,0.025,0.017,0.036,0.026
			c0.407,0.257,0.594,0.75,0.454,1.216C459.858,140.392,460.607,142.093,462.111,142.789z"/>
		<path fill="#A9D5D6" d="M465.955,141.242c-0.973,0-1.851-0.535-2.292-1.396c-0.062-0.112-0.195-0.172-0.326-0.138
			c-0.018,0.005-0.036,0.008-0.054,0.009c-1.225,0.297-2.544-0.405-2.998-1.583c-0.003-0.007-0.005-0.015-0.007-0.021
			c-0.455-1.221,0.071-2.585,1.234-3.185c0.115-0.061,0.175-0.2,0.141-0.33c-0.327-1.268,0.348-2.575,1.57-3.043
			c0.006-0.003,0.013-0.005,0.02-0.007c0.288-0.108,0.59-0.163,0.896-0.163c0.97,0,1.847,0.535,2.29,1.397
			c0.001,0.003,0.003,0.006,0.004,0.01c0.068,0.107,0.201,0.159,0.322,0.126c0.014-0.004,0.028-0.007,0.043-0.008
			c0.196-0.047,0.397-0.07,0.599-0.07c1.055,0,1.982,0.623,2.382,1.594c0.01,0.016,0.018,0.031,0.024,0.049
			c0.471,1.231-0.057,2.613-1.228,3.213c-0.114,0.061-0.172,0.196-0.136,0.328c0.003,0.012,0.006,0.023,0.007,0.036
			c0.302,1.242-0.353,2.517-1.535,2.994c-0.011,0.007-0.022,0.012-0.035,0.017C466.58,141.185,466.269,141.242,465.955,141.242z
			 M463.413,139.195c0.288,0,0.555,0.159,0.695,0.416c0.358,0.698,1.064,1.128,1.847,1.128c0.239,0,0.475-0.041,0.701-0.123
			c0.01-0.005,0.02-0.01,0.03-0.014c0.981-0.376,1.525-1.428,1.264-2.448c-0.003-0.011-0.005-0.021-0.006-0.032
			c-0.079-0.35,0.081-0.704,0.397-0.872c0.928-0.476,1.354-1.556,1.009-2.534c-0.008-0.013-0.015-0.026-0.021-0.042
			c-0.31-0.807-1.068-1.328-1.934-1.328c-0.172,0-0.345,0.021-0.513,0.064c-0.014,0.004-0.027,0.006-0.041,0.007
			c-0.344,0.072-0.7-0.094-0.865-0.403c-0.004-0.009-0.008-0.017-0.011-0.024c-0.476-0.89-1.615-1.328-2.569-0.958
			c-0.007,0.002-0.013,0.004-0.02,0.006c-0.966,0.385-1.497,1.427-1.236,2.435c0.094,0.355-0.073,0.736-0.397,0.905
			c-0.943,0.486-1.366,1.598-0.984,2.585c0.002,0.006,0.004,0.012,0.006,0.018c0.379,0.944,1.458,1.497,2.438,1.239
			c0.018-0.005,0.036-0.007,0.055-0.008C463.308,139.199,463.361,139.195,463.413,139.195z"/>
	</g>
</g>
<g>
	<path fill="#A9D5D6" d="M509.186,146.146c-1.354,0-2.579-0.807-3.122-2.03c-0.295,0.081-0.599,0.122-0.907,0.122l0,0
		c-1.058,0-2.04-0.478-2.692-1.311c-0.944-1.206-0.962-2.902-0.072-4.123c-0.977-0.961-1.289-2.421-0.774-3.71
		c0.57-1.415,2.024-2.282,3.535-2.125c0.346-1.33,1.455-2.332,2.828-2.526c1.551-0.213,3.002,0.63,3.609,2.001
		c0.296-0.081,0.601-0.122,0.909-0.122c1.058,0,2.038,0.477,2.689,1.309c0.947,1.203,0.966,2.899,0.074,4.123
		c0.978,0.963,1.291,2.422,0.773,3.707c-0.568,1.417-2.024,2.291-3.536,2.131c-0.346,1.328-1.454,2.327-2.826,2.521
		C509.51,146.135,509.347,146.146,509.186,146.146z M506.364,143.484l0.085,0.235c0.461,1.28,1.778,2.098,3.154,1.893
		c1.238-0.174,2.225-1.117,2.454-2.349l0.046-0.246l0.246,0.044c0.168,0.03,0.34,0.045,0.511,0.045c1.199,0,2.263-0.72,2.709-1.833
		c0.467-1.16,0.141-2.485-0.812-3.3l-0.19-0.162l0.162-0.192c0.888-1.051,0.914-2.597,0.064-3.677
		c-0.556-0.71-1.391-1.116-2.293-1.116c-0.332,0-0.659,0.056-0.972,0.166l-0.236,0.084l-0.085-0.235
		c-0.463-1.282-1.765-2.104-3.155-1.897c-1.238,0.175-2.226,1.121-2.455,2.354l-0.046,0.247l-0.247-0.045
		c-0.168-0.03-0.34-0.046-0.512-0.046c-1.196,0-2.258,0.718-2.706,1.828c-0.465,1.163-0.138,2.491,0.813,3.303l0.19,0.162
		l-0.162,0.192c-0.886,1.048-0.914,2.595-0.066,3.678c0.557,0.709,1.394,1.116,2.296,1.116l0,0c0.332,0,0.659-0.056,0.971-0.165
		L506.364,143.484z"/>
	<path fill="#A9D5D6" d="M507.561,143.294L507.561,143.294c-0.301,0-0.595-0.058-0.874-0.171c-0.949-0.381-1.537-1.346-1.463-2.353
		c-0.877-0.258-1.531-1.005-1.661-1.924c-0.148-1.013,0.394-2.004,1.306-2.442c-0.215-0.887,0.103-1.827,0.832-2.399
		c0.792-0.621,1.951-0.652,2.772-0.093c0.648-0.619,1.646-0.819,2.492-0.479c0.951,0.383,1.541,1.349,1.467,2.355
		c0.874,0.255,1.528,1.001,1.66,1.919c0.145,1.019-0.396,2.011-1.304,2.447c0.216,0.887-0.104,1.826-0.834,2.397
		c-0.791,0.621-1.952,0.652-2.771,0.092C508.749,143.06,508.169,143.294,507.561,143.294z M507.147,134.009
		c-0.415,0-0.808,0.136-1.136,0.393c-0.621,0.488-0.862,1.317-0.6,2.063l0.084,0.236l-0.235,0.085
		c-0.82,0.295-1.323,1.132-1.198,1.989c0.111,0.784,0.708,1.409,1.487,1.555l0.245,0.046l-0.044,0.246
		c-0.151,0.855,0.321,1.711,1.125,2.033c0.724,0.296,1.584,0.076,2.087-0.512l0.163-0.191l0.191,0.162
		c0.648,0.545,1.654,0.567,2.327,0.041c0.623-0.488,0.864-1.316,0.602-2.062l-0.084-0.236l0.236-0.085
		c0.815-0.293,1.317-1.131,1.194-1.994c-0.111-0.783-0.708-1.406-1.483-1.55l-0.246-0.046l0.044-0.246
		c0.151-0.855-0.323-1.712-1.129-2.035c-0.725-0.293-1.581-0.076-2.086,0.512l-0.163,0.189l-0.19-0.161
		C508.006,134.162,507.583,134.009,507.147,134.009z"/>
	<path fill="#A9D5D6" d="M508.827,140.348c-1.142,0-2.07-0.929-2.07-2.07s0.929-2.069,2.07-2.069s2.07,0.928,2.07,2.069
		S509.968,140.348,508.827,140.348z M508.827,136.712c-0.863,0-1.566,0.702-1.566,1.565s0.703,1.566,1.566,1.566
		s1.566-0.703,1.566-1.566S509.69,136.712,508.827,136.712z"/>
</g>
<g>
	<path fill="#A9D5D6" d="M448.853,153.373c-0.102,0-0.205-0.007-0.31-0.02c-1.088-0.134-1.961-0.972-2.155-2.033
		c-0.981-0.019-1.861-0.61-2.25-1.518c-0.43-1.013-0.139-2.188,0.687-2.887c-0.474-0.856-0.407-1.918,0.189-2.709
		c0.476-0.633,1.204-0.996,1.999-0.996c0.286,0,0.573,0.05,0.842,0.146c0.5-0.827,1.44-1.318,2.444-1.188
		c1.09,0.132,1.963,0.97,2.154,2.033c0.985,0.019,1.865,0.611,2.25,1.522c0.429,1.012,0.138,2.187-0.688,2.882
		c0.476,0.855,0.409,1.917-0.189,2.71c-0.479,0.633-1.207,0.996-1.999,0.996c-0.29,0-0.572-0.049-0.842-0.146
		C450.54,152.906,449.727,153.373,448.853,153.373z M446.838,150.791l0.021,0.249c0.079,0.937,0.813,1.699,1.746,1.813
		c0.873,0.104,1.677-0.354,2.039-1.114l0.107-0.227l0.228,0.106c0.838,0.396,1.883,0.136,2.445-0.606
		c0.516-0.683,0.536-1.617,0.05-2.324l-0.143-0.207l0.208-0.144c0.772-0.532,1.067-1.549,0.699-2.416
		c-0.331-0.785-1.124-1.277-1.986-1.209l-0.251,0.02l-0.02-0.25c-0.076-0.938-0.81-1.699-1.744-1.812
		c-0.87-0.11-1.677,0.354-2.041,1.115l-0.108,0.227l-0.227-0.107c-0.837-0.392-1.888-0.136-2.445,0.605
		c-0.515,0.683-0.534,1.617-0.05,2.325l0.142,0.207l-0.206,0.143c-0.773,0.535-1.068,1.553-0.7,2.42
		c0.314,0.735,1.034,1.212,1.833,1.212l0,0c0.051,0,0.102-0.002,0.153-0.006L446.838,150.791z"/>
	<path fill="#A9D5D6" d="M449.421,149.965c-0.885,0-1.681-0.526-2.027-1.34c-0.475-1.119,0.048-2.416,1.164-2.891
		c0.274-0.117,0.564-0.176,0.86-0.176c0.885,0,1.682,0.525,2.03,1.34c0.23,0.542,0.235,1.141,0.016,1.687
		c-0.221,0.547-0.641,0.974-1.182,1.204C450.007,149.906,449.717,149.965,449.421,149.965z M449.418,146.063
		c-0.229,0-0.451,0.046-0.663,0.136c-0.86,0.366-1.263,1.366-0.897,2.229c0.355,0.836,1.375,1.26,2.228,0.896
		c0.418-0.177,0.741-0.507,0.911-0.928c0.17-0.422,0.166-0.883-0.012-1.3C450.716,146.469,450.101,146.063,449.418,146.063z"/>
</g>
</svg>
