<?xml version="1.0" encoding="UTF-8"?>
<svg id="_レイヤー_1" data-name="レイヤー 1" xmlns="http://www.w3.org/2000/svg" viewBox="0 0 105.29 140.52">
  <defs>
    <style>
      .cls-1 {
        fill: #555759;
      }

      .cls-2 {
        fill: #a9d5d7;
      }

      .cls-3 {
        fill: #37ff35;
        stroke: #009f9d;
        stroke-width: 3px;
      }

      .cls-3, .cls-4 {
        font-family: BookAntiqua, 'Book Antiqua';
        font-size: 17px;
        stroke-miterlimit: 10;
      }

      .cls-4 {
        stroke: #000;
        stroke-width: .75px;
      }
    </style>
  </defs>
  <g>
    <path class="cls-1" d="m38.54,140.41c-2.15,0-3.96-1.38-3.96-3.55,0-2.45,1.69-3.89,4.09-3.89,1.09,0,2.58.36,2.58,1.74,0,.73-.67,1.75-1.38,1.75s-.91-.23-.91-.58c0-.49.73-.81.73-1.28,0-.55-.78-.55-1.15-.55-1.43,0-2.42,1.02-2.42,2.53s1.04,2.58,2.54,2.58c1.26,0,2.37-.86,2.71-.86.28,0,.29.29.29.57,0,1.07-2.33,1.56-3.13,1.56Z"/>
    <path class="cls-1" d="m50.78,140.4c-.62,0-1.31-.29-1.75-.75-.83.45-1.46.81-2.46.81-1.74,0-3.18-1.38-3.18-3.13,0-2.09,1.44-4.31,3.73-4.31.47,0,1.56.05,1.56.78,0,.36-.19.49-.5.49-.35,0-.42-.19-.94-.19-1.51,0-2.22,1.57-2.22,2.82s.54,2.29,1.86,2.29c.72,0,1.67-.42,1.67-1.26,0-.39-.03-.73-.03-.94,0-1.48.31-3.79,1.43-3.79.63,0,.73.75.73,1.33,0,1.04-.55,2.56-.55,2.94,0,.81.06,1.73.96,1.73.31,0,.54-.12.78-.12s.42.18.42.42c0,.78-.89.89-1.49.89Z"/>
    <path class="cls-1" d="m60.78,140.41c-.96,0-1.54-.68-1.98-1.44-.18-.29-.91-1.73-1.09-2.04-.7-.21-.81-.57-.81-.96s.32-.44.49-.44c.31,0,.88.32,1.35.32.42,0,1.09-.49,1.09-1.05,0-.47-.44-.81-.97-.81-1.33,0-2.79,2.45-2.79,3.92v2.01c0,.32-.31.58-.73.58-.32,0-.78-.16-.78-.55v-12.76c0-.46.39-.68.78-.68s.73.21.73.62v7.68c.75-1.2,1.46-2.04,2.93-2.04,1.69,0,2.27,1.2,2.27,1.93,0,1.07-.86,1.73-1.82,2.14.29.73.67,2.25,1.69,2.25.28,0,.62-.17.88-.17.19,0,.32.1.32.47,0,.84-.89,1.02-1.55,1.02Z"/>
    <path class="cls-1" d="m66.72,140.52c-1.44,0-3.06-.84-3.06-2.53,0-.89.54-1.46,1.14-2.09-.23-.32-.36-.73-.36-1.15,0-1.25,1.38-1.85,2.53-1.85.6,0,2.09.29,2.09,1.07,0,.08-.08.48-.29.48-.39,0-.76-.35-1.68-.35-.55,0-1.2.1-1.2.71,0,.18,0,.42.18.54.11,0,.27-.03.44-.03.55,0,1.25.12,1.25.7,0,.49-.49.73-.96.73-.57,0-.78-.16-.86-.16-.05,0-.65.26-.65,1.3,0,.96,1.02,1.38,1.8,1.38.97,0,2.12-.65,2.53-.85.37,0,.42.28.42.55,0,1.2-2.47,1.55-3.31,1.55Z"/>
  </g>
  <g>
    <g>
      <path class="cls-2" d="m80.11,92.59c-.07-.03-.15-.04-.22-.08-.26.1-.53.17-.82.17-.27,0-.53-.06-.78-.15.12.08.23.19.31.33.05.09.12.16.18.25.44-.12.89-.23,1.32-.36v-.18h0Z"/>
      <path class="cls-2" d="m74.17,85.66s0,.03-.01.04c-.28.62-.31,1.29-.16,1.91.31-.44.72-.82,1.23-1.09,0,0,.01,0,.02-.01.19-.12.29-.36.23-.58,0-.01,0-.02,0-.03-.13-.54-.12-1.08,0-1.59-.56.3-1.02.76-1.29,1.35Z"/>
      <path class="cls-2" d="m51.61,79.31c4.46-.53,8.04-3.94,8.84-8.32h-2.37c-3.46,1.34-6.01,4.51-6.47,8.32Z"/>
      <path class="cls-2" d="m75.67,89.77c-.16-.54-.11-1.1.1-1.59-.18-.5-.2-1.06,0-1.58-.08.13-.19.24-.33.32-.01,0-.02.01-.03.02-.54.28-.94.71-1.21,1.21.24.52.63.98,1.16,1.29.01,0,.02.02.03.02.12.08.22.19.29.31Z"/>
      <path class="cls-2" d="m76.77,92.49c.25,0,.49-.03.73-.09.08-.02.16-.03.25-.03.08,0,.15.01.22.03-.5-.27-.86-.7-1.05-1.21-.49-.22-.89-.6-1.13-1.11.03.16.04.32,0,.49,0,0,0,.02-.01.03-.18.58-.17,1.17,0,1.72.32.12.65.19,1,.19Z"/>
      <path class="cls-2" d="m29.02,72.73c.47,0,.93-.06,1.38-.18l.22-.06.06.22c.67,2.52,3.02,4.25,5.66,4.11,2.38-.13,4.4-1.76,5.04-4.05l.06-.22.22.06c.47.13.96.19,1.44.19,1.6,0,3.07-.67,4.1-1.82h-8.19c-.59.77-1.49,1.26-2.49,1.32-.06,0-.13,0-.19,0-1.05,0-2.03-.5-2.66-1.32h-8.47c-.06,0-.11.02-.16.04,1.03,1.07,2.46,1.7,3.98,1.7Z"/>
      <path class="cls-2" d="m61.85,86.58c-.25,0-.5.04-.74.12-.58.19-1.06.61-1.33,1.16-.27.55-.31,1.18-.12,1.76.32.94,1.2,1.57,2.19,1.57.25,0,.5-.04.74-.12,1.2-.41,1.85-1.72,1.44-2.93-.32-.93-1.19-1.56-2.18-1.56Z"/>
      <path class="cls-2" d="m75.36,90.41c.06-.22-.04-.46-.25-.58-.01-.01-.02-.02-.03-.02-.47-.29-.84-.68-1.12-1.12-.18.59-.19,1.24.04,1.86.03.03.04.07.05.12.25.59.68,1.07,1.21,1.39-.09-.53-.08-1.09.1-1.63,0,0,0-.01,0-.01Z"/>
      <path class="cls-2" d="m67.66,94.65h.22c1.97-.01,3.68-1.43,4.07-3.36.35-1.76-.46-3.55-2.01-4.45l-.19-.11.11-.19c.97-1.71.6-3.9-.88-5.21-.76-.67-1.74-1.04-2.76-1.04-.74,0-1.46.19-2.1.56l-.19.11-.11-.19c-.75-1.27-2.13-2.06-3.61-2.06-.46,0-.91.07-1.34.22-1.7.58-2.85,2.17-2.84,3.97v.22h-.22c-1.97.02-3.68,1.43-4.07,3.36-.35,1.76.46,3.54,2.01,4.44l.19.11-.11.19c-.97,1.71-.6,3.9.88,5.2.05.04.1.07.15.11,4.36-.11,8.63-.48,12.75-1.09.03-.19.04-.39.04-.58v-.22Zm-2.9.27h0c-.47,0-.94-.11-1.36-.31-.58.86-1.56,1.39-2.6,1.39-.21,0-.42-.02-.62-.06-1.38-.28-2.41-1.45-2.52-2.84-1.26-.08-2.35-.92-2.76-2.13-.45-1.33.05-2.81,1.2-3.6-.55-1.14-.38-2.5.47-3.46.59-.68,1.45-1.06,2.36-1.06.47,0,.94.1,1.36.31.69-1.03,1.98-1.58,3.22-1.33,1.38.28,2.41,1.45,2.52,2.84,1.26.09,2.35.92,2.76,2.13.45,1.34-.06,2.81-1.2,3.6.56,1.14.38,2.5-.46,3.45-.6.68-1.45,1.07-2.36,1.07Z"/>
      <path class="cls-2" d="m48.91,95.69l-.02-.22c-.1-1.26-1.1-2.29-2.35-2.44-1.15-.15-2.26.48-2.75,1.51l-.1.2-.2-.1c-.36-.17-.75-.26-1.15-.26-.85,0-1.64.39-2.15,1.07-.1.13-.18.27-.25.41,3.71.44,7.52.69,11.42.73-.55-.62-1.37-.98-2.22-.91l-.22.02Z"/>
      <path class="cls-2" d="m68.36,86.94c-.37-1.09-1.39-1.82-2.54-1.82h-.22v-.22c-.02-1.27-.93-2.37-2.17-2.62-1.12-.22-2.29.31-2.85,1.3l-.11.19-.19-.11c-.4-.23-.86-.35-1.33-.35-.77,0-1.51.33-2.02.91-.76.87-.89,2.12-.31,3.12l.11.19-.19.11c-1.09.64-1.59,1.98-1.18,3.19.37,1.09,1.39,1.83,2.55,1.83h.22v.22c.01,1.27.92,2.37,2.16,2.61,1.13.23,2.29-.31,2.86-1.29l.11-.19.2.11c.4.23.86.35,1.32.35h0c.77,0,1.51-.33,2.02-.92.76-.86.89-2.12.31-3.12l-.11-.2.19-.11c1.09-.64,1.59-1.98,1.19-3.18Zm-5.63,4.56c-.29.1-.58.15-.88.15-1.18,0-2.24-.75-2.61-1.88-.24-.7-.19-1.45.14-2.11.33-.66.89-1.15,1.59-1.39.29-.1.58-.14.89-.14,1.18,0,2.23.75,2.61,1.87.48,1.44-.29,3.01-1.73,3.5Z"/>
      <path class="cls-2" d="m43.23,81.69c-.31,0-.61.06-.9.18-.57.24-1.01.69-1.24,1.26-.23.57-.22,1.2.02,1.76.36.85,1.2,1.4,2.12,1.4.31,0,.61-.06.9-.19.57-.24,1.01-.69,1.24-1.26.23-.57.22-1.2-.02-1.77-.36-.85-1.2-1.4-2.13-1.4Z"/>
      <path class="cls-2" d="m75.41,92.65c-.81-.36-1.47-1.01-1.81-1.85,0,0,0-.02-.01-.03-.34-.89-.28-1.83.09-2.63-.31-.8-.33-1.72.03-2.56,0-.02,0-.03.02-.05.38-.85,1.08-1.48,1.92-1.79.35-.79.98-1.44,1.83-1.79.02-.01.03-.02.05-.03.39-.15.8-.22,1.21-.22.48,0,.95.11,1.37.29v-2.61c-.54.41-1.2.68-1.9.68-.13,0-.26,0-.39-.02-1.4-.17-2.51-1.27-2.72-2.64h-.03c-1.26,0-2.4-.75-2.89-1.91-.55-1.3-.16-2.81.92-3.68-.15-.25-.25-.52-.32-.79h-6.22c3.15,1.59,5.42,4.7,5.82,8.36.25.02.51.04.76.04v.45c-.25,0-.49-.02-.73-.04.02.24.04.48.04.73h-.45c0-.26-.02-.51-.04-.76-4.73-.52-8.53-4.14-9.34-8.78h-1.72c-.81,4.64-4.61,8.26-9.34,8.78-.02.25-.04.5-.04.76h-.45c0-.25.02-.49.04-.73-.24.02-.48.04-.72.04v-.45c.26,0,.51-.02.76-.04.4-3.66,2.67-6.77,5.82-8.36h-9.2c-1.12,1.42-2.82,2.27-4.68,2.27h0c-.45,0-.9-.05-1.35-.15-.75,2.36-2.89,4.03-5.39,4.17-.11,0-.22.01-.33.01-2.65,0-4.97-1.73-5.73-4.25-.42.09-.85.14-1.28.14-1.68,0-3.24-.7-4.37-1.9-.09.12-.16.26-.16.43v5.92c.16-.02.33-.04.49-.04,1.87,0,3.56,1.14,4.28,2.85.43-.13.88-.19,1.33-.19,1.43,0,2.76.65,3.65,1.78,1.31,1.66,1.31,4.01.03,5.68,1.39,1.3,1.84,3.33,1.12,5.11-.35.88-.95,1.61-1.7,2.11,1.89.35,3.82.64,5.77.88.1-.22.21-.43.36-.62.6-.79,1.52-1.25,2.51-1.25.39,0,.78.07,1.14.22.62-1.08,1.84-1.72,3.11-1.57,1.4.17,2.51,1.27,2.72,2.64h.02c1.06,0,2.02.53,2.59,1.38.13,0,.25,0,.38,0,.64,0,1.27-.02,1.9-.03-1.41-1.4-1.77-3.58-.87-5.36-1.6-1.03-2.42-2.93-2.04-4.81.41-2.07,2.2-3.6,4.29-3.72.09-1.9,1.33-3.56,3.15-4.18.48-.16.98-.25,1.49-.25,1.56,0,3.03.8,3.88,2.1.66-.34,1.39-.52,2.13-.52,1.13,0,2.21.41,3.06,1.16,1.59,1.39,2.02,3.71,1.08,5.57,1.6,1.03,2.42,2.93,2.04,4.81-.41,2.07-2.2,3.61-4.29,3.72,0,.1-.03.19-.04.29,2.75-.42,5.44-.95,8.06-1.58-.32-.34-.56-.74-.72-1.17Zm-26.54-4.1c-.6.79-1.51,1.25-2.51,1.25-.39,0-.78-.07-1.14-.21-.55.97-1.6,1.59-2.73,1.59-.13,0-.26,0-.38-.03-1.4-.17-2.51-1.26-2.72-2.64h-.02c-1.26,0-2.4-.75-2.89-1.91-.55-1.3-.16-2.81.92-3.68-.64-1.09-.57-2.46.2-3.48.6-.79,1.52-1.25,2.51-1.25.39,0,.78.07,1.14.22.62-1.08,1.84-1.71,3.12-1.57,1.4.17,2.51,1.27,2.72,2.64h.02c1.27,0,2.4.75,2.9,1.92.55,1.29.16,2.81-.92,3.68.64,1.08.57,2.46-.2,3.48Z"/>
      <path class="cls-2" d="m49.58,81.57c-.45-1.06-1.52-1.72-2.68-1.63l-.22.02-.02-.22c-.1-1.26-1.09-2.29-2.35-2.44-1.15-.14-2.26.48-2.75,1.5l-.1.21-.21-.1c-.36-.17-.74-.26-1.14-.26-.85,0-1.64.39-2.15,1.07-.69.93-.72,2.19-.07,3.14l.13.19-.19.13c-1.04.72-1.44,2.09-.94,3.26.45,1.06,1.53,1.71,2.68,1.63l.22-.02.02.23c.1,1.26,1.09,2.29,2.35,2.44,1.15.14,2.26-.48,2.75-1.5l.1-.2.2.1c.36.17.74.25,1.15.25.85,0,1.64-.39,2.15-1.07.7-.92.72-2.18.07-3.14l-.13-.19.19-.13c1.04-.72,1.44-2.09.94-3.26Zm-3.79,3.46c-.28.68-.8,1.22-1.48,1.51-.35.15-.71.22-1.08.22-1.11,0-2.1-.66-2.54-1.68-.29-.68-.29-1.43-.02-2.11.28-.69.8-1.22,1.48-1.51.34-.15.71-.22,1.08-.22,1.11,0,2.11.66,2.54,1.68.29.68.3,1.43.02,2.11Z"/>
      <path class="cls-2" d="m38.42,70.99h-4.14c.58.58,1.38.91,2.22.86.74-.04,1.42-.36,1.92-.86Z"/>
      <path class="cls-2" d="m33.89,82.3c-.8-1.02-2-1.6-3.29-1.6-.48,0-.95.08-1.39.24l-.21.07-.08-.21c-.65-1.81-2.51-2.95-4.42-2.72v4.12c.18.09.35.18.51.3.87-.88,2.25-1.18,3.41-.71,1.31.52,2.1,1.87,1.95,3.25,1.22.32,2.15,1.34,2.33,2.6.2,1.4-.57,2.76-1.84,3.32.32,1.15-.05,2.38-.95,3.18,1.03.23,2.07.44,3.12.65.87-.45,1.57-1.19,1.96-2.15.67-1.67.2-3.57-1.16-4.74l-.17-.15.15-.17c1.27-1.51,1.31-3.73.09-5.28Z"/>
      <path class="cls-2" d="m78.34,92.08c.33.14.68.17,1.03.11-.24-.19-.45-.42-.6-.69,0,0-.01-.02-.02-.03-.06-.1-.18-.16-.29-.12-.02,0-.04,0-.06,0-.17.04-.34.06-.52.06-.13,0-.25-.04-.37-.06.19.31.47.56.81.71.01,0,.02,0,.02,0Z"/>
      <path class="cls-2" d="m75.91,85.82s0,.02,0,.03c.04.16.02.32-.02.47.26-.5.68-.87,1.18-1.07.21-.48.59-.89,1.09-1.14-.14.02-.28.02-.41-.02-.3-.1-.6-.14-.91-.14s-.57.04-.85.12c-.2.54-.25,1.14-.09,1.74Z"/>
      <path class="cls-2" d="m77.76,82.31s-.03.02-.05.03c-.64.24-1.13.69-1.46,1.23.19-.03.39-.06.6-.06.35,0,.7.05,1.04.16.2.06.47-.04.59-.24,0-.01.01-.02.02-.03.28-.47.67-.85,1.13-1.13-.28-.09-.57-.14-.87-.14-.34,0-.67.06-.99.17Z"/>
      <path class="cls-2" d="m78.21,93.08c-.11-.2-.36-.31-.59-.25-.28.07-.56.11-.84.11-.27,0-.53-.04-.78-.1.17.32.4.6.68.85.56-.14,1.1-.29,1.65-.44-.03-.06-.08-.1-.11-.16Z"/>
      <path class="cls-2" d="m71.93,79.31c-.46-3.81-3.01-6.97-6.47-8.32h-2.37c.8,4.37,4.38,7.78,8.84,8.32Z"/>
      <path class="cls-2" d="m25.81,90.7c.61-.09,1.15-.4,1.52-.89.37-.49.53-1.1.44-1.71-.16-1.13-1.14-1.98-2.28-1.98-.11,0-.22.01-.33.03-.24.03-.46.11-.67.21v4.14c.39.19.85.27,1.32.21Z"/>
      <path class="cls-2" d="m28.25,82.21c-1.06-.42-2.31-.11-3.05.75l-.15.17-.17-.15c-.12-.1-.25-.19-.39-.27v3.14c.19-.07.39-.13.6-.16,1.52-.22,2.91.86,3.12,2.34.1.73-.08,1.46-.53,2.04-.44.59-1.09.97-1.81,1.07-.13.02-.26.03-.39.03-.35,0-.68-.07-.99-.19v1.78c1.58.46,3.2.86,4.84,1.24.05-.04.1-.06.14-.09.91-.71,1.26-1.92.88-3.01l-.08-.21.21-.08c1.19-.43,1.93-1.65,1.75-2.91-.16-1.14-1.04-2.05-2.17-2.26l-.22-.04.04-.22c.22-1.25-.47-2.49-1.65-2.97Z"/>
      <path class="cls-2" d="m76.88,89.66c.03-.11-.02-.23-.12-.28-.01,0-.03-.02-.04-.03-.27-.16-.48-.38-.66-.62-.07.33-.06.67.06,1.01,0,.01.02.03.02.04.13.34.36.62.64.83-.03-.31,0-.63.09-.94,0,0,0,0,0,0Z"/>
      <path class="cls-2" d="m72.61,75.29c.45,1.06,1.51,1.72,2.68,1.63l.22-.02.02.22c.1,1.27,1.1,2.29,2.35,2.45.85.11,1.66-.2,2.23-.77v-3.44s-.05.03-.08.04c-.34.15-.71.22-1.08.22-1.11,0-2.1-.66-2.54-1.68-.44-1.03-.19-2.17.51-2.94h-3.67c.08.25.19.49.35.72l.13.18-.18.13c-1.04.72-1.44,2.09-.94,3.26Z"/>
      <path class="cls-2" d="m77.3,89.83c-.11.35-.1.71-.01,1.04.19.06.39.1.59.1.15,0,.31-.02.46-.06.02,0,.04,0,.06,0,.29-.06.59.08.74.33,0,.01.01.02.02.03.17.33.43.58.75.76.08-.04.14-.1.21-.14v-7.3s0,0,0,0c-.32.16-.6.4-.79.71-.16.27-.5.42-.82.33-.37-.12-.74-.11-1.09,0-.11.33-.13.69-.04,1.04.09.32-.06.65-.35.81-.33.17-.59.43-.77.74.16.32.4.59.72.78.01,0,.02.02.04.03.26.17.38.49.29.8,0,.01,0,.02,0,.03Z"/>
      <path class="cls-2" d="m76.25,86.58s0,.03-.01.04c-.15.33-.19.69-.14,1.03.19-.24.44-.44.73-.6.1-.06.16-.18.12-.3-.08-.31-.09-.62-.04-.92-.28.18-.51.44-.65.74Z"/>
      <path class="cls-2" d="m78.93,85.06c.16-.28.39-.5.65-.68-.13-.03-.26-.06-.4-.06-.22,0-.43.04-.63.11,0,0-.02,0-.03.01-.35.14-.64.37-.85.66.09,0,.17-.04.26-.04.24,0,.48.04.71.11.09.02.24-.02.3-.12Z"/>
      <path class="cls-2" d="m76.83,73.76c.36.85,1.2,1.4,2.12,1.4.31,0,.61-.06.9-.18.09-.04.17-.09.26-.14v-3.14c0-.39-.32-.71-.71-.71h-1.8c-.85.62-1.2,1.76-.78,2.77Z"/>
      <path class="cls-2" d="m78.86,83.66s-.01.02-.02.03c-.07.11-.17.2-.28.28.2-.06.4-.09.61-.09.33,0,.65.09.94.22h0v-1.56c-.51.25-.96.63-1.25,1.13Z"/>
    </g>
    <g>
      <path class="cls-2" d="m59.15,51.24c1.26-.18,2.14-1.35,1.96-2.61-.16-1.13-1.14-1.98-2.28-1.98-.11,0-.22,0-.33.02-.61.09-1.15.41-1.52.9-.37.49-.52,1.1-.44,1.71.17,1.24,1.33,2.14,2.61,1.96Z"/>
      <path class="cls-2" d="m53.95,46.47l.08.21-.21.08c-1.19.43-1.93,1.65-1.75,2.91.16,1.15,1.03,2.06,2.17,2.27l.22.04-.04.22c-.22,1.25.47,2.49,1.65,2.97,1.06.42,2.31.11,3.05-.75l.15-.17.17.15c.94.8,2.41.83,3.39.06.91-.71,1.26-1.92.87-3.01l-.07-.21.21-.08c1.19-.43,1.93-1.65,1.75-2.91-.16-1.14-1.04-2.05-2.17-2.26l-.22-.04.04-.22c.03-.19.04-.37.04-.55h-9.44c-.06.43-.03.88.12,1.3Zm2.67.83c.44-.59,1.09-.97,1.82-1.08,1.53-.21,2.91.86,3.12,2.34.21,1.51-.84,2.91-2.34,3.12-.13.02-.26.03-.39.03-1.36,0-2.54-1.02-2.73-2.37-.1-.73.08-1.45.52-2.04Z"/>
      <path class="cls-2" d="m47.79,56.11c-1.03-1.57-2.76-2.51-4.65-2.51-.47,0-.93.06-1.38.17l-.22.06-.06-.22c-.67-2.52-3.01-4.24-5.66-4.11-.59.03-1.16.16-1.7.37v4.6c.45-.26.96-.43,1.51-.46,1.3-.07,2.51.62,3.13,1.74,1.16-.45,2.54-.2,3.47.63.97.87,1.35,2.2.99,3.44,1.16.51,1.93,1.63,2,2.9.07,1.3-.61,2.51-1.74,3.13.18.47.25.96.22,1.45h4.93c0-1.43-.54-2.84-1.59-3.91l-.16-.16.16-.16c1.85-1.84,2.16-4.76.73-6.95Z"/>
      <path class="cls-2" d="m70.01,66.59v-2.02c-.93,1.13-2.09,2.06-3.41,2.73h2.71c.39,0,.71-.32.71-.71Z"/>
      <path class="cls-2" d="m45.76,50.56c-.25-2.05-1.11-3.9-2.38-5.39h-5.44c1.53,2.9,4.42,4.99,7.82,5.39Z"/>
      <path class="cls-2" d="m63.7,45.59c1.22.31,2.14,1.33,2.32,2.6.2,1.4-.57,2.76-1.84,3.32.34,1.22-.08,2.53-1.09,3.31-.56.44-1.23.67-1.94.67h0c-.67,0-1.32-.21-1.85-.6-.59.6-1.4.94-2.25.94-.4,0-.79-.08-1.17-.23-1.31-.53-2.1-1.87-1.95-3.25-1.22-.32-2.14-1.34-2.32-2.6-.2-1.39.57-2.75,1.84-3.32-.12-.41-.14-.84-.08-1.25h-4.19c-.44,1.56.05,3.24,1.3,4.31l.17.15-.14.17c-1.27,1.5-1.31,3.73-.09,5.28.8,1.02,2,1.6,3.29,1.6.48,0,.95-.08,1.39-.24l.21-.08.08.21c.66,1.84,2.57,2.99,4.53,2.72,1.78-.25,3.19-1.61,3.52-3.38l.04-.22.22.04c.24.04.49.07.73.07,1.72,0,3.24-1.03,3.89-2.62.67-1.67.2-3.57-1.16-4.74l-.17-.15.14-.17c.71-.84,1.02-1.9.96-2.95h-4.38c0,.14,0,.28,0,.42Z"/>
      <path class="cls-2" d="m40.56,58.21c-.64-.58-1.62-.72-2.4-.36l-.2.09-.1-.2c-.38-.8-1.21-1.3-2.11-1.26-.65.04-1.23.36-1.62.85v2.89c.51-.34,1.1-.56,1.76-.6,1.96-.09,3.62,1.4,3.72,3.34.05.94-.27,1.85-.9,2.55-.63.7-1.5,1.12-2.44,1.17-.06,0-.13,0-.2,0-.72,0-1.39-.22-1.94-.59v.48c0,.39.32.71.7.71h6.4c.37-.62.44-1.38.13-2.06l-.09-.2.2-.1c.81-.38,1.31-1.21,1.26-2.11-.05-.88-.61-1.64-1.44-1.95l-.21-.08.08-.21c.3-.85.07-1.78-.6-2.38Z"/>
      <path class="cls-2" d="m38.38,65.22c.55-.61.83-1.4.78-2.23-.09-1.64-1.44-2.92-3.08-2.92-.06,0-.11,0-.17,0-.68.04-1.29.3-1.78.7v4.75c.58.47,1.32.75,2.12.7.82-.05,1.58-.41,2.13-1.02Z"/>
      <path class="cls-2" d="m34.13,45.88v3.51c.53-.19,1.09-.31,1.67-.34,2.78-.16,5.27,1.62,6.06,4.24.42-.09.85-.14,1.28-.14,2.03,0,3.91,1.02,5.03,2.72,1.51,2.31,1.23,5.37-.64,7.36,1.03,1.14,1.57,2.59,1.56,4.07h7.85c-3.14-1.6-5.39-4.69-5.79-8.34-.25-.02-.5-.04-.76-.04v-.45c.24,0,.49.02.72.04-.01-.24-.04-.48-.04-.73h.45c0,.26.02.51.04.76,4.72.52,8.52,4.13,9.34,8.76h1.73c.7-3.97,3.59-7.18,7.38-8.35v-13.07c0-.39-.32-.71-.71-.71h-.76c.06,1.08-.24,2.18-.93,3.07,1.39,1.3,1.84,3.33,1.12,5.1-.71,1.77-2.4,2.91-4.3,2.91-.2,0-.4-.01-.6-.04-.43,1.85-1.96,3.26-3.86,3.53-.22.03-.44.05-.66.05-1.87,0-3.56-1.14-4.28-2.85-.43.13-.88.2-1.34.2-1.44,0-2.76-.65-3.65-1.77-1.31-1.67-1.31-4.02-.03-5.68-1.23-1.16-1.72-2.89-1.31-4.51h-4.74c1.21,1.53,2.02,3.39,2.25,5.44.25.02.5.04.76.04v.45c-.24,0-.49-.02-.73-.04.02.24.04.48.04.73h-.45c0-.26-.02-.51-.04-.76-3.68-.41-6.79-2.69-8.38-5.86h-2.6c-.39,0-.7.31-.7.71Z"/>
      <path class="cls-2" d="m63.1,67.3h2.41c1.81-.71,3.37-1.93,4.51-3.47v-4.4c-3.53,1.15-6.23,4.16-6.91,7.87Z"/>
      <path class="cls-2" d="m41.94,56.72c-.85-.76-2.15-.95-3.18-.47l-.2.1-.1-.2c-.5-1.06-1.61-1.72-2.8-1.67-.56.03-1.09.22-1.53.54v1.71c.44-.38.99-.64,1.59-.67,1.02-.06,1.95.47,2.44,1.33.91-.33,1.97-.13,2.69.52.75.67,1.05,1.7.79,2.67.89.41,1.49,1.28,1.54,2.26.05,1.01-.46,1.95-1.33,2.45.25.67.2,1.41-.09,2.04h1.49c.04-.49-.04-.99-.25-1.46l-.1-.2.2-.1c1.08-.51,1.73-1.61,1.67-2.8-.06-1.17-.81-2.18-1.91-2.58l-.21-.08.08-.21c.4-1.12.09-2.36-.8-3.16Z"/>
      <path class="cls-2" d="m51.61,59c.45,3.79,2.99,6.95,6.42,8.3h2.41c-.81-4.37-4.38-7.77-8.84-8.3Z"/>
    </g>
    <g>
      <path class="cls-2" d="m54.71,35.46c2.5-.3,4.72-1.51,6.33-3.28v-2.67c0-.39-.32-.71-.71-.71h-1.97c-1.97,1.63-3.33,3.98-3.65,6.66Z"/>
      <path class="cls-2" d="m48.21,38.36c-.4,0-.78-.07-1.14-.22-.56.97-1.6,1.59-2.73,1.59-.13,0-.26,0-.39-.02-.3-.04-.58-.12-.85-.24v1.19c0,.39.32.71.71.71h10.1c.53-1.68,1.97-2.93,3.75-3.19,1.23-.18,2.43.17,3.38.86v-6.19c-1.67,1.67-3.89,2.8-6.37,3.07-.02.25-.04.5-.04.76h-.45c0-.24.02-.49.04-.73-.24.02-.48.04-.73.04v-.45c.26,0,.51-.02.76-.04.29-2.65,1.56-4.99,3.43-6.7h-6.66c.35.31.64.69.83,1.14.55,1.3.16,2.81-.92,3.68.64,1.09.57,2.46-.2,3.48-.6.8-1.52,1.25-2.51,1.25Z"/>
      <path class="cls-2" d="m57.73,38.62c-1.56.22-2.83,1.29-3.35,2.74h5.96c.39,0,.71-.32.71-.71v-1.06c-.89-.76-2.09-1.15-3.32-.98Z"/>
      <path class="cls-2" d="m44,30.01c.34-.15.71-.22,1.08-.22,1.11,0,2.11.66,2.54,1.68.59,1.4-.06,3.02-1.46,3.62-.34.15-.71.22-1.08.22-.76,0-1.47-.32-1.98-.85v4.52c.28.14.58.24.91.28,1.15.14,2.26-.48,2.75-1.51l.1-.2.21.1c.36.17.74.26,1.15.26.85,0,1.63-.39,2.15-1.07.69-.92.72-2.18.07-3.13l-.12-.19.18-.13c1.04-.72,1.44-2.1.94-3.26-.25-.58-.68-1.03-1.21-1.31h-6.41c-.39,0-.71.32-.71.71v1.11c.25-.26.56-.47.9-.62Z"/>
      <path class="cls-2" d="m45.08,34.85c.31,0,.61-.06.9-.19,1.17-.5,1.72-1.85,1.22-3.02-.36-.85-1.2-1.41-2.12-1.41-.31,0-.61.06-.9.18-.46.19-.83.53-1.08.96v2.3c.41.71,1.15,1.17,1.98,1.17Z"/>
    </g>
    <g>
      <path class="cls-2" d="m51.94,13.74c.64.58,1.62.72,2.4.36l.2-.09.1.2c.38.8,1.21,1.31,2.11,1.26.25-.01.49-.08.71-.17v-3.11c-.26.08-.54.14-.82.15-.06,0-.13,0-.19,0-1.88,0-3.43-1.47-3.53-3.35-.1-1.95,1.39-3.62,3.34-3.72.42-.03.83.04,1.21.16v-2.91c-.39-.26-.85-.41-1.35-.39-.88.05-1.65.61-1.95,1.44l-.08.21-.21-.08c-.83-.29-1.8-.05-2.39.6-.59.65-.73,1.6-.36,2.4l.1.2-.2.1c-.81.38-1.31,1.21-1.26,2.11.05.88.61,1.65,1.44,1.95l.21.08-.08.21c-.3.85-.07,1.78.6,2.38Z"/>
      <path class="cls-2" d="m50.58,15.26c.85.76,2.15.95,3.18.47l.2-.09.1.2c.5,1.07,1.62,1.72,2.8,1.67.21-.01.41-.05.6-.1v-1.62c-.22.07-.45.12-.69.13-.05,0-.1,0-.15,0-.95,0-1.83-.52-2.3-1.33-.9.33-1.97.13-2.69-.52-.75-.67-1.05-1.7-.79-2.67-.89-.41-1.48-1.28-1.54-2.27-.05-1.01.46-1.95,1.33-2.44-.34-.92-.15-1.95.51-2.69.66-.73,1.72-1.04,2.67-.79.41-.89,1.27-1.48,2.27-1.54.48-.03.95.09,1.37.31V.7c0-.12-.04-.23-.1-.34-.42-.19-.88-.28-1.34-.26-1.17.06-2.18.81-2.58,1.91l-.08.21-.21-.08c-1.09-.39-2.38-.07-3.16.8s-.97,2.11-.47,3.18l.09.2-.2.09c-1.08.51-1.74,1.61-1.67,2.8.06,1.17.81,2.18,1.91,2.58l.21.08-.08.21c-.4,1.12-.09,2.36.8,3.16Z"/>
      <path class="cls-2" d="m46.69.7v16.98c.81.45,1.73.69,2.69.69.47,0,.93-.06,1.38-.17l.22-.06.06.22c.66,2.52,3.02,4.26,5.66,4.11.26-.01.51-.05.76-.1v-4.5c-.19.04-.38.08-.58.09-.06,0-.12,0-.18,0-1.23,0-2.36-.68-2.95-1.74-1.16.45-2.54.2-3.47-.63-.97-.87-1.35-2.2-.99-3.44-1.16-.51-1.94-1.63-2-2.9-.07-1.3.6-2.51,1.73-3.13-.46-1.18-.22-2.52.63-3.47.85-.95,2.23-1.34,3.44-.99C53.42.93,54,.34,54.7,0h-7.31c-.39,0-.7.31-.7.7Z"/>
      <path class="cls-2" d="m56.27,5.73c-1.7.09-3.01,1.55-2.91,3.25.09,1.69,1.52,3.01,3.25,2.91.3-.02.58-.09.85-.18v-5.8c-.32-.11-.66-.18-1.02-.18-.06,0-.11,0-.17,0Z"/>
      <path class="cls-2" d="m56.38,22.94c-2.64,0-4.97-1.73-5.73-4.25-.42.09-.85.14-1.28.14-.95,0-1.86-.23-2.69-.64v6.82c0,.28.16.52.4.63.03.01.06.02.08.03.07.02.15.05.23.05h9.35c.39,0,.7-.31.7-.71v-2.18c-.24.04-.49.08-.74.1-.11,0-.22,0-.33,0Z"/>
    </g>
  </g>
  <text class="cls-3" transform="translate(1.5 120.72)"><tspan x="0" y="0">N A G A N O</tspan></text>
  <text class="cls-4" transform="translate(1.5 120.99)"><tspan x="0" y="0">N A G A N O</tspan></text>
</svg>